<?xml version="1.0" encoding="UTF-8"?>
<svg xmlns="http://www.w3.org/2000/svg" xmlns:xlink="http://www.w3.org/1999/xlink" version="1.2" >
<font id="SN Semibold Italic">
<font-face  font-family="SN" units-per-em="1000" ascent="800" descent="-200" font-style="italic" font-weight="375" font-stretch="normal" slope="-12" cap-height="658" x-height="464" underline-position="-75" underline-thickness="50" />
<missing-glyph  horiz-adv-x="500" d="M0 -200 L500 -200 L500 800 L0 800 L0 -200 Z M71 750 L429 750 L250 360 L71 750 Z M50 -76 L50 676 L222 300 L50 -76 Z M450 676 L450 -76 L278 300 L450 676 Z M250 240 L429 -150 L71 -150 L250 240 Z " />
<glyph glyph-name="NULL" d="" />
<glyph glyph-name="CR" unicode="&#xd;" horiz-adv-x="250" d="" />
<glyph glyph-name="space" unicode="&#x20;" horiz-adv-x="174" d="" />
<glyph glyph-name="exclam" unicode="&#x21;" horiz-adv-x="288" d="M107 195 L161 184 C195 279 223 352 255 434 C297 547 314 585 314 618 C314 658 285 684 242 684 C189 684 170 643 161 584 C144 481 133 342 107 195 L107 195 Z M101 -16 C148 -16 176 26 176 63 C176 104 146 130 108 130 C61 130 33 88 33 52 C33 10 63 -16 101 -16 L101 -16 Z " />
<glyph glyph-name="quotedbl" unicode="&#x22;" horiz-adv-x="421" d="M136 400 L223 492 C283 554 307 581 307 610 C307 641 279 666 247 666 C212 666 195 636 168 574 L100 421 L136 400 Z M322 400 L409 492 C469 554 493 581 493 610 C493 641 465 666 433 666 C398 666 381 636 354 574 L286 421 L322 400 Z " />
<glyph glyph-name="numbersign" unicode="&#x23;" horiz-adv-x="659" d="M85 409 L223 409 L172 221 L44 221 L29 153 L153 153 L102 -36 L177 -44 L231 153 L373 153 L321 -36 L396 -44 L450 153 L592 153 L607 221 L468 221 L520 409 L648 409 L663 477 L539 477 L589 659 L514 667 L461 477 L319 477 L369 659 L294 667 L242 477 L100 477 L85 409 Z M301 409 L443 409 L391 221 L249 221 L301 409 Z " />
<glyph glyph-name="dollar" unicode="&#x24;" horiz-adv-x="551" d="M364 710 L345 636 C218 635 110 556 110 437 C110 353 177 314 257 277 L204 61 C164 71 131 88 120 107 C143 118 162 145 162 172 C162 204 136 231 99 231 C54 231 22 192 22 146 C22 82 91 27 189 7 L168 -78 L234 -88 L255 0 L266 0 C420 0 498 97 498 200 C498 290 430 330 346 368 L398 576 C434 567 459 550 468 534 C448 522 434 498 434 472 C434 441 457 417 494 417 C537 417 565 454 565 501 C565 553 511 612 412 630 L429 700 L364 710 Z M393 156 C393 100 355 55 267 54 L316 249 C360 226 393 199 393 156 L393 156 Z M221 480 C221 528 261 574 333 581 L287 396 C249 417 221 441 221 480 L221 480 Z " />
<glyph glyph-name="percent" unicode="&#x25;" horiz-adv-x="794" d="M179 266 C298 266 379 415 379 512 L379 515 C398 512 419 511 440 511 C488 511 546 527 586 552 L589 549 L101 12 L157 -29 L721 615 L679 653 C610 598 540 569 454 569 C418 569 387 574 358 584 C337 613 302 629 259 629 C146 629 44 510 44 399 C44 315 93 266 179 266 L179 266 Z M578 -14 C697 -14 778 135 778 232 C778 307 729 348 658 348 C545 348 443 229 443 118 C443 35 492 -14 578 -14 L578 -14 Z M587 39 C557 39 538 53 538 95 C538 172 605 291 672 291 C703 291 721 270 721 232 C721 155 656 39 587 39 L587 39 Z M188 319 C158 319 139 333 139 375 C139 446 197 554 259 569 C278 552 299 540 320 531 C321 525 322 519 322 512 C322 435 257 319 188 319 L188 319 Z " />
<glyph glyph-name="ampersand" unicode="&#x26;" horiz-adv-x="696" d="M611 391 C530 391 487 299 431 211 C414 254 391 295 362 339 C495 387 524 454 524 504 C524 578 464 633 368 633 C269 633 181 570 181 467 C181 427 193 395 227 345 C80 302 17 227 17 136 C17 43 88 -16 191 -16 C271 -16 324 22 373 79 C407 15 436 -15 501 -15 C558 -15 601 19 646 120 L602 145 C567 80 551 67 528 67 C506 67 485 96 456 162 C495 221 528 278 568 304 C556 266 578 233 618 233 C658 233 686 276 686 320 C686 364 653 391 611 391 L611 391 Z M228 65 C174 65 142 100 142 156 C142 205 165 264 254 304 C294 243 322 192 347 125 C313 86 279 65 228 65 L228 65 Z M292 491 C292 542 325 574 364 574 C407 574 429 543 429 506 C429 466 410 417 336 380 C301 435 292 462 292 491 L292 491 Z " />
<glyph glyph-name="quotesingle" unicode="&#x27;" horiz-adv-x="234" d="M136 400 L223 492 C283 554 307 581 307 610 C307 641 279 666 247 666 C212 666 195 636 168 574 L100 421 L136 400 Z " />
<glyph glyph-name="parenleft" unicode="&#x28;" horiz-adv-x="373" d="M261 -158 L304 -111 C228 -45 180 52 180 185 C180 389 303 586 491 668 L470 723 C232 649 64 444 64 197 C64 38 146 -82 261 -158 L261 -158 Z " />
<glyph glyph-name="parenright" unicode="&#x29;" horiz-adv-x="373" d="M138 722 L95 675 C171 609 219 512 219 379 C219 175 96 -22 -92 -104 L-71 -159 C167 -85 335 120 335 367 C335 526 253 646 138 722 L138 722 Z " />
<glyph glyph-name="asterisk" unicode="&#x2a;" horiz-adv-x="434" d="M318 360 C329 328 349 318 376 329 C404 339 413 359 401 390 C392 413 355 456 327 489 L336 499 C377 486 429 471 453 472 C487 473 503 489 501 518 C500 546 484 562 450 560 C426 558 374 538 334 521 L326 532 C351 567 382 613 389 635 C398 668 387 687 360 695 C332 702 313 692 304 659 C298 637 302 582 304 537 L291 532 C266 567 233 611 213 625 C186 644 163 638 148 616 C132 591 136 570 164 551 C184 537 238 525 280 515 L281 501 C240 488 188 470 169 454 C142 434 139 411 158 388 C175 367 198 364 224 385 C242 400 272 447 295 485 L308 481 C308 439 310 383 318 360 L318 360 Z " />
<glyph glyph-name="plus" unicode="&#x2b;" horiz-adv-x="525" d="M185 68 L261 68 L305 248 L481 248 L498 318 L323 318 L368 497 L292 497 L247 318 L71 318 L54 248 L229 248 L185 68 Z " />
<glyph glyph-name="comma" unicode="&#x2c;" horiz-adv-x="242" d="M-50 -153 C91 -119 160 -40 160 47 C160 97 132 137 79 137 C33 137 3 94 3 53 C3 17 26 -6 57 -6 C66 -6 72 -4 78 0 L84 -4 C67 -46 19 -85 -62 -108 L-50 -153 Z " />
<glyph glyph-name="hyphen" unicode="&#x2d;" horiz-adv-x="358" d="M46 208 L300 208 L322 294 L68 294 L46 208 Z " />
<glyph glyph-name="period" unicode="&#x2e;" horiz-adv-x="242" d="M77 -16 C124 -16 154 28 154 68 C154 112 125 139 87 139 C40 139 10 95 10 55 C10 11 39 -16 77 -16 L77 -16 Z " />
<glyph glyph-name="slash" unicode="&#x2f;" horiz-adv-x="429" d="M-139 -186 L-73 -218 L528 692 L461 724 L-139 -186 Z " />
<glyph glyph-name="zero" unicode="0" horiz-adv-x="576" d="M256 -16 C437 -16 563 194 563 396 C563 554 484 650 356 650 C174 650 48 440 48 238 C48 80 127 -16 256 -16 L256 -16 Z M355 582 C407 582 437 546 437 446 C437 322 375 52 256 52 C204 52 174 88 174 188 C174 312 236 582 355 582 L355 582 Z " />
<glyph glyph-name="one" unicode="1" horiz-adv-x="475" d="M2 0 L402 0 L416 74 L278 74 L419 642 L338 642 C294 588 211 559 132 563 L118 501 C135 494 166 491 191 491 C220 491 245 495 264 502 L157 74 L19 74 L2 0 Z " />
<glyph glyph-name="two" unicode="2" horiz-adv-x="568" d="M220 545 C240 566 278 584 325 584 C390 584 432 548 432 489 C432 401 353 358 248 307 C156 262 15 184 15 62 C15 9 44 -16 77 -16 C112 -16 137 9 137 49 C137 57 135 67 132 76 C143 80 151 81 160 81 C217 81 244 -16 344 -16 C427 -16 482 41 523 193 L473 203 C437 126 411 98 370 98 C324 98 287 145 213 145 C176 145 141 134 112 117 L109 120 C140 177 183 219 347 271 C456 304 556 353 556 478 C556 568 481 650 341 650 C198 650 105 564 105 481 C105 431 136 400 183 400 C233 402 256 441 256 477 C256 509 240 533 220 545 L220 545 Z " />
<glyph glyph-name="three" unicode="3" horiz-adv-x="532" d="M119 88 C147 104 163 128 163 164 C163 198 139 229 98 229 C49 229 15 186 15 138 C15 53 101 -16 239 -16 C386 -16 483 77 483 182 C483 249 437 302 325 321 L326 324 C478 335 534 415 534 500 C534 579 465 650 326 650 C221 650 108 593 108 503 C108 463 136 436 177 436 C222 436 249 470 249 511 C249 532 241 551 229 564 C245 577 279 586 311 586 C373 586 406 559 406 502 C406 469 395 427 363 395 C338 370 305 358 237 358 L214 358 L196 291 L220 291 C320 291 355 254 355 198 C355 123 317 48 223 48 C171 48 132 66 119 88 L119 88 Z " />
<glyph glyph-name="four" unicode="4" horiz-adv-x="567" d="M323 256 L119 256 L389 539 L394 539 L323 256 Z M392 73 L419 182 L546 182 L564 256 L437 256 L534 645 L410 645 L32 257 L15 182 L305 182 L277 73 L178 73 L160 0 L469 0 L487 73 L392 73 Z " />
<glyph glyph-name="five" unicode="5" horiz-adv-x="531" d="M224 526 C256 513 304 500 363 500 C445 500 512 538 562 604 L544 642 C499 623 448 610 386 610 C329 610 263 621 208 645 L185 628 L87 316 L136 295 C173 319 211 334 259 334 C314 334 364 308 364 235 C364 148 317 49 214 49 C167 49 132 71 120 96 C151 110 171 138 171 170 C171 204 146 231 108 231 C57 231 23 185 23 132 C23 49 115 -16 223 -16 C402 -16 491 117 491 235 C491 330 424 401 301 401 C248 401 204 387 173 366 L224 526 Z " />
<glyph glyph-name="six" unicode="6" horiz-adv-x="550" d="M263 49 C206 49 172 92 172 162 C172 250 218 336 297 336 C347 336 382 302 382 237 C382 153 340 49 263 49 L263 49 Z M560 526 C560 599 490 650 388 650 C180 650 55 431 55 225 C55 71 138 -16 270 -16 C429 -16 510 119 510 231 C510 333 438 400 337 400 C277 400 228 372 192 332 C223 490 292 586 392 586 C424 586 446 575 454 563 C428 545 417 521 417 495 C417 464 441 436 482 436 C529 436 560 478 560 526 L560 526 Z " />
<glyph glyph-name="seven" unicode="7" horiz-adv-x="535" d="M247 58 C322 271 413 390 528 481 C584 525 606 553 606 594 C606 624 582 650 546 650 C507 650 483 621 483 583 C483 574 484 564 488 553 C483 552 476 551 468 551 C403 551 397 643 319 643 C278 643 245 621 210 561 L204 561 L217 637 L140 637 L81 397 L151 397 C192 499 213 527 249 527 C287 527 313 488 385 488 C421 488 458 498 497 519 L501 514 C476 492 449 471 422 449 C272 330 102 143 102 46 C102 10 132 -19 169 -19 C208 -19 229 7 247 58 L247 58 Z " />
<glyph glyph-name="eight" unicode="8" horiz-adv-x="545" d="M543 494 C543 577 470 650 340 650 C191 650 108 547 108 450 C108 381 144 340 191 310 C90 289 27 228 27 147 C27 58 106 -16 249 -16 C404 -16 493 81 493 188 C493 264 449 306 396 337 C487 359 543 418 543 494 L543 494 Z M241 283 L240 280 C316 243 378 214 378 151 C378 95 334 47 254 47 C170 47 131 96 131 153 C131 211 169 260 233 287 C235 285 238 284 241 283 L241 283 Z M355 363 C280 398 225 427 225 491 C225 541 267 588 339 588 C411 588 445 546 445 493 C445 443 415 391 354 360 L355 363 Z " />
<glyph glyph-name="nine" unicode="9" horiz-adv-x="550" d="M327 585 C383 585 417 542 417 467 C417 376 370 290 291 290 C240 290 206 324 206 393 C206 481 249 585 327 585 L327 585 Z M21 114 C21 42 93 -16 207 -16 C415 -16 535 200 535 408 C535 563 452 650 319 650 C160 650 79 515 79 399 C79 293 149 226 250 226 C310 226 361 254 395 294 C366 142 300 48 199 48 C165 48 142 58 128 74 C154 93 165 116 165 142 C165 173 141 201 100 201 C53 201 21 161 21 114 L21 114 Z " />
<glyph glyph-name="colon" unicode="&#x3a;" horiz-adv-x="254" d="M82 -16 C129 -16 159 28 159 68 C159 112 130 139 92 139 C45 139 15 95 15 55 C15 11 44 -16 82 -16 L82 -16 Z M158 270 C205 270 235 314 235 354 C235 398 206 425 168 425 C121 425 91 381 91 341 C91 297 120 270 158 270 L158 270 Z " />
<glyph glyph-name="semicolon" unicode="&#x3b;" horiz-adv-x="254" d="M-45 -153 C96 -119 165 -40 165 47 C165 97 137 137 84 137 C38 137 8 94 8 53 C8 17 31 -6 62 -6 C71 -6 77 -4 83 0 L89 -4 C72 -46 24 -85 -57 -108 L-45 -153 Z M158 270 C205 270 235 314 235 354 C235 398 206 425 168 425 C121 425 91 381 91 341 C91 297 120 270 158 270 L158 270 Z " />
<glyph glyph-name="less" unicode="&#x3c;" horiz-adv-x="524" d="M398 69 L428 137 L157 282 L508 433 L486 499 L92 325 L75 253 L398 69 Z " />
<glyph glyph-name="equal" unicode="&#x3d;" horiz-adv-x="525" d="M81 343 L498 343 L517 415 L100 415 L81 343 Z M33 150 L450 150 L469 222 L52 222 L33 150 Z " />
<glyph glyph-name="greater" unicode="&#x3e;" horiz-adv-x="524" d="M153 499 L123 430 L395 285 L43 134 L66 69 L459 243 L476 315 L153 499 Z " />
<glyph glyph-name="question" unicode="&#x3f;" horiz-adv-x="464" d="M369 256 L336 288 C298 251 274 241 246 241 C221 241 207 253 207 273 C207 312 253 329 324 353 C425 385 510 423 510 526 C510 609 445 684 309 684 C186 684 103 618 103 543 C103 503 131 474 170 474 C218 474 245 512 245 550 C245 569 237 587 226 602 C241 613 269 623 303 623 C364 623 396 592 396 547 C396 484 335 458 258 429 C173 396 108 361 108 285 C108 217 164 182 225 182 C283 182 332 206 369 256 L369 256 Z M167 -16 C213 -16 242 25 242 61 C242 104 213 130 174 130 C128 130 99 89 99 53 C99 11 128 -16 167 -16 L167 -16 Z " />
<glyph glyph-name="at" unicode="&#x40;" horiz-adv-x="886" d="M632 -48 C570 -82 501 -101 420 -101 C230 -101 104 24 104 205 C104 441 297 638 524 638 C691 638 806 539 806 377 C806 219 718 111 648 111 C598 111 577 142 604 228 L681 472 L586 472 L562 396 C556 446 518 479 467 479 C349 479 242 355 242 217 C242 123 295 65 373 65 C422 65 475 99 511 170 L515 169 C506 91 560 55 627 55 C769 55 865 210 865 379 C865 571 718 686 528 686 C265 686 46 473 46 203 C46 -14 204 -149 414 -149 C505 -149 582 -129 653 -88 L632 -48 Z M403 132 C364 132 348 161 348 205 C348 278 392 423 479 423 C521 423 535 392 535 345 C535 272 487 132 403 132 L403 132 Z " />
<glyph glyph-name="A" unicode="A" horiz-adv-x="673" d="M345 75 L327 0 L636 0 L655 75 L567 75 L507 662 L384 662 L29 75 L-40 75 L-59 0 L186 0 L204 75 L121 75 L207 222 L428 222 L440 75 L345 75 Z M245 289 L398 553 L402 553 L423 289 L245 289 Z " />
<glyph glyph-name="B" unicode="B" horiz-adv-x="642" d="M-26 0 L284 0 C421 0 502 29 551 78 C580 107 600 150 600 198 C600 269 548 323 440 341 L441 346 C597 359 650 443 650 518 C650 588 600 658 424 658 L135 658 L116 583 L218 583 L92 75 L-9 75 L-26 0 Z M293 379 L344 583 L409 583 C493 583 521 554 521 503 C521 449 481 379 368 379 L293 379 Z M218 75 L276 309 L336 309 C437 309 474 270 474 214 C474 139 429 75 296 75 L218 75 Z " />
<glyph glyph-name="C" unicode="C" horiz-adv-x="677" d="M337 -16 C497 -16 590 97 640 237 L569 262 C519 144 457 64 351 64 C264 64 196 120 196 253 C196 363 257 601 434 601 C515 601 578 555 588 411 L663 411 L727 671 L650 671 L609 593 C575 644 513 674 430 674 C210 674 62 464 62 263 C62 101 153 -16 337 -16 L337 -16 Z " />
<glyph glyph-name="D" unicode="D" horiz-adv-x="718" d="M-26 0 L263 0 C414 0 527 46 602 122 C679 198 718 305 718 401 C718 549 608 658 400 658 L135 658 L116 583 L218 583 L92 75 L-9 75 L-26 0 Z M218 74 L345 584 L399 584 C520 584 580 529 580 423 C580 327 537 204 478 145 C426 93 365 74 274 74 L218 74 Z " />
<glyph glyph-name="E" unicode="E" horiz-adv-x="673" d="M135 658 L116 583 L218 583 L92 75 L-9 75 L-26 0 L564 0 L625 245 L559 245 C493 107 477 74 385 74 L218 74 L275 302 L328 302 C392 302 400 290 391 203 L454 203 L520 467 L455 467 C417 380 405 370 338 370 L292 370 L345 584 L510 584 C592 584 601 557 604 435 L664 435 L719 658 L135 658 Z " />
<glyph glyph-name="F" unicode="F" horiz-adv-x="639" d="M288 358 L344 584 L484 584 C565 584 582 561 588 430 L648 430 L705 658 L135 658 L116 583 L218 583 L92 75 L-9 75 L-26 0 L316 0 L334 75 L218 75 L271 291 L310 291 C378 291 385 280 374 188 L437 188 L504 456 L440 456 C407 374 391 358 325 358 L288 358 Z " />
<glyph glyph-name="G" unicode="G" horiz-adv-x="715" d="M331 63 C264 63 196 110 196 252 C196 361 257 601 434 601 C511 601 573 558 584 415 L664 415 L727 671 L650 671 L609 593 C575 644 513 674 430 674 C210 674 62 464 62 259 C62 104 148 -16 302 -16 C383 -16 445 24 485 81 L493 -7 L567 -7 L636 260 L718 260 L736 335 L412 335 L393 260 L511 260 L505 236 C480 137 419 63 331 63 L331 63 Z " />
<glyph glyph-name="H" unicode="H" horiz-adv-x="784" d="M-26 0 L290 0 L308 75 L218 75 L276 306 L546 306 L488 75 L400 75 L382 0 L698 0 L716 75 L614 75 L740 583 L841 583 L859 658 L543 658 L525 583 L614 583 L563 376 L293 376 L345 583 L433 583 L451 658 L135 658 L116 583 L218 583 L92 75 L-9 75 L-26 0 Z " />
<glyph glyph-name="I" unicode="I" horiz-adv-x="402" d="M-19 0 L309 0 L327 75 L225 75 L352 583 L452 583 L471 658 L142 658 L123 583 L225 583 L99 75 L-2 75 L-19 0 Z " />
<glyph glyph-name="J" unicode="J" horiz-adv-x="561" d="M539 583 L635 583 L653 658 L327 658 L309 583 L413 583 L316 194 C292 98 256 54 192 54 C148 54 115 74 105 96 C146 109 171 138 171 177 C171 216 144 248 99 248 C39 248 1 197 1 135 C1 57 70 -16 199 -16 C333 -16 409 62 441 187 L539 583 Z " />
<glyph glyph-name="K" unicode="K" horiz-adv-x="715" d="M698 583 L775 583 L793 658 L525 658 L506 584 L587 584 L280 324 L345 584 L431 584 L450 658 L135 658 L116 583 L218 583 L92 75 L-9 75 L-26 0 L287 0 L305 74 L218 74 L256 225 L355 306 L457 74 L378 74 L360 0 L664 0 L682 75 L596 75 L451 383 L698 583 Z " />
<glyph glyph-name="L" unicode="L" horiz-adv-x="603" d="M135 658 L116 583 L218 583 L92 75 L-9 75 L-26 0 L516 0 L578 249 L516 249 C450 110 430 74 336 74 L218 74 L345 584 L450 584 L468 658 L135 658 Z " />
<glyph glyph-name="M" unicode="M" horiz-adv-x="931" d="M-23 0 L236 0 L253 75 L167 75 L290 570 L299 570 L355 0 L412 0 L750 570 L760 570 L637 75 L557 75 L539 0 L843 0 L861 75 L763 75 L890 583 L986 583 L1005 658 L718 658 L455 200 L452 200 L413 658 L138 658 L120 583 L213 583 L87 75 L-5 75 L-23 0 Z " />
<glyph glyph-name="N" unicode="N" horiz-adv-x="774" d="M501 -13 L598 -13 L747 583 L840 583 L859 658 L588 658 L570 583 L666 583 L567 184 L558 184 L370 658 L141 658 L123 583 L217 583 L91 75 L-2 75 L-20 0 L250 0 L268 75 L171 75 L282 520 L291 520 L501 -13 Z " />
<glyph glyph-name="O" unicode="O" horiz-adv-x="720" d="M62 273 C62 101 178 -16 342 -16 C564 -16 709 192 709 385 C709 557 594 674 430 674 C207 674 62 466 62 273 L62 273 Z M425 601 C518 601 576 545 576 429 C576 300 510 57 347 57 C253 57 196 113 196 229 C196 358 261 601 425 601 L425 601 Z " />
<glyph glyph-name="P" unicode="P" horiz-adv-x="621" d="M265 263 L345 263 C593 263 662 390 662 490 C662 584 593 658 412 658 L135 658 L116 583 L218 583 L92 75 L-9 75 L-26 0 L310 0 L327 75 L218 75 L265 263 Z M283 334 L345 584 L388 584 C487 584 522 549 522 491 C522 414 477 334 349 334 L283 334 Z " />
<glyph glyph-name="Q" unicode="Q" horiz-adv-x="720" d="M344 -14 C372 -14 399 -11 425 -4 C445 -63 477 -110 554 -110 C624 -110 675 -56 706 44 L653 62 C625 -6 607 -19 576 -19 C550 -19 534 -2 520 35 C638 108 709 250 709 385 C709 557 594 674 430 674 C207 674 62 466 62 273 C62 101 176 -14 344 -14 L344 -14 Z M208 154 C200 169 196 201 196 229 C196 358 261 601 425 601 C518 601 576 545 576 429 C576 349 553 218 490 134 C468 197 435 255 345 255 C271 255 230 214 208 154 L208 154 Z M348 55 C297 55 253 79 253 118 C253 148 279 178 317 178 C370 178 390 130 405 65 C386 58 367 55 348 55 L348 55 Z " />
<glyph glyph-name="R" unicode="R" horiz-adv-x="688" d="M-26 0 L300 0 L318 75 L218 75 L271 288 L358 288 C427 288 448 266 448 229 C448 181 428 124 428 81 C428 19 472 -12 542 -12 C598 -12 642 14 676 56 L649 95 C626 73 610 67 595 67 C573 67 560 74 560 102 C560 130 570 169 570 201 C570 261 541 298 453 316 L456 324 C612 338 676 418 676 510 C676 583 625 658 457 658 L135 658 L116 583 L218 583 L92 75 L-9 75 L-26 0 Z M289 358 L345 584 L433 584 C509 584 536 553 537 506 C537 465 522 422 497 398 C470 371 428 358 371 358 L289 358 Z " />
<glyph glyph-name="S" unicode="S" horiz-adv-x="587" d="M-9 -13 L66 -13 L110 64 C148 16 213 -16 300 -16 C437 -16 546 78 546 201 C546 306 458 348 376 383 C304 415 236 442 236 505 C236 557 282 604 347 604 C433 604 483 558 504 434 L574 434 L633 671 L558 671 L517 598 C484 645 418 674 347 674 C214 674 113 574 113 462 C113 356 204 312 287 275 C358 242 424 215 424 157 C424 105 378 55 299 55 C211 55 141 114 122 234 L51 234 L-9 -13 Z " />
<glyph glyph-name="T" unicode="T" horiz-adv-x="676" d="M106 0 L453 0 L471 75 L361 75 L490 594 L525 594 C607 594 617 564 622 411 L679 411 L741 658 L141 658 L78 411 L140 411 C225 568 246 594 326 594 L361 594 L232 75 L124 75 L106 0 Z " />
<glyph glyph-name="U" unicode="U" horiz-adv-x="735" d="M351 -17 C442 -17 504 12 545 53 C587 95 607 145 620 198 L716 583 L804 583 L822 658 L559 658 L540 583 L634 583 L545 224 C532 174 513 135 487 109 C458 80 417 66 372 66 C291 66 232 103 232 179 C232 201 235 224 241 250 L324 583 L415 583 L434 658 L125 658 L106 583 L198 583 L116 256 C109 228 104 194 104 167 C104 64 188 -17 351 -17 L351 -17 Z " />
<glyph glyph-name="V" unicode="V" horiz-adv-x="676" d="M289 583 L383 583 L401 658 L92 658 L74 583 L161 583 L228 -4 L343 -4 L705 583 L774 583 L792 658 L548 658 L529 583 L613 583 L337 116 L333 116 L289 583 Z " />
<glyph glyph-name="W" unicode="W" horiz-adv-x="983" d="M566 -4 L683 -4 L1012 583 L1080 583 L1099 658 L854 658 L836 584 L921 584 L679 126 L674 126 L659 584 L751 584 L769 658 L468 658 L450 584 L537 584 L540 513 L315 126 L310 126 L289 584 L375 584 L393 658 L92 658 L74 583 L162 583 L201 -4 L316 -4 L547 395 L566 -4 Z " />
<glyph glyph-name="X" unicode="X" horiz-adv-x="679" d="M404 584 L422 658 L120 658 L102 583 L187 583 L303 331 L50 75 L-26 75 L-45 0 L210 0 L228 74 L149 74 L339 272 L422 74 L338 74 L320 0 L623 0 L641 75 L555 75 L436 340 L675 583 L752 583 L770 658 L516 658 L497 584 L575 584 L400 399 L322 584 L404 584 Z " />
<glyph glyph-name="Y" unicode="Y" horiz-adv-x="638" d="M381 343 L309 584 L395 584 L414 658 L113 658 L94 583 L173 583 L274 277 L223 75 L128 75 L110 0 L428 0 L446 75 L349 75 L397 269 L662 583 L732 583 L751 658 L514 658 L496 584 L576 584 L381 343 Z " />
<glyph glyph-name="Z" unicode="Z" horiz-adv-x="619" d="M-20 0 L522 0 L586 256 L527 256 C440 92 419 74 340 74 L161 74 L667 595 L683 658 L163 658 L101 409 L159 409 C246 571 266 584 345 584 L503 584 L-4 63 L-20 0 Z " />
<glyph glyph-name="bracketleft" unicode="&#x5b;" horiz-adv-x="353" d="M-11 -158 L266 -158 L283 -89 L120 -89 L304 654 L468 654 L486 723 L208 723 L-11 -158 Z " />
<glyph glyph-name="backslash" unicode="&#x5c;" horiz-adv-x="429" d="M365 -196 L205 714 L132 700 L291 -210 L365 -196 Z " />
<glyph glyph-name="bracketright" unicode="&#x5d;" horiz-adv-x="353" d="M390 723 L113 723 L96 654 L259 654 L75 -89 L-89 -89 L-107 -158 L171 -158 L390 723 Z " />
<glyph glyph-name="asciicircum" unicode="&#x5e;" horiz-adv-x="350" d="M86 506 L154 506 L275 615 L332 506 L395 506 L324 717 L263 717 L86 506 Z " />
<glyph glyph-name="underscore" unicode="&#x5f;" horiz-adv-x="443" d="M-55 0 L391 0 L410 75 L-37 75 L-55 0 Z " />
<glyph glyph-name="grave" unicode="&#x60;" horiz-adv-x="251" d="M261 644 C250 700 241 739 195 739 C166 739 145 714 145 689 C145 667 153 648 179 609 L228 534 L281 534 L261 644 Z " />
<glyph glyph-name="a" unicode="a" horiz-adv-x="564" d="M511 464 L397 464 L377 387 C368 432 336 471 280 471 C224 471 171 443 124 395 C70 342 29 251 29 149 C29 61 76 -10 162 -10 C219 -10 276 28 314 103 L321 100 C320 90 320 85 320 78 C320 20 355 -10 402 -10 C463 -10 517 35 556 157 L508 172 C485 105 463 71 441 71 C426 71 418 80 418 97 C418 110 421 128 429 154 L511 464 Z M208 70 C171 70 150 100 150 159 C150 240 209 406 298 406 C333 406 352 378 352 326 C352 245 289 70 208 70 L208 70 Z " />
<glyph glyph-name="b" unicode="b" horiz-adv-x="517" d="M313 393 C350 393 368 362 368 307 C368 228 315 55 223 55 C183 55 162 81 162 141 C162 236 233 393 313 393 L313 393 Z M295 689 L96 689 L76 611 L159 611 L77 312 C60 250 47 189 47 149 C47 57 99 -10 211 -10 C356 -10 489 140 489 307 C489 400 443 471 357 471 C301 471 243 430 202 352 L194 355 L295 689 Z " />
<glyph glyph-name="c" unicode="c" horiz-adv-x="469" d="M305 471 C162 471 28 330 28 174 C28 65 102 -10 212 -10 C310 -10 369 52 412 127 L369 156 C329 94 285 61 239 61 C194 61 148 88 148 174 C148 261 207 414 307 414 C337 414 354 403 362 389 C338 372 321 349 321 321 C321 291 344 267 380 267 C423 267 450 310 450 353 C450 424 389 471 305 471 L305 471 Z " />
<glyph glyph-name="d" unicode="d" horiz-adv-x="564" d="M208 70 C171 70 150 100 150 159 C150 240 206 406 300 406 C335 406 354 385 354 334 C354 243 289 70 208 70 L208 70 Z M508 172 C485 105 463 71 441 71 C426 71 418 80 418 97 C418 110 421 128 429 154 L571 689 L373 689 L353 611 L436 611 L379 396 C366 439 336 471 280 471 C224 471 171 443 124 395 C70 342 29 251 29 149 C29 61 76 -10 162 -10 C219 -10 276 28 314 103 L321 100 C320 90 320 85 320 78 C320 21 355 -10 402 -10 C463 -10 517 35 556 157 L508 172 Z " />
<glyph glyph-name="e" unicode="e" horiz-adv-x="471" d="M452 367 C452 428 404 471 318 471 C161 471 28 326 28 172 C28 62 100 -10 203 -10 C309 -10 371 45 422 118 L380 148 C338 89 289 56 240 56 C190 56 147 82 147 165 C147 172 147 180 148 188 C358 200 452 277 452 367 L452 367 Z M301 416 C331 416 347 394 347 366 C347 304 296 250 157 235 C178 321 231 416 301 416 L301 416 Z " />
<glyph glyph-name="f" unicode="f" horiz-adv-x="354" d="M-28 -170 C56 -170 145 -111 183 71 L250 389 L379 389 L395 450 L263 450 L268 475 C291 585 311 642 381 642 C392 642 402 640 408 636 C390 621 380 595 380 574 C380 539 404 519 438 519 C480 519 510 558 510 603 C510 650 470 694 384 694 C270 694 182 612 147 450 L58 450 L42 389 L135 389 L58 20 C32 -106 18 -124 -16 -123 C-9 -116 -2 -99 -2 -79 C-2 -52 -20 -28 -53 -28 C-93 -28 -119 -62 -119 -99 C-119 -137 -89 -170 -28 -170 L-28 -170 Z " />
<glyph glyph-name="g" unicode="g" horiz-adv-x="519" d="M92 -106 C102 -96 113 -76 113 -56 C113 -25 94 2 54 2 C10 2 -14 -38 -14 -72 C-14 -152 84 -170 152 -170 C282 -170 376 -105 419 77 L510 464 L396 464 L377 389 C366 435 326 471 269 471 C214 471 168 449 124 405 C65 346 32 264 32 175 C32 92 80 22 169 22 C223 22 271 49 303 92 L310 89 C289 -1 268 -51 239 -80 C215 -105 187 -116 150 -116 C126 -116 105 -112 92 -106 L92 -106 Z M214 96 C174 96 153 123 153 179 C153 271 205 406 288 406 C324 406 353 372 353 321 C353 217 289 96 214 96 L214 96 Z " />
<glyph glyph-name="h" unicode="h" horiz-adv-x="568" d="M402 -10 C459 -10 515 36 555 157 L508 172 C481 103 460 71 439 71 C428 71 422 78 422 93 C422 154 496 282 496 367 C496 427 461 471 405 471 C334 471 254 402 189 260 L182 263 L309 689 L110 689 L90 611 L173 611 L11 0 L131 0 C213 307 306 383 352 383 C369 383 379 373 379 350 C379 282 313 183 313 83 C313 25 348 -10 402 -10 L402 -10 Z " />
<glyph glyph-name="i" unicode="i" horiz-adv-x="345" d="M325 629 C325 669 299 693 261 693 C208 693 177 646 177 605 C177 565 204 541 239 541 C292 541 325 589 325 629 L325 629 Z M272 370 C272 434 235 471 183 471 C115 471 62 412 19 312 L67 292 C95 354 120 397 148 397 C157 397 163 391 163 375 C163 313 80 179 80 84 C80 24 118 -10 170 -10 C234 -10 290 39 329 157 L282 172 C252 98 230 71 211 71 C198 71 191 78 191 95 C191 153 272 292 272 370 L272 370 Z " />
<glyph glyph-name="j" unicode="j" horiz-adv-x="309" d="M325 629 C325 669 299 693 261 693 C209 693 177 646 177 605 C177 565 204 541 239 541 C292 541 325 589 325 629 L325 629 Z M272 376 C272 432 236 471 185 471 C115 471 63 412 20 312 L67 292 C96 354 122 397 146 397 C155 397 163 392 163 374 C163 353 154 318 148 294 L82 41 C45 -102 28 -128 -15 -127 C-7 -117 1 -100 1 -79 C1 -53 -17 -28 -51 -28 C-90 -28 -117 -62 -117 -99 C-117 -137 -87 -170 -17 -170 C75 -170 153 -107 195 52 L258 291 C267 325 272 353 272 376 L272 376 Z " />
<glyph glyph-name="k" unicode="k" horiz-adv-x="529" d="M373 98 C373 116 381 145 381 174 C381 221 358 252 287 258 C317 274 333 295 353 332 C376 370 391 387 405 390 C391 349 412 314 452 314 C493 314 520 356 520 398 C520 441 494 471 446 471 C387 471 354 430 321 376 C277 303 255 273 202 273 L197 273 L309 689 L110 689 L90 611 L173 611 L11 0 L124 0 L185 228 L187 228 C260 228 276 219 276 182 C276 160 265 120 265 92 C265 27 302 -10 358 -10 C416 -10 468 36 506 157 L459 172 C433 103 414 71 392 71 C381 71 373 78 373 98 L373 98 Z " />
<glyph glyph-name="l" unicode="l" horiz-adv-x="305" d="M40 84 C40 25 74 -10 133 -10 C196 -10 249 36 289 157 L242 172 C216 103 195 71 171 71 C161 71 151 77 151 95 C151 110 159 143 166 168 L308 689 L109 689 L89 611 L173 611 L67 221 C51 162 40 114 40 84 L40 84 Z " />
<glyph glyph-name="m" unicode="m" horiz-adv-x="877" d="M711 -10 C768 -10 824 36 864 157 L817 172 C790 103 769 71 748 71 C737 71 731 78 731 93 C731 154 805 282 805 367 C805 427 770 471 715 471 C644 471 570 404 504 263 L497 266 C512 312 520 346 520 374 C520 434 491 471 436 471 C368 471 294 404 228 263 L221 266 C236 312 242 348 242 377 C242 439 212 470 169 470 C102 470 52 412 9 312 L56 292 C85 354 111 397 134 397 C152 397 155 381 140 324 L54 0 L174 0 C254 307 340 383 386 383 C408 383 416 364 416 340 C416 321 411 297 402 264 L332 0 L450 0 C530 307 617 383 661 383 C678 383 688 373 688 350 C688 282 622 183 622 83 C622 25 657 -10 711 -10 L711 -10 Z " />
<glyph glyph-name="n" unicode="n" horiz-adv-x="602" d="M456 93 C456 154 530 282 530 367 C530 427 495 471 439 471 C368 471 294 404 228 263 L221 266 C236 312 242 348 242 377 C242 439 212 470 169 470 C102 470 52 412 9 312 L56 292 C85 354 111 397 134 397 C152 397 155 381 140 324 L54 0 L174 0 C254 307 340 383 386 383 C403 383 413 373 413 350 C413 282 347 183 347 83 C347 25 382 -10 436 -10 C493 -10 549 36 589 157 L542 172 C515 103 494 71 473 71 C462 71 456 78 456 93 L456 93 Z " />
<glyph glyph-name="o" unicode="o" horiz-adv-x="510" d="M292 471 C153 471 28 340 28 184 C28 71 103 -10 218 -10 C357 -10 482 122 482 278 C482 391 407 471 292 471 L292 471 Z M363 325 C363 228 310 46 217 46 C174 46 147 73 147 137 C147 234 200 416 293 416 C336 416 363 389 363 325 L363 325 Z " />
<glyph glyph-name="p" unicode="p" horiz-adv-x="563" d="M359 393 C396 393 414 364 414 308 C414 229 364 61 275 61 C231 61 210 95 210 144 C210 232 279 393 359 393 L359 393 Z M137 313 L31 -83 L-37 -83 L-57 -157 L220 -157 L240 -83 L146 -83 L186 66 C205 26 247 -1 300 -1 C423 -1 534 148 534 309 C534 402 486 471 402 471 C347 471 286 431 248 352 L240 355 C241 364 242 373 242 380 C242 437 212 470 167 470 C104 470 57 422 9 312 L56 292 C88 359 106 388 129 388 C147 388 152 369 137 313 L137 313 Z " />
<glyph glyph-name="q" unicode="q" horiz-adv-x="521" d="M514 464 L400 464 L379 387 C371 432 339 471 281 471 C227 471 169 441 122 394 C68 340 30 259 30 165 C30 74 76 0 161 0 C215 0 266 37 298 94 L305 91 L256 -83 L166 -83 L146 -157 L423 -157 L443 -83 L370 -83 L514 464 Z M205 78 C170 78 151 106 151 164 C151 244 207 406 299 406 C335 406 355 378 355 326 C355 240 288 78 205 78 L205 78 Z " />
<glyph glyph-name="r" unicode="r" horiz-adv-x="470" d="M54 0 L174 0 C246 273 318 358 347 370 C345 328 372 305 407 305 C447 305 479 345 479 395 C479 442 448 471 406 471 C336 471 288 398 230 266 L222 269 C236 313 242 348 242 377 C242 439 212 470 169 470 C102 470 52 412 9 312 L56 292 C85 354 111 397 134 397 C152 397 155 381 140 324 L54 0 Z " />
<glyph glyph-name="s" unicode="s" horiz-adv-x="442" d="M389 147 C389 216 332 244 279 268 C221 295 179 314 179 354 C179 396 214 421 262 421 C292 421 321 411 331 402 C317 390 307 369 307 349 C307 320 329 294 366 294 C404 294 430 327 430 366 C430 426 360 471 258 471 C171 471 70 422 70 317 C70 249 128 220 187 193 C238 170 279 151 279 113 C279 67 247 42 196 42 C160 42 127 53 110 68 C123 79 134 99 134 123 C134 150 114 178 75 178 C35 178 9 145 9 106 C9 30 106 -10 200 -10 C299 -10 389 43 389 147 L389 147 Z " />
<glyph glyph-name="t" unicode="t" horiz-adv-x="388" d="M389 389 L405 450 L263 450 L299 583 L180 570 L147 450 L59 450 L43 389 L131 389 L77 190 C70 162 59 120 59 91 C59 23 106 -10 172 -10 C226 -10 303 24 352 166 L304 182 C276 118 246 74 210 74 C189 74 175 83 175 110 C175 122 180 145 187 170 L247 389 L389 389 Z " />
<glyph glyph-name="u" unicode="u" horiz-adv-x="600" d="M445 -10 C502 -10 556 35 595 157 L547 172 C524 105 503 71 480 71 C466 71 457 80 457 97 C457 110 460 127 468 154 L550 464 L430 464 C348 152 265 78 220 78 C203 78 192 89 192 117 C192 181 258 287 258 380 C258 438 227 471 174 471 C105 471 52 412 11 313 L58 293 C94 368 111 390 132 390 C141 390 147 383 147 369 C147 312 76 179 76 95 C76 33 112 -10 167 -10 C239 -10 309 56 375 201 L382 198 C366 147 360 109 360 84 C360 19 393 -10 445 -10 L445 -10 Z " />
<glyph glyph-name="v" unicode="v" horiz-adv-x="504" d="M178 471 C107 471 56 412 12 312 L59 292 C94 361 111 390 136 390 C146 390 152 383 152 368 C152 320 76 193 76 110 C76 41 131 -12 212 -12 C377 -12 488 228 488 365 C488 442 456 474 409 474 C367 474 335 435 335 393 C335 354 361 330 394 330 C405 330 417 333 423 337 C418 231 345 73 252 73 C215 73 189 92 189 127 C189 187 261 293 261 384 C261 436 233 471 178 471 L178 471 Z " />
<glyph glyph-name="w" unicode="w" horiz-adv-x="746" d="M181 471 C110 471 59 412 15 312 L62 292 C96 361 114 390 139 390 C149 390 154 382 154 369 C154 308 68 192 68 102 C68 29 116 -12 180 -12 C259 -12 312 55 349 152 L356 150 C354 137 354 128 354 120 C353 29 399 -12 467 -12 C634 -12 730 232 730 372 C730 440 698 474 650 474 C609 474 577 435 577 393 C577 354 602 330 636 330 C646 330 657 333 663 336 C657 226 589 73 501 73 C472 73 451 87 451 140 C451 170 456 209 468 259 L517 464 L409 464 C341 165 269 73 218 73 C195 73 182 88 182 112 C182 180 264 283 264 383 C264 437 236 471 181 471 L181 471 Z " />
<glyph glyph-name="x" unicode="x" horiz-adv-x="559" d="M332 162 C332 239 377 372 441 393 C436 349 456 318 495 318 C532 318 558 355 558 396 C558 442 528 473 480 473 C422 473 364 424 324 322 L318 322 C315 423 278 471 211 471 C127 471 79 399 48 304 L97 284 C123 355 147 391 180 391 C208 391 225 364 225 299 C225 222 181 89 116 69 C122 113 101 143 62 143 C26 143 -1 106 -1 65 C-1 20 29 -12 78 -12 C135 -12 193 36 233 139 L239 139 C243 38 279 -10 348 -10 C431 -10 480 62 510 157 L462 177 C435 107 411 70 379 70 C350 70 332 97 332 162 L332 162 Z " />
<glyph glyph-name="y" unicode="y" horiz-adv-x="553" d="M176 471 C110 471 55 412 11 312 L58 292 C85 349 109 390 134 390 C143 390 149 382 149 369 C149 312 85 204 85 127 C85 69 118 23 184 23 C242 23 304 62 362 168 L368 165 L348 86 C314 -53 261 -116 183 -116 C164 -116 149 -113 137 -109 C147 -100 156 -82 157 -66 C159 -33 139 -5 99 -5 C54 -5 30 -45 30 -77 C30 -151 114 -170 184 -170 C309 -170 410 -106 453 78 L545 464 L433 464 C357 169 286 109 233 109 C211 109 200 119 200 144 C200 202 258 292 258 384 C258 437 227 471 176 471 L176 471 Z " />
<glyph glyph-name="z" unicode="z" horiz-adv-x="465" d="M141 137 C217 173 315 246 384 330 C450 349 483 382 483 421 C483 448 462 471 430 471 C399 471 369 443 358 359 L349 357 L328 390 C292 446 252 471 203 471 C112 471 72 407 30 282 L75 265 C112 343 127 362 174 362 C216 362 264 330 320 324 C244 289 146 215 77 131 C11 112 -22 80 -22 41 C-22 14 -1 -10 31 -10 C63 -10 92 18 103 102 L112 104 L134 71 C169 16 211 -10 264 -10 C356 -10 395 54 437 179 L393 197 C356 119 342 99 293 99 C248 99 198 131 141 137 L141 137 Z " />
<glyph glyph-name="braceleft" unicode="&#x7b;" horiz-adv-x="392" d="M307 -158 L324 -91 C246 -78 222 -55 222 -13 C222 38 267 125 267 183 C267 237 229 266 148 277 L150 283 C211 289 254 302 284 333 C362 410 335 568 392 626 C415 649 449 656 508 657 L524 723 C416 729 339 712 293 665 C208 580 257 422 186 351 C161 327 125 318 69 318 L41 318 L23 247 L55 247 C139 247 162 221 162 193 C162 142 108 55 108 -17 C108 -101 167 -144 307 -158 L307 -158 Z " />
<glyph glyph-name="bar" unicode="&#x7c;" horiz-adv-x="288" d="M-2 -198 L72 -209 L300 702 L225 713 L-2 -198 Z " />
<glyph glyph-name="braceright" unicode="&#x7d;" horiz-adv-x="392" d="M111 723 L94 656 C172 643 196 620 196 578 C196 527 151 440 151 382 C151 328 189 299 270 288 L268 282 C207 276 164 263 134 232 C56 155 83 -3 26 -61 C3 -84 -31 -91 -90 -92 L-106 -158 C2 -164 79 -147 125 -100 C210 -15 161 143 232 214 C257 238 293 247 349 247 L377 247 L395 318 L363 318 C279 318 256 344 256 372 C256 423 310 510 310 582 C310 666 251 709 111 723 L111 723 Z " />
<glyph glyph-name="asciitilde" unicode="&#x7e;" horiz-adv-x="389" d="M146 304 C178 304 207 250 271 250 C334 250 368 304 399 393 L342 393 C321 350 307 334 287 334 C256 334 226 388 162 388 C100 388 65 334 34 245 L91 245 C112 289 127 304 146 304 L146 304 Z " />
<glyph glyph-name="uni00A0" unicode="&#xa0;" horiz-adv-x="174" d="" />
<glyph glyph-name="exclamdown" unicode="&#xa1;" horiz-adv-x="288" d="M236 472 L182 483 C148 388 120 315 88 233 C46 120 29 82 29 49 C29 9 58 -17 101 -17 C154 -17 173 24 182 83 C199 186 210 325 236 472 L236 472 Z M242 683 C195 683 167 641 167 604 C167 563 197 537 235 537 C282 537 310 579 310 615 C310 657 280 683 242 683 L242 683 Z " />
<glyph glyph-name="cent" unicode="&#xa2;" horiz-adv-x="500" d="M313 557 L292 470 C145 458 33 325 33 178 C33 83 82 16 171 -4 L148 -95 L211 -105 L234 -10 C343 -8 402 52 445 127 L402 156 C361 95 315 61 259 61 L251 61 L339 412 C368 408 388 396 395 386 C371 369 357 345 357 318 C357 287 380 263 416 263 C460 263 484 305 484 346 C484 401 441 454 357 467 L376 547 L313 557 Z M149 178 C149 252 188 377 278 407 L195 74 C166 89 149 120 149 178 L149 178 Z " />
<glyph glyph-name="sterling" unicode="&#xa3;" horiz-adv-x="610" d="M487 277 L505 347 L320 347 C317 368 315 390 315 417 C315 532 359 589 444 589 C486 589 507 574 520 560 C491 547 473 521 473 490 C473 451 501 428 540 428 C591 428 623 471 623 522 C623 588 561 650 440 650 C302 650 186 550 186 402 C186 383 188 364 191 347 L81 347 L63 277 L207 277 C212 253 217 230 217 208 C217 195 215 181 211 165 C187 170 162 174 135 174 C53 174 2 125 2 72 C2 21 38 -13 95 -13 C146 -13 182 13 218 73 L234 61 C287 19 337 -15 409 -15 C491 -15 533 37 568 173 L516 184 C488 114 470 94 429 94 C401 94 362 110 311 131 L271 146 C309 187 324 229 326 277 L487 277 Z M105 42 C82 42 68 54 68 74 C68 96 87 114 118 114 C141 114 161 107 180 97 C158 64 133 42 105 42 L105 42 Z " />
<glyph glyph-name="yen" unicode="&#xa5;" horiz-adv-x="644" d="M109 333 L92 265 L276 265 L262 210 L80 210 L62 142 L245 142 L228 73 L119 73 L101 0 L434 0 L451 73 L342 73 L359 142 L540 142 L557 210 L377 210 L390 265 L570 265 L586 333 L445 333 L635 560 L706 560 L724 634 L496 634 L477 560 L553 560 L376 338 L310 560 L391 560 L410 634 L121 634 L102 560 L181 560 L257 333 L109 333 Z " />
<glyph glyph-name="section" unicode="&#xa7;" horiz-adv-x="514" d="M481 286 C481 355 423 390 359 425 C295 459 253 485 253 530 C253 573 286 600 340 600 C377 600 411 589 428 574 C411 561 399 541 399 516 C399 489 422 463 459 463 C501 463 528 498 528 538 C528 608 442 654 340 654 C245 654 143 597 143 498 C143 450 170 418 204 393 C115 381 53 330 53 254 C53 182 113 148 182 110 C248 74 290 50 290 5 C290 -38 258 -67 203 -67 C155 -67 113 -49 95 -32 C112 -21 125 1 125 30 C125 57 104 81 66 81 C25 81 -4 46 -4 4 C-4 -75 102 -121 202 -121 C298 -121 400 -61 400 36 C400 85 371 118 333 144 C420 157 481 207 481 286 L481 286 Z M289 342 C332 317 372 291 372 252 C372 215 351 185 290 171 L241 198 C203 219 162 244 162 285 C162 322 185 353 245 366 L289 342 Z " />
<glyph glyph-name="dieresis" unicode="&#xa8;" horiz-adv-x="349" d="M248 628 C248 665 224 687 190 687 C144 687 116 644 116 606 C116 570 140 548 171 548 C218 548 248 592 248 628 L248 628 Z M436 628 C436 665 412 687 378 687 C332 687 304 644 304 606 C304 570 328 548 359 548 C406 548 436 592 436 628 L436 628 Z " />
<glyph glyph-name="copyright" unicode="&#xa9;" horiz-adv-x="787" d="M412 -33 C618 -33 776 122 776 329 C776 535 618 691 412 691 C206 691 48 535 48 329 C48 122 206 -33 412 -33 L412 -33 Z M412 10 C232 10 98 147 98 329 C98 510 232 648 412 648 C593 648 726 510 726 329 C726 147 593 10 412 10 L412 10 Z M418 141 C509 141 569 200 579 297 L529 297 C521 234 490 190 428 190 C358 190 322 237 322 337 C322 440 364 479 420 479 C469 479 499 445 524 380 L570 380 L570 522 L524 522 L514 480 C491 506 459 523 414 523 C319 523 233 441 233 333 C233 223 309 141 418 141 L418 141 Z " />
<glyph glyph-name="ordfeminine" unicode="&#xaa;" horiz-adv-x="419" d="M341 650 L327 595 C321 627 298 655 258 655 C217 655 178 634 145 601 C107 563 76 497 76 425 C76 362 111 312 172 312 C213 312 254 339 281 392 L287 390 C286 382 286 376 286 373 C286 333 311 312 346 312 C391 312 428 343 457 432 L423 442 C406 394 391 371 374 371 C364 371 358 377 358 389 C358 399 360 412 365 430 L425 650 L341 650 Z M207 370 C181 370 166 391 166 433 C166 490 207 608 270 608 C295 608 308 588 308 551 C308 494 264 370 207 370 L207 370 Z " />
<glyph glyph-name="guillemotleft" unicode="&#xab;" horiz-adv-x="509" d="M176 31 L218 57 L141 221 L298 388 L268 421 L67 273 C40 253 31 241 31 228 C31 219 34 209 49 191 L176 31 Z M382 31 L425 57 L347 221 L504 388 L474 421 L274 273 C247 253 238 241 238 228 C238 219 241 209 255 191 L382 31 Z " />
<glyph glyph-name="registered" unicode="&#xae;" horiz-adv-x="512" d="M316 248 C443 248 539 342 539 469 C539 597 443 690 316 690 C190 690 94 597 94 469 C94 342 190 248 316 248 L316 248 Z M316 280 C206 280 133 357 133 469 C133 581 206 657 316 657 C429 657 501 581 501 469 C501 357 429 280 316 280 L316 280 Z M292 456 L323 456 C351 456 357 445 357 422 L357 406 C357 370 374 354 405 354 C432 354 445 372 452 397 L434 404 C429 390 424 385 419 385 C413 385 411 389 409 402 L408 419 C404 445 393 463 353 468 L353 470 C402 476 419 500 419 526 C419 555 398 585 330 585 L209 585 L209 557 L242 557 L242 386 L209 386 L209 359 L325 359 L325 386 L292 386 L292 456 Z M292 482 L292 557 L325 557 C356 557 364 546 364 522 C364 495 353 482 323 482 L292 482 Z " />
<glyph glyph-name="macron" unicode="&#xaf;" horiz-adv-x="339" d="M117 546 L388 546 L410 630 L138 630 L117 546 Z " />
<glyph glyph-name="degree" unicode="&#xb0;" horiz-adv-x="397" d="M254 411 C210 411 183 439 183 488 C183 540 211 613 277 613 C322 613 349 585 349 536 C349 484 320 411 254 411 L254 411 Z M432 535 C432 607 382 673 281 673 C175 673 99 592 99 488 C99 417 149 351 250 351 C355 351 432 432 432 535 L432 535 Z " />
<glyph glyph-name="plusminus" unicode="&#xb1;" horiz-adv-x="538" d="M218 161 L287 161 L327 321 L482 321 L497 384 L342 384 L382 541 L313 541 L273 384 L117 384 L102 321 L258 321 L218 161 Z M408 28 L424 92 L45 92 L29 28 L408 28 Z " />
<glyph glyph-name="acute" unicode="&#xb4;" horiz-adv-x="251" d="M276 608 C321 645 338 660 338 689 C338 713 318 740 287 740 C254 740 235 712 207 668 L124 534 L183 534 L276 608 Z " />
<glyph glyph-name="paragraph" unicode="&#xb6;" horiz-adv-x="645" d="M219 -107 L295 -107 L458 543 L528 543 L365 -107 L441 -107 L603 542 L690 542 L708 616 L410 616 C144 616 72 469 72 360 C72 250 157 177 287 166 L219 -107 Z " />
<glyph glyph-name="periodcentered" unicode="&#xb7;" horiz-adv-x="243" d="M139 242 C186 242 216 286 216 326 C216 370 187 397 149 397 C102 397 72 353 72 313 C72 269 101 242 139 242 L139 242 Z " />
<glyph glyph-name="cedilla" unicode="&#xb8;" horiz-adv-x="306" d="M-60 -164 L-91 -204 C-58 -231 -10 -246 30 -246 C113 -246 154 -199 154 -148 C154 -104 119 -76 69 -67 L69 -63 L150 6 L82 6 L-32 -87 L-19 -118 C30 -114 69 -126 69 -156 C69 -178 50 -192 23 -192 C-10 -192 -35 -181 -60 -164 L-60 -164 Z " />
<glyph glyph-name="ordmasculine" unicode="&#xba;" horiz-adv-x="377" d="M270 655 C169 655 80 561 80 451 C80 369 134 312 216 312 C317 312 405 406 405 517 C405 598 352 655 270 655 L270 655 Z M319 549 C319 481 283 352 214 352 C184 352 166 371 166 417 C166 486 203 614 272 614 C301 614 319 596 319 549 L319 549 Z " />
<glyph glyph-name="guillemotright" unicode="&#xbb;" horiz-adv-x="509" d="M331 420 L289 394 L366 230 L209 63 L239 30 L440 178 C467 198 476 210 476 223 C476 232 473 242 458 260 L331 420 Z M125 420 L82 394 L160 230 L3 63 L33 30 L233 178 C260 198 269 210 269 223 C269 232 266 242 252 260 L125 420 Z " />
<glyph glyph-name="questiondown" unicode="&#xbf;" horiz-adv-x="464" d="M148 411 L181 379 C219 416 243 426 271 426 C296 426 310 414 310 394 C310 355 264 338 193 314 C92 282 7 244 7 141 C7 58 72 -17 208 -17 C331 -17 414 49 414 124 C414 164 386 193 347 193 C299 193 272 155 272 117 C272 98 280 80 291 65 C276 54 248 44 214 44 C153 44 121 75 121 120 C121 183 182 209 259 238 C344 271 409 306 409 382 C409 450 353 485 292 485 C234 485 185 461 148 411 L148 411 Z M350 683 C304 683 275 642 275 606 C275 563 304 537 343 537 C389 537 418 578 418 614 C418 656 389 683 350 683 L350 683 Z " />
<glyph glyph-name="Agrave" unicode="&#xc0;" horiz-adv-x="673" d="M345 75 L327 0 L636 0 L655 75 L567 75 L507 662 L384 662 L29 75 L-40 75 L-59 0 L186 0 L204 75 L121 75 L207 222 L428 222 L440 75 L345 75 Z M245 289 L398 553 L402 553 L423 289 L245 289 Z M465 846 C454 902 445 941 399 941 C370 941 349 916 349 891 C349 869 357 850 383 811 L432 736 L485 736 L465 846 Z " />
<glyph glyph-name="Aacute" unicode="&#xc1;" horiz-adv-x="673" d="M345 75 L327 0 L636 0 L655 75 L567 75 L507 662 L384 662 L29 75 L-40 75 L-59 0 L186 0 L204 75 L121 75 L207 222 L428 222 L440 75 L345 75 Z M245 289 L398 553 L402 553 L423 289 L245 289 Z M560 810 C605 847 622 862 622 891 C622 915 602 942 571 942 C538 942 519 914 491 870 L408 736 L467 736 L560 810 Z " />
<glyph glyph-name="Acircumflex" unicode="&#xc2;" horiz-adv-x="673" d="M345 75 L327 0 L636 0 L655 75 L567 75 L507 662 L384 662 L29 75 L-40 75 L-59 0 L186 0 L204 75 L121 75 L207 222 L428 222 L440 75 L345 75 Z M245 289 L398 553 L402 553 L423 289 L245 289 Z M310 737 L377 737 L485 827 L539 737 L600 737 L531 926 L473 926 L310 737 Z " />
<glyph glyph-name="Atilde" unicode="&#xc3;" horiz-adv-x="673" d="M345 75 L327 0 L636 0 L655 75 L567 75 L507 662 L384 662 L29 75 L-40 75 L-59 0 L186 0 L204 75 L121 75 L207 222 L428 222 L440 75 L345 75 Z M245 289 L398 553 L402 553 L423 289 L245 289 Z M408 795 C441 795 472 741 538 741 C601 741 636 796 666 884 L609 884 C588 841 574 826 554 826 C521 826 490 880 424 880 C361 880 326 826 296 737 L353 737 C374 780 388 795 408 795 L408 795 Z " />
<glyph glyph-name="Adieresis" unicode="&#xc4;" horiz-adv-x="673" d="M345 75 L327 0 L636 0 L655 75 L567 75 L507 662 L384 662 L29 75 L-40 75 L-59 0 L186 0 L204 75 L121 75 L207 222 L428 222 L440 75 L345 75 Z M245 289 L398 553 L402 553 L423 289 L245 289 Z M455 830 C455 867 431 889 397 889 C351 889 323 846 323 808 C323 772 347 750 378 750 C425 750 455 794 455 830 L455 830 Z M643 830 C643 867 619 889 585 889 C539 889 511 846 511 808 C511 772 535 750 566 750 C613 750 643 794 643 830 L643 830 Z " />
<glyph glyph-name="Aring" unicode="&#xc5;" horiz-adv-x="673" d="M576 765 C576 816 539 860 472 860 C399 860 350 804 350 738 C350 709 362 681 386 664 L29 75 L-40 75 L-59 0 L186 0 L204 75 L120 75 L206 222 L428 222 L440 75 L345 75 L327 0 L636 0 L655 75 L567 75 L508 656 C550 676 576 718 576 765 L576 765 Z M244 289 L398 554 L402 554 L423 289 L244 289 Z M409 737 C409 772 429 818 469 818 C499 818 516 798 516 768 C516 732 496 686 457 686 C426 686 409 707 409 737 L409 737 Z " />
<glyph glyph-name="AE" unicode="&#xc6;" horiz-adv-x="1012" d="M330 75 L312 0 L903 0 L964 245 L898 245 C831 107 815 74 723 74 L556 74 L613 302 L666 302 C730 302 738 290 730 203 L792 203 L858 467 L793 467 C755 380 743 370 676 370 L630 370 L683 584 L848 584 C930 584 939 557 942 435 L1002 435 L1057 658 L379 658 L362 583 L457 583 L14 75 L-56 75 L-74 0 L184 0 L202 74 L119 74 L251 232 L470 232 L430 75 L330 75 Z M308 299 L549 585 L557 585 L486 299 L308 299 Z " />
<glyph glyph-name="Ccedilla" unicode="&#xc7;" horiz-adv-x="677" d="M162 -164 L131 -204 C164 -231 212 -246 252 -246 C335 -246 376 -199 376 -148 C376 -104 341 -76 291 -67 L291 -63 L346 -16 C500 -12 591 99 640 237 L569 262 C519 144 457 64 351 64 C264 64 196 120 196 253 C196 363 257 601 434 601 C515 601 578 555 588 411 L663 411 L727 671 L650 671 L609 593 C575 644 513 674 430 674 C210 674 62 464 62 263 C62 118 135 9 282 -12 L190 -87 L203 -118 C252 -114 291 -126 291 -156 C291 -178 272 -192 245 -192 C212 -192 187 -181 162 -164 L162 -164 Z " />
<glyph glyph-name="Egrave" unicode="&#xc8;" horiz-adv-x="673" d="M135 658 L116 583 L218 583 L92 75 L-9 75 L-26 0 L564 0 L625 245 L559 245 C493 107 477 74 385 74 L218 74 L275 302 L328 302 C392 302 400 290 391 203 L454 203 L520 467 L455 467 C417 380 405 370 338 370 L292 370 L345 584 L510 584 C592 584 601 557 604 435 L664 435 L719 658 L135 658 Z M472 846 C461 902 452 941 406 941 C377 941 356 916 356 891 C356 869 364 850 390 811 L439 736 L492 736 L472 846 Z " />
<glyph glyph-name="Eacute" unicode="&#xc9;" horiz-adv-x="673" d="M567 810 C612 847 629 862 629 891 C629 915 609 942 578 942 C545 942 526 914 498 870 L415 736 L474 736 L567 810 Z M135 658 L116 583 L218 583 L92 75 L-9 75 L-26 0 L564 0 L625 245 L559 245 C493 107 477 74 385 74 L218 74 L275 302 L328 302 C392 302 400 290 391 203 L454 203 L520 467 L455 467 C417 380 405 370 338 370 L292 370 L345 584 L510 584 C592 584 601 557 604 435 L664 435 L719 658 L135 658 Z " />
<glyph glyph-name="Ecircumflex" unicode="&#xca;" horiz-adv-x="673" d="M317 737 L384 737 L492 827 L546 737 L607 737 L538 926 L480 926 L317 737 Z M135 658 L116 583 L218 583 L92 75 L-9 75 L-26 0 L564 0 L625 245 L559 245 C493 107 477 74 385 74 L218 74 L275 302 L328 302 C392 302 400 290 391 203 L454 203 L520 467 L455 467 C417 380 405 370 338 370 L292 370 L345 584 L510 584 C592 584 601 557 604 435 L664 435 L719 658 L135 658 Z " />
<glyph glyph-name="Edieresis" unicode="&#xcb;" horiz-adv-x="673" d="M462 830 C462 867 438 889 404 889 C358 889 330 846 330 808 C330 772 354 750 385 750 C432 750 462 794 462 830 L462 830 Z M650 830 C650 867 626 889 592 889 C546 889 518 846 518 808 C518 772 542 750 573 750 C620 750 650 794 650 830 L650 830 Z M135 658 L116 583 L218 583 L92 75 L-9 75 L-26 0 L564 0 L625 245 L559 245 C493 107 477 74 385 74 L218 74 L275 302 L328 302 C392 302 400 290 391 203 L454 203 L520 467 L455 467 C417 380 405 370 338 370 L292 370 L345 584 L510 584 C592 584 601 557 604 435 L664 435 L719 658 L135 658 Z " />
<glyph glyph-name="Igrave" unicode="&#xcc;" horiz-adv-x="402" d="M-19 0 L309 0 L327 75 L225 75 L352 583 L452 583 L471 658 L142 658 L123 583 L225 583 L99 75 L-2 75 L-19 0 Z M329 846 C318 902 309 941 263 941 C234 941 213 916 213 891 C213 869 221 850 247 811 L296 736 L349 736 L329 846 Z " />
<glyph glyph-name="Iacute" unicode="&#xcd;" horiz-adv-x="402" d="M-19 0 L309 0 L327 75 L225 75 L352 583 L452 583 L471 658 L142 658 L123 583 L225 583 L99 75 L-2 75 L-19 0 Z M424 810 C469 847 486 862 486 891 C486 915 466 942 435 942 C402 942 383 914 355 870 L272 736 L331 736 L424 810 Z " />
<glyph glyph-name="Icircumflex" unicode="&#xce;" horiz-adv-x="402" d="M-19 0 L309 0 L327 75 L225 75 L352 583 L452 583 L471 658 L142 658 L123 583 L225 583 L99 75 L-2 75 L-19 0 Z M174 737 L241 737 L349 827 L403 737 L464 737 L395 926 L337 926 L174 737 Z " />
<glyph glyph-name="Idieresis" unicode="&#xcf;" horiz-adv-x="402" d="M-19 0 L309 0 L327 75 L225 75 L352 583 L452 583 L471 658 L142 658 L123 583 L225 583 L99 75 L-2 75 L-19 0 Z M320 830 C320 867 296 889 262 889 C216 889 188 846 188 808 C188 772 212 750 243 750 C290 750 320 794 320 830 L320 830 Z M508 830 C508 867 484 889 450 889 C404 889 376 846 376 808 C376 772 400 750 431 750 C478 750 508 794 508 830 L508 830 Z " />
<glyph glyph-name="Eth" unicode="&#xd0;" horiz-adv-x="718" d="M-26 0 L263 0 C414 0 527 46 602 122 C679 198 718 305 718 401 C718 549 608 658 400 658 L135 658 L116 583 L218 583 L168 381 L67 381 L48 305 L149 305 L92 75 L-9 75 L-26 0 Z M218 74 L275 305 L403 305 L421 381 L294 381 L345 584 L399 584 C520 584 580 529 580 423 C580 327 537 204 478 145 C426 93 365 74 274 74 L218 74 Z " />
<glyph glyph-name="Ntilde" unicode="&#xd1;" horiz-adv-x="774" d="M501 -13 L598 -13 L747 583 L840 583 L859 658 L588 658 L570 583 L666 583 L567 184 L558 184 L370 658 L141 658 L123 583 L217 583 L91 75 L-2 75 L-20 0 L250 0 L268 75 L171 75 L282 520 L291 520 L501 -13 Z M455 795 C488 795 519 741 585 741 C648 741 683 796 713 884 L656 884 C635 841 621 826 601 826 C568 826 537 880 471 880 C408 880 373 826 343 737 L400 737 C421 780 435 795 455 795 L455 795 Z " />
<glyph glyph-name="Ograve" unicode="&#xd2;" horiz-adv-x="720" d="M62 273 C62 101 178 -16 342 -16 C564 -16 709 192 709 385 C709 557 594 674 430 674 C207 674 62 466 62 273 L62 273 Z M425 601 C518 601 576 545 576 429 C576 300 510 57 347 57 C253 57 196 113 196 229 C196 358 261 601 425 601 L425 601 Z M483 846 C472 902 463 941 417 941 C388 941 367 916 367 891 C367 869 375 850 401 811 L450 736 L503 736 L483 846 Z " />
<glyph glyph-name="Oacute" unicode="&#xd3;" horiz-adv-x="720" d="M578 810 C623 847 640 862 640 891 C640 915 620 942 589 942 C556 942 537 914 509 870 L426 736 L485 736 L578 810 Z M62 273 C62 101 178 -16 342 -16 C564 -16 709 192 709 385 C709 557 594 674 430 674 C207 674 62 466 62 273 L62 273 Z M425 601 C518 601 576 545 576 429 C576 300 510 57 347 57 C253 57 196 113 196 229 C196 358 261 601 425 601 L425 601 Z " />
<glyph glyph-name="Ocircumflex" unicode="&#xd4;" horiz-adv-x="720" d="M329 737 L396 737 L504 827 L558 737 L619 737 L550 926 L492 926 L329 737 Z M62 273 C62 101 178 -16 342 -16 C564 -16 709 192 709 385 C709 557 594 674 430 674 C207 674 62 466 62 273 L62 273 Z M425 601 C518 601 576 545 576 429 C576 300 510 57 347 57 C253 57 196 113 196 229 C196 358 261 601 425 601 L425 601 Z " />
<glyph glyph-name="Otilde" unicode="&#xd5;" horiz-adv-x="720" d="M62 273 C62 101 178 -16 342 -16 C564 -16 709 192 709 385 C709 557 594 674 430 674 C207 674 62 466 62 273 L62 273 Z M425 601 C518 601 576 545 576 429 C576 300 510 57 347 57 C253 57 196 113 196 229 C196 358 261 601 425 601 L425 601 Z M426 795 C459 795 490 741 556 741 C619 741 654 796 684 884 L627 884 C606 841 592 826 572 826 C539 826 508 880 442 880 C379 880 344 826 314 737 L371 737 C392 780 406 795 426 795 L426 795 Z " />
<glyph glyph-name="Odieresis" unicode="&#xd6;" horiz-adv-x="720" d="M474 830 C474 867 450 889 416 889 C370 889 342 846 342 808 C342 772 366 750 397 750 C444 750 474 794 474 830 L474 830 Z M662 830 C662 867 638 889 604 889 C558 889 530 846 530 808 C530 772 554 750 585 750 C632 750 662 794 662 830 L662 830 Z M62 273 C62 101 178 -16 342 -16 C564 -16 709 192 709 385 C709 557 594 674 430 674 C207 674 62 466 62 273 L62 273 Z M425 601 C518 601 576 545 576 429 C576 300 510 57 347 57 C253 57 196 113 196 229 C196 358 261 601 425 601 L425 601 Z " />
<glyph glyph-name="multiply" unicode="&#xd7;" horiz-adv-x="520" d="M326 280 L500 422 L459 476 L287 334 L186 477 L126 430 L231 286 L56 144 L97 89 L269 232 L371 88 L431 136 L326 280 Z " />
<glyph glyph-name="Oslash" unicode="&#xd8;" horiz-adv-x="720" d="M62 273 C62 203 81 142 115 95 L14 -11 L65 -56 L159 46 C207 6 270 -16 342 -16 C564 -16 709 192 709 385 C709 455 690 516 656 563 L758 669 L707 714 L612 611 C564 651 502 674 430 674 C207 674 62 466 62 273 L62 273 Z M425 601 C478 601 521 582 547 544 L200 175 C197 191 196 209 196 229 C196 358 261 601 425 601 L425 601 Z M576 429 C576 300 510 57 347 57 C292 57 250 76 225 114 L571 483 C574 466 576 448 576 429 L576 429 Z " />
<glyph glyph-name="Ugrave" unicode="&#xd9;" horiz-adv-x="735" d="M351 -17 C442 -17 504 12 545 53 C587 95 607 145 620 198 L716 583 L804 583 L822 658 L559 658 L540 583 L634 583 L545 224 C532 174 513 135 487 109 C458 80 417 66 372 66 C291 66 232 103 232 179 C232 201 235 224 241 250 L324 583 L415 583 L434 658 L125 658 L106 583 L198 583 L116 256 C109 228 104 194 104 167 C104 64 188 -17 351 -17 L351 -17 Z M511 846 C500 902 491 941 445 941 C416 941 395 916 395 891 C395 869 403 850 429 811 L478 736 L531 736 L511 846 Z " />
<glyph glyph-name="Uacute" unicode="&#xda;" horiz-adv-x="735" d="M606 810 C651 847 668 862 668 891 C668 915 648 942 617 942 C584 942 565 914 537 870 L454 736 L513 736 L606 810 Z M351 -17 C442 -17 504 12 545 53 C587 95 607 145 620 198 L716 583 L804 583 L822 658 L559 658 L540 583 L634 583 L545 224 C532 174 513 135 487 109 C458 80 417 66 372 66 C291 66 232 103 232 179 C232 201 235 224 241 250 L324 583 L415 583 L434 658 L125 658 L106 583 L198 583 L116 256 C109 228 104 194 104 167 C104 64 188 -17 351 -17 L351 -17 Z " />
<glyph glyph-name="Ucircumflex" unicode="&#xdb;" horiz-adv-x="735" d="M356 737 L423 737 L531 827 L585 737 L646 737 L577 926 L519 926 L356 737 Z M351 -17 C442 -17 504 12 545 53 C587 95 607 145 620 198 L716 583 L804 583 L822 658 L559 658 L540 583 L634 583 L545 224 C532 174 513 135 487 109 C458 80 417 66 372 66 C291 66 232 103 232 179 C232 201 235 224 241 250 L324 583 L415 583 L434 658 L125 658 L106 583 L198 583 L116 256 C109 228 104 194 104 167 C104 64 188 -17 351 -17 L351 -17 Z " />
<glyph glyph-name="Udieresis" unicode="&#xdc;" horiz-adv-x="735" d="M501 830 C501 867 477 889 443 889 C397 889 369 846 369 808 C369 772 393 750 424 750 C471 750 501 794 501 830 L501 830 Z M689 830 C689 867 665 889 631 889 C585 889 557 846 557 808 C557 772 581 750 612 750 C659 750 689 794 689 830 L689 830 Z M351 -17 C442 -17 504 12 545 53 C587 95 607 145 620 198 L716 583 L804 583 L822 658 L559 658 L540 583 L634 583 L545 224 C532 174 513 135 487 109 C458 80 417 66 372 66 C291 66 232 103 232 179 C232 201 235 224 241 250 L324 583 L415 583 L434 658 L125 658 L106 583 L198 583 L116 256 C109 228 104 194 104 167 C104 64 188 -17 351 -17 L351 -17 Z " />
<glyph glyph-name="Yacute" unicode="&#xdd;" horiz-adv-x="638" d="M381 343 L309 584 L395 584 L414 658 L113 658 L94 583 L173 583 L274 277 L223 75 L128 75 L110 0 L428 0 L446 75 L349 75 L397 269 L662 583 L732 583 L751 658 L514 658 L496 584 L576 584 L381 343 Z M551 810 C596 847 613 862 613 891 C613 915 593 942 562 942 C529 942 510 914 482 870 L399 736 L458 736 L551 810 Z " />
<glyph glyph-name="Thorn" unicode="&#xde;" horiz-adv-x="630" d="M-26 0 L299 0 L317 75 L218 75 L237 152 L326 152 C572 152 635 276 635 359 C635 458 565 524 384 524 L330 524 L345 583 L442 583 L460 658 L136 658 L117 583 L218 583 L92 75 L-8 75 L-26 0 Z M362 452 C459 452 493 422 493 359 C493 294 453 224 328 224 L255 224 L312 452 L362 452 Z " />
<glyph glyph-name="germandbls" unicode="&#xdf;" horiz-adv-x="588" d="M413 357 C413 389 436 409 486 439 C539 472 585 504 585 573 C585 641 521 695 406 695 C274 695 181 607 147 450 L58 450 L42 389 L135 389 L58 19 C32 -107 18 -124 -16 -124 C-9 -117 -2 -100 -2 -80 C-2 -53 -20 -29 -53 -29 C-93 -29 -119 -63 -119 -99 C-119 -138 -89 -171 -28 -171 C56 -171 144 -111 183 70 L268 475 C292 589 328 642 403 642 C447 642 474 613 474 568 C474 505 440 473 392 435 C336 390 310 365 310 314 C310 267 344 239 386 204 C425 172 455 146 455 109 C455 64 423 39 385 39 C364 39 349 43 340 50 C353 60 362 77 362 98 C362 130 340 154 307 154 C265 154 240 120 240 84 C240 31 292 -10 386 -10 C477 -10 559 48 559 143 C559 203 520 240 478 274 C433 313 413 328 413 357 L413 357 Z " />
<glyph glyph-name="agrave" unicode="&#xe0;" horiz-adv-x="564" d="M511 464 L397 464 L377 387 C368 432 336 471 280 471 C224 471 171 443 124 395 C70 342 29 251 29 149 C29 61 76 -10 162 -10 C219 -10 276 28 314 103 L321 100 C320 90 320 85 320 78 C320 20 355 -10 402 -10 C463 -10 517 35 556 157 L508 172 C485 105 463 71 441 71 C426 71 418 80 418 97 C418 110 421 128 429 154 L511 464 Z M208 70 C171 70 150 100 150 159 C150 240 209 406 298 406 C333 406 352 378 352 326 C352 245 289 70 208 70 L208 70 Z M341 644 C330 700 321 739 275 739 C246 739 225 714 225 689 C225 667 233 648 259 609 L308 534 L361 534 L341 644 Z " />
<glyph glyph-name="aacute" unicode="&#xe1;" horiz-adv-x="564" d="M511 464 L397 464 L377 387 C368 432 336 471 280 471 C224 471 171 443 124 395 C70 342 29 251 29 149 C29 61 76 -10 162 -10 C219 -10 276 28 314 103 L321 100 C320 90 320 85 320 78 C320 20 355 -10 402 -10 C463 -10 517 35 556 157 L508 172 C485 105 463 71 441 71 C426 71 418 80 418 97 C418 110 421 128 429 154 L511 464 Z M208 70 C171 70 150 100 150 159 C150 240 209 406 298 406 C333 406 352 378 352 326 C352 245 289 70 208 70 L208 70 Z M436 608 C481 645 498 660 498 689 C498 713 478 740 447 740 C414 740 395 712 367 668 L284 534 L343 534 L436 608 Z " />
<glyph glyph-name="acircumflex" unicode="&#xe2;" horiz-adv-x="564" d="M511 464 L397 464 L377 387 C368 432 336 471 280 471 C224 471 171 443 124 395 C70 342 29 251 29 149 C29 61 76 -10 162 -10 C219 -10 276 28 314 103 L321 100 C320 90 320 85 320 78 C320 20 355 -10 402 -10 C463 -10 517 35 556 157 L508 172 C485 105 463 71 441 71 C426 71 418 80 418 97 C418 110 421 128 429 154 L511 464 Z M208 70 C171 70 150 100 150 159 C150 240 209 406 298 406 C333 406 352 378 352 326 C352 245 289 70 208 70 L208 70 Z M185 535 L252 535 L360 625 L414 535 L475 535 L406 724 L348 724 L185 535 Z " />
<glyph glyph-name="atilde" unicode="&#xe3;" horiz-adv-x="564" d="M511 464 L397 464 L377 387 C368 432 336 471 280 471 C224 471 171 443 124 395 C70 342 29 251 29 149 C29 61 76 -10 162 -10 C219 -10 276 28 314 103 L321 100 C320 90 320 85 320 78 C320 20 355 -10 402 -10 C463 -10 517 35 556 157 L508 172 C485 105 463 71 441 71 C426 71 418 80 418 97 C418 110 421 128 429 154 L511 464 Z M208 70 C171 70 150 100 150 159 C150 240 209 406 298 406 C333 406 352 378 352 326 C352 245 289 70 208 70 L208 70 Z M283 593 C316 593 347 539 413 539 C476 539 511 594 541 682 L484 682 C463 639 449 624 429 624 C396 624 365 678 299 678 C236 678 201 624 171 535 L228 535 C249 578 263 593 283 593 L283 593 Z " />
<glyph glyph-name="adieresis" unicode="&#xe4;" horiz-adv-x="564" d="M511 464 L397 464 L377 387 C368 432 336 471 280 471 C224 471 171 443 124 395 C70 342 29 251 29 149 C29 61 76 -10 162 -10 C219 -10 276 28 314 103 L321 100 C320 90 320 85 320 78 C320 20 355 -10 402 -10 C463 -10 517 35 556 157 L508 172 C485 105 463 71 441 71 C426 71 418 80 418 97 C418 110 421 128 429 154 L511 464 Z M208 70 C171 70 150 100 150 159 C150 240 209 406 298 406 C333 406 352 378 352 326 C352 245 289 70 208 70 L208 70 Z M331 628 C331 665 307 687 273 687 C227 687 199 644 199 606 C199 570 223 548 254 548 C301 548 331 592 331 628 L331 628 Z M519 628 C519 665 495 687 461 687 C415 687 387 644 387 606 C387 570 411 548 442 548 C489 548 519 592 519 628 L519 628 Z " />
<glyph glyph-name="aring" unicode="&#xe5;" horiz-adv-x="564" d="M511 464 L397 464 L377 387 C368 432 336 471 280 471 C224 471 171 443 124 395 C70 342 29 251 29 149 C29 61 76 -10 162 -10 C219 -10 276 28 314 103 L321 100 C320 90 320 85 320 78 C320 20 355 -10 402 -10 C463 -10 517 35 556 157 L508 172 C485 105 463 71 441 71 C426 71 418 80 418 97 C418 110 421 128 429 154 L511 464 Z M208 70 C171 70 150 100 150 159 C150 240 209 406 298 406 C333 406 352 378 352 326 C352 245 289 70 208 70 L208 70 Z M477 649 C477 700 440 744 373 744 C300 744 250 688 250 622 C250 573 287 528 354 528 C427 528 477 584 477 649 L477 649 Z M310 621 C310 656 330 702 370 702 C400 702 417 682 417 652 C417 616 397 570 357 570 C327 570 310 591 310 621 L310 621 Z " />
<glyph glyph-name="ae" unicode="&#xe6;" horiz-adv-x="727" d="M575 471 C515 471 458 450 410 410 C386 449 337 471 267 471 C144 471 80 416 80 358 C80 325 101 299 138 299 C182 299 207 330 207 365 C207 378 201 395 191 404 C209 410 227 413 246 413 C300 413 332 389 332 343 C332 330 326 303 315 268 C117 260 10 200 10 101 C10 41 51 -6 135 -6 C203 -6 265 23 311 86 C334 27 388 -10 467 -10 C566 -10 628 45 679 118 L637 148 C595 89 546 56 497 56 C447 56 403 82 403 165 C403 172 403 179 404 187 C615 200 709 277 709 367 C709 428 661 471 575 471 L575 471 Z M557 416 C588 416 603 394 603 366 C603 304 553 250 413 235 C434 321 488 416 557 416 L557 416 Z M297 162 C297 151 298 141 299 132 C257 81 219 63 184 63 C149 63 129 88 129 116 C129 178 186 209 303 224 C299 204 297 183 297 162 L297 162 Z " />
<glyph glyph-name="ccedilla" unicode="&#xe7;" horiz-adv-x="469" d="M53 -164 L22 -204 C55 -231 103 -246 143 -246 C226 -246 267 -199 267 -148 C267 -104 232 -76 182 -67 L182 -63 L248 -7 C325 6 374 61 412 127 L369 156 C329 94 285 61 239 61 C194 61 148 88 148 174 C148 261 207 414 307 414 C337 414 354 403 362 389 C338 372 321 349 321 321 C321 291 344 267 380 267 C423 267 450 310 450 353 C450 424 389 471 305 471 C162 471 28 330 28 174 C28 76 87 6 178 -7 L81 -87 L94 -118 C143 -114 182 -126 182 -156 C182 -178 163 -192 136 -192 C103 -192 78 -181 53 -164 L53 -164 Z " />
<glyph glyph-name="egrave" unicode="&#xe8;" horiz-adv-x="471" d="M452 367 C452 428 404 471 318 471 C161 471 28 326 28 172 C28 62 100 -10 203 -10 C309 -10 371 45 422 118 L380 148 C338 89 289 56 240 56 C190 56 147 82 147 165 C147 172 147 180 148 188 C358 200 452 277 452 367 L452 367 Z M301 416 C331 416 347 394 347 366 C347 304 296 250 157 235 C178 321 231 416 301 416 L301 416 Z M323 644 C312 700 303 739 257 739 C228 739 207 714 207 689 C207 667 215 648 241 609 L290 534 L343 534 L323 644 Z " />
<glyph glyph-name="eacute" unicode="&#xe9;" horiz-adv-x="471" d="M452 367 C452 428 404 471 318 471 C161 471 28 326 28 172 C28 62 100 -10 203 -10 C309 -10 371 45 422 118 L380 148 C338 89 289 56 240 56 C190 56 147 82 147 165 C147 172 147 180 148 188 C358 200 452 277 452 367 L452 367 Z M301 416 C331 416 347 394 347 366 C347 304 296 250 157 235 C178 321 231 416 301 416 L301 416 Z M418 608 C463 645 480 660 480 689 C480 713 460 740 429 740 C396 740 377 712 349 668 L266 534 L325 534 L418 608 Z " />
<glyph glyph-name="ecircumflex" unicode="&#xea;" horiz-adv-x="471" d="M452 367 C452 428 404 471 318 471 C161 471 28 326 28 172 C28 62 100 -10 203 -10 C309 -10 371 45 422 118 L380 148 C338 89 289 56 240 56 C190 56 147 82 147 165 C147 172 147 180 148 188 C358 200 452 277 452 367 L452 367 Z M167 535 L234 535 L342 625 L396 535 L457 535 L388 724 L330 724 L167 535 Z M301 416 C331 416 347 394 347 366 C347 304 296 250 157 235 C178 321 231 416 301 416 L301 416 Z " />
<glyph glyph-name="edieresis" unicode="&#xeb;" horiz-adv-x="471" d="M452 367 C452 428 404 471 318 471 C161 471 28 326 28 172 C28 62 100 -10 203 -10 C309 -10 371 45 422 118 L380 148 C338 89 289 56 240 56 C190 56 147 82 147 165 C147 172 147 180 148 188 C358 200 452 277 452 367 L452 367 Z M301 416 C331 416 347 394 347 366 C347 304 296 250 157 235 C178 321 231 416 301 416 L301 416 Z M501 628 C501 665 477 687 443 687 C397 687 369 644 369 606 C369 570 393 548 424 548 C471 548 501 592 501 628 L501 628 Z M313 628 C313 665 289 687 255 687 C209 687 181 644 181 606 C181 570 205 548 236 548 C283 548 313 592 313 628 L313 628 Z " />
<glyph glyph-name="igrave" unicode="&#xec;" horiz-adv-x="345" d="M272 370 C272 434 235 471 183 471 C115 471 62 412 19 312 L67 292 C95 354 120 397 148 397 C157 397 163 391 163 375 C163 313 80 179 80 84 C80 24 118 -10 170 -10 C234 -10 290 39 329 157 L282 172 C252 98 230 71 211 71 C198 71 191 78 191 95 C191 153 272 292 272 370 L272 370 Z M202 644 C191 700 182 739 136 739 C107 739 86 714 86 689 C86 667 94 648 120 609 L169 534 L222 534 L202 644 Z " />
<glyph glyph-name="iacute" unicode="&#xed;" horiz-adv-x="345" d="M296 608 C341 645 358 660 358 689 C358 713 338 740 307 740 C274 740 255 712 227 668 L144 534 L203 534 L296 608 Z M272 370 C272 434 235 471 183 471 C115 471 62 412 19 312 L67 292 C95 354 120 397 148 397 C157 397 163 391 163 375 C163 313 80 179 80 84 C80 24 118 -10 170 -10 C234 -10 290 39 329 157 L282 172 C252 98 230 71 211 71 C198 71 191 78 191 95 C191 153 272 292 272 370 L272 370 Z " />
<glyph glyph-name="icircumflex" unicode="&#xee;" horiz-adv-x="345" d="M46 535 L113 535 L221 625 L275 535 L336 535 L267 724 L209 724 L46 535 Z M272 370 C272 434 235 471 183 471 C115 471 62 412 19 312 L67 292 C95 354 120 397 148 397 C157 397 163 391 163 375 C163 313 80 179 80 84 C80 24 118 -10 170 -10 C234 -10 290 39 329 157 L282 172 C252 98 230 71 211 71 C198 71 191 78 191 95 C191 153 272 292 272 370 L272 370 Z " />
<glyph glyph-name="idieresis" unicode="&#xef;" horiz-adv-x="345" d="M192 628 C192 665 168 687 134 687 C88 687 60 644 60 606 C60 570 84 548 115 548 C162 548 192 592 192 628 L192 628 Z M380 628 C380 665 356 687 322 687 C276 687 248 644 248 606 C248 570 272 548 303 548 C350 548 380 592 380 628 L380 628 Z M272 370 C272 434 235 471 183 471 C115 471 62 412 19 312 L67 292 C95 354 120 397 148 397 C157 397 163 391 163 375 C163 313 80 179 80 84 C80 24 118 -10 170 -10 C234 -10 290 39 329 157 L282 172 C252 98 230 71 211 71 C198 71 191 78 191 95 C191 153 272 292 272 370 L272 370 Z " />
<glyph glyph-name="eth" unicode="&#xf0;" horiz-adv-x="519" d="M537 611 L519 666 L412 630 C398 652 383 673 366 695 L287 672 C302 648 315 625 327 602 L214 564 L233 509 L352 549 C373 497 384 448 386 403 C368 434 331 459 271 459 C151 459 27 342 27 184 C27 69 104 -10 217 -10 C382 -10 494 143 494 347 C494 436 476 510 442 579 L537 611 Z M364 309 C364 214 311 46 216 46 C173 46 146 73 146 137 C146 235 197 396 290 396 C334 396 364 372 364 309 L364 309 Z " />
<glyph glyph-name="ntilde" unicode="&#xf1;" horiz-adv-x="602" d="M456 93 C456 154 530 282 530 367 C530 427 495 471 439 471 C368 471 294 404 228 263 L221 266 C236 312 242 348 242 377 C242 439 212 470 169 470 C102 470 52 412 9 312 L56 292 C85 354 111 397 134 397 C152 397 155 381 140 324 L54 0 L174 0 C254 307 340 383 386 383 C403 383 413 373 413 350 C413 282 347 183 347 83 C347 25 382 -10 436 -10 C493 -10 549 36 589 157 L542 172 C515 103 494 71 473 71 C462 71 456 78 456 93 L456 93 Z M317 593 C350 593 381 539 447 539 C510 539 545 594 575 682 L518 682 C497 639 483 624 463 624 C430 624 399 678 333 678 C270 678 235 624 205 535 L262 535 C283 578 297 593 317 593 L317 593 Z " />
<glyph glyph-name="ograve" unicode="&#xf2;" horiz-adv-x="510" d="M292 471 C153 471 28 340 28 184 C28 71 103 -10 218 -10 C357 -10 482 122 482 278 C482 391 407 471 292 471 L292 471 Z M363 325 C363 228 310 46 217 46 C174 46 147 73 147 137 C147 234 200 416 293 416 C336 416 363 389 363 325 L363 325 Z M324 644 C313 700 304 739 258 739 C229 739 208 714 208 689 C208 667 216 648 242 609 L291 534 L344 534 L324 644 Z " />
<glyph glyph-name="oacute" unicode="&#xf3;" horiz-adv-x="510" d="M419 608 C464 645 481 660 481 689 C481 713 461 740 430 740 C397 740 378 712 350 668 L267 534 L326 534 L419 608 Z M292 471 C153 471 28 340 28 184 C28 71 103 -10 218 -10 C357 -10 482 122 482 278 C482 391 407 471 292 471 L292 471 Z M363 325 C363 228 310 46 217 46 C174 46 147 73 147 137 C147 234 200 416 293 416 C336 416 363 389 363 325 L363 325 Z " />
<glyph glyph-name="ocircumflex" unicode="&#xf4;" horiz-adv-x="510" d="M168 535 L235 535 L343 625 L397 535 L458 535 L389 724 L331 724 L168 535 Z M292 471 C153 471 28 340 28 184 C28 71 103 -10 218 -10 C357 -10 482 122 482 278 C482 391 407 471 292 471 L292 471 Z M363 325 C363 228 310 46 217 46 C174 46 147 73 147 137 C147 234 200 416 293 416 C336 416 363 389 363 325 L363 325 Z " />
<glyph glyph-name="otilde" unicode="&#xf5;" horiz-adv-x="510" d="M292 471 C153 471 28 340 28 184 C28 71 103 -10 218 -10 C357 -10 482 122 482 278 C482 391 407 471 292 471 L292 471 Z M363 325 C363 228 310 46 217 46 C174 46 147 73 147 137 C147 234 200 416 293 416 C336 416 363 389 363 325 L363 325 Z M267 593 C300 593 331 539 397 539 C460 539 495 594 525 682 L468 682 C447 639 433 624 413 624 C380 624 349 678 283 678 C220 678 185 624 155 535 L212 535 C233 578 247 593 267 593 L267 593 Z " />
<glyph glyph-name="odieresis" unicode="&#xf6;" horiz-adv-x="510" d="M314 628 C314 665 290 687 256 687 C210 687 182 644 182 606 C182 570 206 548 237 548 C284 548 314 592 314 628 L314 628 Z M502 628 C502 665 478 687 444 687 C398 687 370 644 370 606 C370 570 394 548 425 548 C472 548 502 592 502 628 L502 628 Z M292 471 C153 471 28 340 28 184 C28 71 103 -10 218 -10 C357 -10 482 122 482 278 C482 391 407 471 292 471 L292 471 Z M363 325 C363 228 310 46 217 46 C174 46 147 73 147 137 C147 234 200 416 293 416 C336 416 363 389 363 325 L363 325 Z " />
<glyph glyph-name="divide" unicode="&#xf7;" horiz-adv-x="520" d="M482 248 L499 317 L65 317 L49 248 L482 248 Z M230 53 C272 53 300 93 300 128 C300 167 273 192 238 192 C196 192 168 152 168 117 C168 78 195 53 230 53 L230 53 Z M309 373 C351 373 379 413 379 448 C379 487 352 512 318 512 C276 512 248 472 248 437 C248 398 275 373 309 373 L309 373 Z " />
<glyph glyph-name="oslash" unicode="&#xf8;" horiz-adv-x="510" d="M38 -47 L104 23 C134 2 173 -10 218 -10 C357 -10 482 122 482 278 C482 325 469 366 445 398 L512 471 L472 509 L405 437 C375 459 336 471 292 471 C153 471 28 340 28 184 C28 137 41 96 64 63 L-2 -9 L38 -47 Z M218 46 C186 46 164 55 153 80 L365 320 C362 216 310 46 218 46 L218 46 Z M292 416 C323 416 345 407 356 382 L144 143 C147 246 200 416 292 416 L292 416 Z " />
<glyph glyph-name="ugrave" unicode="&#xf9;" horiz-adv-x="600" d="M445 -10 C502 -10 556 35 595 157 L547 172 C524 105 503 71 480 71 C466 71 457 80 457 97 C457 110 460 127 468 154 L550 464 L430 464 C348 152 265 78 220 78 C203 78 192 89 192 117 C192 181 258 287 258 380 C258 438 227 471 174 471 C105 471 52 412 11 313 L58 293 C94 368 111 390 132 390 C141 390 147 383 147 369 C147 312 76 179 76 95 C76 33 112 -10 167 -10 C239 -10 309 56 375 201 L382 198 C366 147 360 109 360 84 C360 19 393 -10 445 -10 L445 -10 Z M349 644 C338 700 329 739 283 739 C254 739 233 714 233 689 C233 667 241 648 267 609 L316 534 L369 534 L349 644 Z " />
<glyph glyph-name="uacute" unicode="&#xfa;" horiz-adv-x="600" d="M444 608 C489 645 506 660 506 689 C506 713 486 740 455 740 C422 740 403 712 375 668 L292 534 L351 534 L444 608 Z M445 -10 C502 -10 556 35 595 157 L547 172 C524 105 503 71 480 71 C466 71 457 80 457 97 C457 110 460 127 468 154 L550 464 L430 464 C348 152 265 78 220 78 C203 78 192 89 192 117 C192 181 258 287 258 380 C258 438 227 471 174 471 C105 471 52 412 11 313 L58 293 C94 368 111 390 132 390 C141 390 147 383 147 369 C147 312 76 179 76 95 C76 33 112 -10 167 -10 C239 -10 309 56 375 201 L382 198 C366 147 360 109 360 84 C360 19 393 -10 445 -10 L445 -10 Z " />
<glyph glyph-name="ucircumflex" unicode="&#xfb;" horiz-adv-x="600" d="M194 535 L261 535 L369 625 L423 535 L484 535 L415 724 L357 724 L194 535 Z M445 -10 C502 -10 556 35 595 157 L547 172 C524 105 503 71 480 71 C466 71 457 80 457 97 C457 110 460 127 468 154 L550 464 L430 464 C348 152 265 78 220 78 C203 78 192 89 192 117 C192 181 258 287 258 380 C258 438 227 471 174 471 C105 471 52 412 11 313 L58 293 C94 368 111 390 132 390 C141 390 147 383 147 369 C147 312 76 179 76 95 C76 33 112 -10 167 -10 C239 -10 309 56 375 201 L382 198 C366 147 360 109 360 84 C360 19 393 -10 445 -10 L445 -10 Z " />
<glyph glyph-name="udieresis" unicode="&#xfc;" horiz-adv-x="600" d="M339 628 C339 665 315 687 281 687 C235 687 207 644 207 606 C207 570 231 548 262 548 C309 548 339 592 339 628 L339 628 Z M527 628 C527 665 503 687 469 687 C423 687 395 644 395 606 C395 570 419 548 450 548 C497 548 527 592 527 628 L527 628 Z M445 -10 C502 -10 556 35 595 157 L547 172 C524 105 503 71 480 71 C466 71 457 80 457 97 C457 110 460 127 468 154 L550 464 L430 464 C348 152 265 78 220 78 C203 78 192 89 192 117 C192 181 258 287 258 380 C258 438 227 471 174 471 C105 471 52 412 11 313 L58 293 C94 368 111 390 132 390 C141 390 147 383 147 369 C147 312 76 179 76 95 C76 33 112 -10 167 -10 C239 -10 309 56 375 201 L382 198 C366 147 360 109 360 84 C360 19 393 -10 445 -10 L445 -10 Z " />
<glyph glyph-name="yacute" unicode="&#xfd;" horiz-adv-x="553" d="M176 471 C110 471 55 412 11 312 L58 292 C85 349 109 390 134 390 C143 390 149 382 149 369 C149 312 85 204 85 127 C85 69 118 23 184 23 C242 23 304 62 362 168 L368 165 L348 86 C314 -53 261 -116 183 -116 C164 -116 149 -113 137 -109 C147 -100 156 -82 157 -66 C159 -33 139 -5 99 -5 C54 -5 30 -45 30 -77 C30 -151 114 -170 184 -170 C309 -170 410 -106 453 78 L545 464 L433 464 C357 169 286 109 233 109 C211 109 200 119 200 144 C200 202 258 292 258 384 C258 437 227 471 176 471 L176 471 Z M448 608 C493 645 510 660 510 689 C510 713 490 740 459 740 C426 740 407 712 379 668 L296 534 L355 534 L448 608 Z " />
<glyph glyph-name="thorn" unicode="&#xfe;" horiz-adv-x="522" d="M318 393 C355 393 373 365 373 309 C373 230 323 61 234 61 C190 61 169 95 169 144 C169 239 238 393 318 393 L318 393 Z M305 689 L107 689 L87 611 L170 611 L-6 -83 L-75 -83 L-95 -157 L182 -157 L202 -83 L109 -83 L146 65 C165 26 206 0 259 0 C382 0 494 149 494 309 C494 403 445 471 361 471 C310 471 259 437 223 377 L215 380 L305 689 Z " />
<glyph glyph-name="ydieresis" unicode="&#xff;" horiz-adv-x="553" d="M176 471 C110 471 55 412 11 312 L58 292 C85 349 109 390 134 390 C143 390 149 382 149 369 C149 312 85 204 85 127 C85 69 118 23 184 23 C242 23 304 62 362 168 L368 165 L348 86 C314 -53 261 -116 183 -116 C164 -116 149 -113 137 -109 C147 -100 156 -82 157 -66 C159 -33 139 -5 99 -5 C54 -5 30 -45 30 -77 C30 -151 114 -170 184 -170 C309 -170 410 -106 453 78 L545 464 L433 464 C357 169 286 109 233 109 C211 109 200 119 200 144 C200 202 258 292 258 384 C258 437 227 471 176 471 L176 471 Z M342 628 C342 665 318 687 284 687 C238 687 210 644 210 606 C210 570 234 548 265 548 C312 548 342 592 342 628 L342 628 Z M530 628 C530 665 506 687 472 687 C426 687 398 644 398 606 C398 570 422 548 453 548 C500 548 530 592 530 628 L530 628 Z " />
<glyph glyph-name="Amacron" unicode="&#x100;" horiz-adv-x="673" d="M345 75 L327 0 L636 0 L655 75 L567 75 L507 662 L384 662 L29 75 L-40 75 L-59 0 L186 0 L204 75 L121 75 L207 222 L428 222 L440 75 L345 75 Z M245 289 L398 553 L402 553 L423 289 L245 289 Z M329 748 L600 748 L622 832 L350 832 L329 748 Z " />
<glyph glyph-name="amacron" unicode="&#x101;" horiz-adv-x="564" d="M511 464 L397 464 L377 387 C368 432 336 471 280 471 C224 471 171 443 124 395 C70 342 29 251 29 149 C29 61 76 -10 162 -10 C219 -10 276 28 314 103 L321 100 C320 90 320 85 320 78 C320 20 355 -10 402 -10 C463 -10 517 35 556 157 L508 172 C485 105 463 71 441 71 C426 71 418 80 418 97 C418 110 421 128 429 154 L511 464 Z M208 70 C171 70 150 100 150 159 C150 240 209 406 298 406 C333 406 352 378 352 326 C352 245 289 70 208 70 L208 70 Z M205 546 L476 546 L498 630 L226 630 L205 546 Z " />
<glyph glyph-name="Abreve" unicode="&#x102;" horiz-adv-x="673" d="M345 75 L327 0 L636 0 L655 75 L567 75 L507 662 L384 662 L29 75 L-40 75 L-59 0 L186 0 L204 75 L121 75 L207 222 L428 222 L440 75 L345 75 Z M245 289 L398 553 L402 553 L423 289 L245 289 Z M463 739 C546 739 613 799 639 907 L585 907 C559 853 523 821 476 821 C423 821 399 851 399 907 L348 907 C324 798 375 739 463 739 L463 739 Z " />
<glyph glyph-name="abreve" unicode="&#x103;" horiz-adv-x="564" d="M511 464 L397 464 L377 387 C368 432 336 471 280 471 C224 471 171 443 124 395 C70 342 29 251 29 149 C29 61 76 -10 162 -10 C219 -10 276 28 314 103 L321 100 C320 90 320 85 320 78 C320 20 355 -10 402 -10 C463 -10 517 35 556 157 L508 172 C485 105 463 71 441 71 C426 71 418 80 418 97 C418 110 421 128 429 154 L511 464 Z M208 70 C171 70 150 100 150 159 C150 240 209 406 298 406 C333 406 352 378 352 326 C352 245 289 70 208 70 L208 70 Z M339 537 C422 537 489 597 515 705 L461 705 C435 651 399 619 352 619 C299 619 275 649 275 705 L224 705 C200 596 251 537 339 537 L339 537 Z " />
<glyph glyph-name="Aogonek" unicode="&#x104;" horiz-adv-x="673" d="M558 -209 L538 -165 C519 -177 498 -185 478 -185 C441 -185 427 -163 427 -141 C427 -109 446 -78 541 -4 L546 0 L636 0 L655 75 L567 75 L507 662 L384 662 L29 75 L-40 75 L-59 0 L186 0 L204 75 L121 75 L207 222 L428 222 L440 75 L345 75 L327 0 L472 0 C376 -60 335 -100 335 -156 C335 -215 384 -246 447 -246 C489 -246 527 -230 558 -209 L558 -209 Z M245 289 L398 553 L402 553 L423 289 L245 289 Z " />
<glyph glyph-name="aogonek" unicode="&#x105;" horiz-adv-x="564" d="M377 387 C368 432 336 471 280 471 C224 471 171 443 124 395 C70 342 29 251 29 149 C29 61 76 -10 162 -10 C219 -10 276 28 314 103 L321 100 C320 90 320 85 320 78 C320 26 349 1 376 -6 C286 -63 248 -103 248 -156 C248 -215 297 -246 361 -246 C403 -246 440 -230 472 -209 L452 -165 C432 -177 411 -185 392 -185 C354 -185 340 -163 340 -141 C340 -111 359 -77 451 -5 C512 42 532 87 556 157 L508 172 C485 105 463 71 441 71 C426 71 418 80 418 97 C418 110 421 128 429 154 L511 464 L397 464 L377 387 Z M208 70 C171 70 150 100 150 159 C150 240 209 406 298 406 C333 406 352 378 352 326 C352 245 289 70 208 70 L208 70 Z " />
<glyph glyph-name="Cacute" unicode="&#x106;" horiz-adv-x="677" d="M561 810 C606 847 623 862 623 891 C623 915 603 942 572 942 C539 942 520 914 492 870 L409 736 L468 736 L561 810 Z M337 -16 C497 -16 590 97 640 237 L569 262 C519 144 457 64 351 64 C264 64 196 120 196 253 C196 363 257 601 434 601 C515 601 578 555 588 411 L663 411 L727 671 L650 671 L609 593 C575 644 513 674 430 674 C210 674 62 464 62 263 C62 101 153 -16 337 -16 L337 -16 Z " />
<glyph glyph-name="cacute" unicode="&#x107;" horiz-adv-x="469" d="M419 608 C464 645 481 660 481 689 C481 713 461 740 430 740 C397 740 378 712 350 668 L267 534 L326 534 L419 608 Z M305 471 C162 471 28 330 28 174 C28 65 102 -10 212 -10 C310 -10 369 52 412 127 L369 156 C329 94 285 61 239 61 C194 61 148 88 148 174 C148 261 207 414 307 414 C337 414 354 403 362 389 C338 372 321 349 321 321 C321 291 344 267 380 267 C423 267 450 310 450 353 C450 424 389 471 305 471 L305 471 Z " />
<glyph glyph-name="Cdotaccent" unicode="&#x10a;" horiz-adv-x="677" d="M337 -16 C497 -16 590 97 640 237 L569 262 C519 144 457 64 351 64 C264 64 196 120 196 253 C196 363 257 601 434 601 C515 601 578 555 588 411 L663 411 L727 671 L650 671 L609 593 C575 644 513 674 430 674 C210 674 62 464 62 263 C62 101 153 -16 337 -16 L337 -16 Z M552 819 C552 858 527 881 491 881 C441 881 412 836 412 797 C412 759 437 737 470 737 C521 737 552 782 552 819 L552 819 Z " />
<glyph glyph-name="cdotaccent" unicode="&#x10b;" horiz-adv-x="469" d="M305 471 C162 471 28 330 28 174 C28 65 102 -10 212 -10 C310 -10 369 52 412 127 L369 156 C329 94 285 61 239 61 C194 61 148 88 148 174 C148 261 207 414 307 414 C337 414 354 403 362 389 C338 372 321 349 321 321 C321 291 344 267 380 267 C423 267 450 310 450 353 C450 424 389 471 305 471 L305 471 Z M409 617 C409 656 384 679 348 679 C298 679 269 634 269 595 C269 557 294 535 327 535 C378 535 409 580 409 617 L409 617 Z " />
<glyph glyph-name="Ccaron" unicode="&#x10c;" horiz-adv-x="677" d="M642 932 L574 932 L467 842 L413 932 L351 932 L420 743 L478 743 L642 932 Z M337 -16 C497 -16 590 97 640 237 L569 262 C519 144 457 64 351 64 C264 64 196 120 196 253 C196 363 257 601 434 601 C515 601 578 555 588 411 L663 411 L727 671 L650 671 L609 593 C575 644 513 674 430 674 C210 674 62 464 62 263 C62 101 153 -16 337 -16 L337 -16 Z " />
<glyph glyph-name="ccaron" unicode="&#x10d;" horiz-adv-x="469" d="M499 730 L431 730 L324 640 L270 730 L208 730 L277 541 L335 541 L499 730 Z M305 471 C162 471 28 330 28 174 C28 65 102 -10 212 -10 C310 -10 369 52 412 127 L369 156 C329 94 285 61 239 61 C194 61 148 88 148 174 C148 261 207 414 307 414 C337 414 354 403 362 389 C338 372 321 349 321 321 C321 291 344 267 380 267 C423 267 450 310 450 353 C450 424 389 471 305 471 L305 471 Z " />
<glyph glyph-name="Dcaron" unicode="&#x10e;" horiz-adv-x="716" d="M658 932 L590 932 L483 842 L429 932 L367 932 L436 743 L494 743 L658 932 Z M-27 0 L262 0 C413 0 526 46 601 122 C678 198 717 305 717 401 C717 549 607 658 399 658 L134 658 L115 583 L217 583 L91 75 L-10 75 L-27 0 Z M217 74 L344 584 L398 584 C519 584 579 529 579 423 C579 327 536 204 477 145 C425 93 364 74 273 74 L217 74 Z " />
<glyph glyph-name="dcaron" unicode="&#x10f;" horiz-adv-x="564" d="M714 635 C739 676 752 695 752 721 C752 748 730 770 702 770 C668 770 649 747 638 691 L604 531 L651 531 L714 635 Z M208 70 C171 70 150 100 150 159 C150 240 206 406 300 406 C335 406 354 385 354 334 C354 243 289 70 208 70 L208 70 Z M508 172 C485 105 463 71 441 71 C426 71 418 80 418 97 C418 110 421 128 429 154 L571 689 L373 689 L353 611 L436 611 L379 396 C366 439 336 471 280 471 C224 471 171 443 124 395 C70 342 29 251 29 149 C29 61 76 -10 162 -10 C219 -10 276 28 314 103 L321 100 C320 90 320 85 320 78 C320 21 355 -10 402 -10 C463 -10 517 35 556 157 L508 172 Z " />
<glyph glyph-name="Dcroat" unicode="&#x110;" horiz-adv-x="718" d="M-26 0 L263 0 C414 0 527 46 602 122 C679 198 718 305 718 401 C718 549 608 658 400 658 L135 658 L116 583 L218 583 L168 381 L67 381 L48 305 L149 305 L92 75 L-9 75 L-26 0 Z M218 74 L275 305 L403 305 L421 381 L294 381 L345 584 L399 584 C520 584 580 529 580 423 C580 327 537 204 478 145 C426 93 365 74 274 74 L218 74 Z " />
<glyph glyph-name="dcroat" unicode="&#x111;" horiz-adv-x="564" d="M373 689 L354 614 L437 614 L423 563 L300 563 L284 504 L407 504 L378 393 C365 436 335 468 280 468 C224 468 171 440 123 392 C70 339 29 251 29 149 C29 61 76 -10 162 -10 C219 -10 276 28 314 103 L321 100 C320 90 320 85 320 78 C320 21 355 -10 402 -10 C463 -10 517 35 556 157 L508 172 C485 105 463 71 441 71 C426 71 418 80 418 97 C418 110 421 128 429 154 L522 504 L591 504 L607 563 L537 563 L571 689 L373 689 Z M208 70 C171 70 150 100 150 159 C150 237 205 403 299 403 C334 403 353 382 353 331 C353 242 289 70 208 70 L208 70 Z " />
<glyph glyph-name="Emacron" unicode="&#x112;" horiz-adv-x="673" d="M135 658 L116 583 L218 583 L92 75 L-9 75 L-26 0 L564 0 L625 245 L559 245 C493 107 477 74 385 74 L218 74 L275 302 L328 302 C392 302 400 290 391 203 L454 203 L520 467 L455 467 C417 380 405 370 338 370 L292 370 L345 584 L510 584 C592 584 601 557 604 435 L664 435 L719 658 L135 658 Z M336 748 L607 748 L629 832 L357 832 L336 748 Z " />
<glyph glyph-name="emacron" unicode="&#x113;" horiz-adv-x="471" d="M452 367 C452 428 404 471 318 471 C161 471 28 326 28 172 C28 62 100 -10 203 -10 C309 -10 371 45 422 118 L380 148 C338 89 289 56 240 56 C190 56 147 82 147 165 C147 172 147 180 148 188 C358 200 452 277 452 367 L452 367 Z M187 546 L458 546 L480 630 L208 630 L187 546 Z M301 416 C331 416 347 394 347 366 C347 304 296 250 157 235 C178 321 231 416 301 416 L301 416 Z " />
<glyph glyph-name="Ebreve" unicode="&#x114;" horiz-adv-x="673" d="M135 658 L116 583 L218 583 L92 75 L-9 75 L-26 0 L564 0 L625 245 L559 245 C493 107 477 74 385 74 L218 74 L275 302 L328 302 C392 302 400 290 391 203 L454 203 L520 467 L455 467 C417 380 405 370 338 370 L292 370 L345 584 L510 584 C592 584 601 557 604 435 L664 435 L719 658 L135 658 Z M470 739 C553 739 620 799 646 907 L592 907 C566 853 530 821 483 821 C430 821 406 851 406 907 L355 907 C331 798 382 739 470 739 L470 739 Z " />
<glyph glyph-name="ebreve" unicode="&#x115;" horiz-adv-x="471" d="M452 367 C452 428 404 471 318 471 C161 471 28 326 28 172 C28 62 100 -10 203 -10 C309 -10 371 45 422 118 L380 148 C338 89 289 56 240 56 C190 56 147 82 147 165 C147 172 147 180 148 188 C358 200 452 277 452 367 L452 367 Z M321 537 C404 537 471 597 497 705 L443 705 C417 651 381 619 334 619 C281 619 257 649 257 705 L206 705 C182 596 233 537 321 537 L321 537 Z M301 416 C331 416 347 394 347 366 C347 304 296 250 157 235 C178 321 231 416 301 416 L301 416 Z " />
<glyph glyph-name="Edotaccent" unicode="&#x116;" horiz-adv-x="673" d="M135 658 L116 583 L218 583 L92 75 L-9 75 L-26 0 L564 0 L625 245 L559 245 C493 107 477 74 385 74 L218 74 L275 302 L328 302 C392 302 400 290 391 203 L454 203 L520 467 L455 467 C417 380 405 370 338 370 L292 370 L345 584 L510 584 C592 584 601 557 604 435 L664 435 L719 658 L135 658 Z M558 819 C558 858 533 881 497 881 C447 881 418 836 418 797 C418 759 443 737 476 737 C527 737 558 782 558 819 L558 819 Z " />
<glyph glyph-name="edotaccent" unicode="&#x117;" horiz-adv-x="471" d="M452 367 C452 428 404 471 318 471 C161 471 28 326 28 172 C28 62 100 -10 203 -10 C309 -10 371 45 422 118 L380 148 C338 89 289 56 240 56 C190 56 147 82 147 165 C147 172 147 180 148 188 C358 200 452 277 452 367 L452 367 Z M301 416 C331 416 347 394 347 366 C347 304 296 250 157 235 C178 321 231 416 301 416 L301 416 Z M409 617 C409 656 384 679 348 679 C298 679 269 634 269 595 C269 557 294 535 327 535 C378 535 409 580 409 617 L409 617 Z " />
<glyph glyph-name="Eogonek" unicode="&#x118;" horiz-adv-x="673" d="M135 658 L116 583 L218 583 L92 75 L-9 75 L-26 0 L437 0 C341 -60 300 -100 300 -156 C300 -215 349 -246 412 -246 C454 -246 492 -230 523 -209 L503 -165 C484 -177 463 -185 443 -185 C406 -185 392 -163 392 -141 C392 -109 411 -78 506 -4 L511 0 L564 0 L625 245 L559 245 C493 107 477 74 385 74 L218 74 L275 302 L328 302 C392 302 400 290 391 203 L454 203 L520 467 L455 467 C417 380 405 370 338 370 L292 370 L345 584 L510 584 C592 584 601 557 604 435 L664 435 L719 658 L135 658 Z " />
<glyph glyph-name="eogonek" unicode="&#x119;" horiz-adv-x="471" d="M380 148 C338 89 289 56 240 56 C190 56 147 82 147 165 C147 172 147 180 148 188 C358 200 452 277 452 367 C452 428 404 471 318 471 C161 471 28 326 28 172 C28 62 100 -10 203 -10 L209 -10 C116 -69 87 -107 87 -156 C87 -215 135 -246 199 -246 C241 -246 279 -230 310 -209 L290 -165 C270 -177 250 -185 230 -185 C193 -185 179 -163 179 -141 C179 -109 199 -77 295 -3 L337 28 C376 58 395 80 422 118 L380 148 Z M301 416 C331 416 347 394 347 366 C347 304 296 250 157 235 C178 321 231 416 301 416 L301 416 Z " />
<glyph glyph-name="Ecaron" unicode="&#x11a;" horiz-adv-x="673" d="M648 932 L580 932 L473 842 L419 932 L357 932 L426 743 L484 743 L648 932 Z M135 658 L116 583 L218 583 L92 75 L-9 75 L-26 0 L564 0 L625 245 L559 245 C493 107 477 74 385 74 L218 74 L275 302 L328 302 C392 302 400 290 391 203 L454 203 L520 467 L455 467 C417 380 405 370 338 370 L292 370 L345 584 L510 584 C592 584 601 557 604 435 L664 435 L719 658 L135 658 Z " />
<glyph glyph-name="ecaron" unicode="&#x11b;" horiz-adv-x="471" d="M452 367 C452 428 404 471 318 471 C161 471 28 326 28 172 C28 62 100 -10 203 -10 C309 -10 371 45 422 118 L380 148 C338 89 289 56 240 56 C190 56 147 82 147 165 C147 172 147 180 148 188 C358 200 452 277 452 367 L452 367 Z M499 730 L431 730 L324 640 L270 730 L208 730 L277 541 L335 541 L499 730 Z M301 416 C331 416 347 394 347 366 C347 304 296 250 157 235 C178 321 231 416 301 416 L301 416 Z " />
<glyph glyph-name="Gbreve" unicode="&#x11e;" horiz-adv-x="715" d="M331 63 C264 63 196 110 196 252 C196 361 257 601 434 601 C511 601 573 558 584 415 L664 415 L727 671 L650 671 L609 593 C575 644 513 674 430 674 C210 674 62 464 62 259 C62 104 148 -16 302 -16 C383 -16 445 24 485 81 L493 -7 L567 -7 L636 260 L718 260 L736 335 L412 335 L393 260 L511 260 L505 236 C480 137 419 63 331 63 L331 63 Z M469 739 C552 739 619 799 645 907 L591 907 C565 853 529 821 482 821 C429 821 405 851 405 907 L354 907 C330 798 381 739 469 739 L469 739 Z " />
<glyph glyph-name="gbreve" unicode="&#x11f;" horiz-adv-x="519" d="M92 -106 C102 -96 113 -76 113 -56 C113 -25 94 2 54 2 C10 2 -14 -38 -14 -72 C-14 -152 84 -170 152 -170 C282 -170 376 -105 419 77 L510 464 L396 464 L377 389 C366 435 326 471 269 471 C214 471 168 449 124 405 C65 346 32 264 32 175 C32 92 80 22 169 22 C223 22 271 49 303 92 L310 89 C289 -1 268 -51 239 -80 C215 -105 187 -116 150 -116 C126 -116 105 -112 92 -106 L92 -106 Z M214 96 C174 96 153 123 153 179 C153 271 205 406 288 406 C324 406 353 372 353 321 C353 217 289 96 214 96 L214 96 Z M338 537 C421 537 488 597 514 705 L460 705 C434 651 398 619 351 619 C298 619 274 649 274 705 L223 705 C199 596 250 537 338 537 L338 537 Z " />
<glyph glyph-name="Gdotaccent" unicode="&#x120;" horiz-adv-x="715" d="M331 63 C264 63 196 110 196 252 C196 361 257 601 434 601 C511 601 573 558 584 415 L664 415 L727 671 L650 671 L609 593 C575 644 513 674 430 674 C210 674 62 464 62 259 C62 104 148 -16 302 -16 C383 -16 445 24 485 81 L493 -7 L567 -7 L636 260 L718 260 L736 335 L412 335 L393 260 L511 260 L505 236 C480 137 419 63 331 63 L331 63 Z M557 819 C557 858 532 881 496 881 C446 881 417 836 417 797 C417 759 442 737 475 737 C526 737 557 782 557 819 L557 819 Z " />
<glyph glyph-name="gdotaccent" unicode="&#x121;" horiz-adv-x="519" d="M92 -106 C102 -96 113 -76 113 -56 C113 -25 94 2 54 2 C10 2 -14 -38 -14 -72 C-14 -152 84 -170 152 -170 C282 -170 376 -105 419 77 L510 464 L396 464 L377 389 C366 435 326 471 269 471 C214 471 168 449 124 405 C65 346 32 264 32 175 C32 92 80 22 169 22 C223 22 271 49 303 92 L310 89 C289 -1 268 -51 239 -80 C215 -105 187 -116 150 -116 C126 -116 105 -112 92 -106 L92 -106 Z M214 96 C174 96 153 123 153 179 C153 271 205 406 288 406 C324 406 353 372 353 321 C353 217 289 96 214 96 L214 96 Z M426 617 C426 656 401 679 365 679 C315 679 286 634 286 595 C286 557 311 535 344 535 C395 535 426 580 426 617 L426 617 Z " />
<glyph glyph-name="Gcommaaccent" unicode="&#x122;" horiz-adv-x="715" d="M163 -337 C281 -302 340 -232 340 -157 C340 -109 313 -71 264 -71 C218 -71 189 -112 189 -150 C189 -185 213 -205 242 -205 C250 -205 258 -203 264 -200 L269 -204 C254 -243 214 -272 148 -296 L163 -337 Z M331 63 C264 63 196 110 196 252 C196 361 257 601 434 601 C511 601 573 558 584 415 L664 415 L727 671 L650 671 L609 593 C575 644 513 674 430 674 C210 674 62 464 62 259 C62 104 148 -16 302 -16 C383 -16 445 24 485 81 L493 -7 L567 -7 L636 260 L718 260 L736 335 L412 335 L393 260 L511 260 L505 236 C480 137 419 63 331 63 L331 63 Z " />
<glyph glyph-name="gcommaaccent" unicode="&#x123;" horiz-adv-x="519" d="M438 800 C320 765 261 695 261 620 C261 572 288 534 337 534 C383 534 412 575 412 613 C412 648 388 668 359 668 C351 668 343 666 337 663 L332 667 C347 706 387 735 453 759 L438 800 Z M92 -106 C102 -96 113 -76 113 -56 C113 -25 94 2 54 2 C10 2 -14 -38 -14 -72 C-14 -152 84 -170 152 -170 C282 -170 376 -105 419 77 L510 464 L396 464 L377 389 C366 435 326 471 269 471 C214 471 168 449 124 405 C65 346 32 264 32 175 C32 92 80 22 169 22 C223 22 271 49 303 92 L310 89 C289 -1 268 -51 239 -80 C215 -105 187 -116 150 -116 C126 -116 105 -112 92 -106 L92 -106 Z M214 96 C174 96 153 123 153 179 C153 271 205 406 288 406 C324 406 353 372 353 321 C353 217 289 96 214 96 L214 96 Z " />
<glyph glyph-name="Hbar" unicode="&#x126;" horiz-adv-x="784" d="M81 439 L182 439 L92 75 L-9 75 L-26 0 L290 0 L308 75 L218 75 L273 294 L543 294 L488 75 L400 75 L382 0 L698 0 L716 75 L614 75 L704 439 L806 439 L823 507 L721 507 L740 583 L841 583 L859 658 L543 658 L525 583 L614 583 L594 503 L325 503 L345 583 L433 583 L451 658 L135 658 L116 583 L218 583 L199 507 L97 507 L81 439 Z M290 363 L309 442 L579 442 L560 363 L290 363 Z " />
<glyph glyph-name="hbar" unicode="&#x127;" horiz-adv-x="568" d="M402 -10 C459 -10 515 36 555 157 L508 172 C481 103 460 71 439 71 C428 71 422 78 422 93 C422 153 495 280 495 364 C495 424 460 468 404 468 C334 468 254 402 189 260 L182 263 L254 504 L380 504 L395 563 L271 563 L309 689 L110 689 L91 614 L174 614 L160 563 L90 563 L75 504 L145 504 L11 0 L131 0 C213 307 306 380 351 380 C368 380 378 370 378 347 C378 280 313 181 313 83 C313 25 348 -10 402 -10 L402 -10 Z " />
<glyph glyph-name="Imacron" unicode="&#x12a;" horiz-adv-x="402" d="M-19 0 L309 0 L327 75 L225 75 L352 583 L452 583 L471 658 L142 658 L123 583 L225 583 L99 75 L-2 75 L-19 0 Z M193 748 L464 748 L486 832 L214 832 L193 748 Z " />
<glyph glyph-name="imacron" unicode="&#x12b;" horiz-adv-x="345" d="M272 370 C272 434 235 471 183 471 C115 471 62 412 19 312 L67 292 C95 354 120 397 148 397 C157 397 163 391 163 375 C163 313 80 179 80 84 C80 24 118 -10 170 -10 C234 -10 290 39 329 157 L282 172 C252 98 230 71 211 71 C198 71 191 78 191 95 C191 153 272 292 272 370 L272 370 Z M66 546 L337 546 L359 630 L87 630 L66 546 Z " />
<glyph glyph-name="Ibreve" unicode="&#x12c;" horiz-adv-x="402" d="M-19 0 L309 0 L327 75 L225 75 L352 583 L452 583 L471 658 L142 658 L123 583 L225 583 L99 75 L-2 75 L-19 0 Z M327 739 C410 739 477 799 503 907 L449 907 C423 853 387 821 340 821 C287 821 263 851 263 907 L212 907 C188 798 239 739 327 739 L327 739 Z " />
<glyph glyph-name="ibreve" unicode="&#x12d;" horiz-adv-x="345" d="M272 370 C272 434 235 471 183 471 C115 471 62 412 19 312 L67 292 C95 354 120 397 148 397 C157 397 163 391 163 375 C163 313 80 179 80 84 C80 24 118 -10 170 -10 C234 -10 290 39 329 157 L282 172 C252 98 230 71 211 71 C198 71 191 78 191 95 C191 153 272 292 272 370 L272 370 Z M200 537 C283 537 350 597 376 705 L322 705 C296 651 260 619 213 619 C160 619 136 649 136 705 L85 705 C61 596 112 537 200 537 L200 537 Z " />
<glyph glyph-name="Iogonek" unicode="&#x12e;" horiz-adv-x="402" d="M-19 0 L126 0 C30 -60 -11 -100 -11 -156 C-11 -215 38 -246 101 -246 C143 -246 181 -230 212 -209 L192 -165 C173 -177 152 -185 132 -185 C95 -185 81 -163 81 -141 C81 -109 100 -78 195 -4 L200 0 L309 0 L327 75 L225 75 L352 583 L452 583 L471 658 L142 658 L123 583 L225 583 L99 75 L-2 75 L-19 0 Z " />
<glyph glyph-name="iogonek" unicode="&#x12f;" horiz-adv-x="345" d="M281 172 C252 98 230 71 210 71 C197 71 190 78 190 95 C190 153 271 292 271 370 C271 434 235 471 183 471 C114 471 62 412 18 312 L66 292 C95 354 119 397 147 397 C157 397 162 391 162 375 C162 313 79 179 79 84 C79 29 110 1 145 -7 C57 -62 21 -104 21 -156 C21 -215 69 -246 133 -246 C175 -246 213 -230 244 -209 L224 -165 C204 -177 184 -185 164 -185 C127 -185 113 -163 113 -141 C113 -111 124 -80 224 -2 C280 42 305 88 329 157 L281 172 Z M324 629 C324 669 298 693 260 693 C208 693 176 646 176 605 C176 565 203 541 238 541 C291 541 324 589 324 629 L324 629 Z " />
<glyph glyph-name="Idotaccent" unicode="&#x130;" horiz-adv-x="402" d="M-19 0 L309 0 L327 75 L225 75 L352 583 L452 583 L471 658 L142 658 L123 583 L225 583 L99 75 L-2 75 L-19 0 Z M415 819 C415 858 390 881 354 881 C304 881 275 836 275 797 C275 759 300 737 333 737 C384 737 415 782 415 819 L415 819 Z " />
<glyph glyph-name="dotlessi" unicode="&#x131;" horiz-adv-x="345" d="M272 370 C272 434 235 471 183 471 C115 471 62 412 19 312 L67 292 C95 354 120 397 148 397 C157 397 163 391 163 375 C163 313 80 179 80 84 C80 24 118 -10 170 -10 C234 -10 290 39 329 157 L282 172 C252 98 230 71 211 71 C198 71 191 78 191 95 C191 153 272 292 272 370 L272 370 Z " />
<glyph glyph-name="Kcommaaccent" unicode="&#x136;" horiz-adv-x="715" d="M187 -337 C305 -302 364 -232 364 -157 C364 -109 337 -71 288 -71 C242 -71 213 -112 213 -150 C213 -185 237 -205 266 -205 C274 -205 282 -203 288 -200 L293 -204 C278 -243 238 -272 172 -296 L187 -337 Z M698 583 L775 583 L793 658 L525 658 L506 584 L587 584 L280 324 L345 584 L431 584 L450 658 L135 658 L116 583 L218 583 L92 75 L-9 75 L-26 0 L287 0 L305 74 L218 74 L256 225 L355 306 L457 74 L378 74 L360 0 L664 0 L682 75 L596 75 L451 383 L698 583 Z " />
<glyph glyph-name="kcommaaccent" unicode="&#x137;" horiz-adv-x="529" d="M373 98 C373 116 381 145 381 174 C381 221 358 252 287 258 C317 274 333 295 353 332 C376 370 391 387 405 390 C391 349 412 314 452 314 C493 314 520 356 520 398 C520 441 494 471 446 471 C387 471 354 430 321 376 C277 303 255 273 202 273 L197 273 L309 689 L110 689 L90 611 L173 611 L11 0 L124 0 L185 228 L187 228 C260 228 276 219 276 182 C276 160 265 120 265 92 C265 27 302 -10 358 -10 C416 -10 468 36 506 157 L459 172 C433 103 414 71 392 71 C381 71 373 78 373 98 L373 98 Z M79 -336 C197 -301 256 -231 256 -156 C256 -108 229 -70 180 -70 C134 -70 105 -111 105 -149 C105 -184 129 -204 158 -204 C166 -204 174 -202 180 -199 L185 -203 C170 -242 130 -271 64 -295 L79 -336 Z " />
<glyph glyph-name="Lacute" unicode="&#x139;" horiz-adv-x="603" d="M417 810 C462 847 479 862 479 891 C479 915 459 942 428 942 C395 942 376 914 348 870 L265 736 L324 736 L417 810 Z M135 658 L116 583 L218 583 L92 75 L-9 75 L-26 0 L516 0 L578 249 L516 249 C450 110 430 74 336 74 L218 74 L345 584 L450 584 L468 658 L135 658 Z " />
<glyph glyph-name="lacute" unicode="&#x13a;" horiz-adv-x="305" d="M341 832 C386 869 403 884 403 913 C403 937 383 964 352 964 C319 964 300 936 272 892 L189 758 L248 758 L341 832 Z M40 84 C40 25 74 -10 133 -10 C196 -10 249 36 289 157 L242 172 C216 103 195 71 171 71 C161 71 151 77 151 95 C151 110 159 143 166 168 L308 689 L109 689 L89 611 L173 611 L67 221 C51 162 40 114 40 84 L40 84 Z " />
<glyph glyph-name="Lcommaaccent" unicode="&#x13b;" horiz-adv-x="603" d="M141 -337 C259 -302 318 -232 318 -157 C318 -109 291 -71 242 -71 C196 -71 167 -112 167 -150 C167 -185 191 -205 220 -205 C228 -205 236 -203 242 -200 L247 -204 C232 -243 192 -272 126 -296 L141 -337 Z M135 658 L116 583 L218 583 L92 75 L-9 75 L-26 0 L516 0 L578 249 L516 249 C450 110 430 74 336 74 L218 74 L345 584 L450 584 L468 658 L135 658 Z " />
<glyph glyph-name="lcommaaccent" unicode="&#x13c;" horiz-adv-x="305" d="M-4 -337 C114 -302 173 -232 173 -157 C173 -109 146 -71 97 -71 C51 -71 22 -112 22 -150 C22 -185 46 -205 75 -205 C83 -205 91 -203 97 -200 L102 -204 C87 -243 47 -272 -19 -296 L-4 -337 Z M40 84 C40 25 74 -10 133 -10 C196 -10 249 36 289 157 L242 172 C216 103 195 71 171 71 C161 71 151 77 151 95 C151 110 159 143 166 168 L308 689 L109 689 L89 611 L173 611 L67 221 C51 162 40 114 40 84 L40 84 Z " />
<glyph glyph-name="Lcaron" unicode="&#x13d;" horiz-adv-x="603" d="M606 599 C631 640 644 659 644 685 C644 712 622 734 594 734 C560 734 541 711 530 655 L496 495 L543 495 L606 599 Z M135 658 L116 583 L218 583 L92 75 L-9 75 L-26 0 L516 0 L578 249 L516 249 C450 110 430 74 336 74 L218 74 L345 584 L450 584 L468 658 L135 658 Z " />
<glyph glyph-name="lcaron" unicode="&#x13e;" horiz-adv-x="305" d="M451 635 C476 676 489 695 489 721 C489 748 467 770 439 770 C405 770 386 747 375 691 L341 531 L388 531 L451 635 Z M40 84 C40 25 74 -10 133 -10 C196 -10 249 36 289 157 L242 172 C216 103 195 71 171 71 C161 71 151 77 151 95 C151 110 159 143 166 168 L308 689 L109 689 L89 611 L173 611 L67 221 C51 162 40 114 40 84 L40 84 Z " />
<glyph glyph-name="Ldot" unicode="&#x13f;" horiz-adv-x="603" d="M135 658 L116 583 L218 583 L92 75 L-9 75 L-26 0 L516 0 L575 236 L513 236 C450 110 430 74 336 74 L218 74 L345 584 L450 584 L468 658 L135 658 Z M492 302 C543 302 573 346 573 383 C573 420 548 443 512 443 C463 443 433 400 433 361 C433 324 459 302 492 302 L492 302 Z " />
<glyph glyph-name="ldot" unicode="&#x140;" horiz-adv-x="374" d="M413 358 C413 395 389 417 355 417 C306 417 278 373 278 336 C278 299 302 278 334 278 C383 278 413 321 413 358 L413 358 Z M40 84 C40 25 74 -10 133 -10 C196 -10 249 36 289 157 L242 172 C216 103 195 71 171 71 C161 71 151 77 151 95 C151 110 159 143 166 168 L308 689 L109 689 L89 611 L173 611 L67 221 C51 162 40 114 40 84 L40 84 Z " />
<glyph glyph-name="Lslash" unicode="&#x141;" horiz-adv-x="605" d="M136 658 L117 583 L219 583 L159 339 L67 311 L49 237 L140 265 L93 75 L-8 75 L-25 0 L517 0 L579 249 L517 249 C451 110 431 74 337 74 L219 74 L277 308 L461 366 L478 439 L296 382 L346 584 L451 584 L469 658 L136 658 Z " />
<glyph glyph-name="lslash" unicode="&#x142;" horiz-adv-x="337" d="M56 84 C56 25 90 -10 149 -10 C212 -10 265 36 305 157 L258 172 C232 103 211 71 187 71 C177 71 167 77 167 95 C167 110 175 143 182 168 L228 337 L334 370 L351 435 L246 403 L324 689 L125 689 L105 611 L189 611 L122 366 L24 336 L8 270 L104 299 L83 221 C67 162 56 114 56 84 L56 84 Z " />
<glyph glyph-name="Nacute" unicode="&#x143;" horiz-adv-x="774" d="M607 810 C652 847 669 862 669 891 C669 915 649 942 618 942 C585 942 566 914 538 870 L455 736 L514 736 L607 810 Z M501 -13 L598 -13 L747 583 L840 583 L859 658 L588 658 L570 583 L666 583 L567 184 L558 184 L370 658 L141 658 L123 583 L217 583 L91 75 L-2 75 L-20 0 L250 0 L268 75 L171 75 L282 520 L291 520 L501 -13 Z " />
<glyph glyph-name="nacute" unicode="&#x144;" horiz-adv-x="602" d="M469 608 C514 645 531 660 531 689 C531 713 511 740 480 740 C447 740 428 712 400 668 L317 534 L376 534 L469 608 Z M456 93 C456 154 530 282 530 367 C530 427 495 471 439 471 C368 471 294 404 228 263 L221 266 C236 312 242 348 242 377 C242 439 212 470 169 470 C102 470 52 412 9 312 L56 292 C85 354 111 397 134 397 C152 397 155 381 140 324 L54 0 L174 0 C254 307 340 383 386 383 C403 383 413 373 413 350 C413 282 347 183 347 83 C347 25 382 -10 436 -10 C493 -10 549 36 589 157 L542 172 C515 103 494 71 473 71 C462 71 456 78 456 93 L456 93 Z " />
<glyph glyph-name="Ncommaaccent" unicode="&#x145;" horiz-adv-x="774" d="M209 -337 C327 -302 386 -232 386 -157 C386 -109 359 -71 310 -71 C264 -71 235 -112 235 -150 C235 -185 259 -205 288 -205 C296 -205 304 -203 310 -200 L315 -204 C300 -243 260 -272 194 -296 L209 -337 Z M501 -13 L598 -13 L747 583 L840 583 L859 658 L588 658 L570 583 L666 583 L567 184 L558 184 L370 658 L141 658 L123 583 L217 583 L91 75 L-2 75 L-20 0 L250 0 L268 75 L171 75 L282 520 L291 520 L501 -13 Z " />
<glyph glyph-name="ncommaaccent" unicode="&#x146;" horiz-adv-x="602" d="M141 -334 C259 -299 318 -229 318 -154 C318 -106 291 -68 242 -68 C196 -68 167 -109 167 -147 C167 -182 191 -202 220 -202 C228 -202 236 -200 242 -197 L247 -201 C232 -240 192 -269 126 -293 L141 -334 Z M456 93 C456 154 530 282 530 367 C530 427 495 471 439 471 C368 471 294 404 228 263 L221 266 C236 312 242 348 242 377 C242 439 212 470 169 470 C102 470 52 412 9 312 L56 292 C85 354 111 397 134 397 C152 397 155 381 140 324 L54 0 L174 0 C254 307 340 383 386 383 C403 383 413 373 413 350 C413 282 347 183 347 83 C347 25 382 -10 436 -10 C493 -10 549 36 589 157 L542 172 C515 103 494 71 473 71 C462 71 456 78 456 93 L456 93 Z " />
<glyph glyph-name="Ncaron" unicode="&#x147;" horiz-adv-x="774" d="M688 932 L620 932 L513 842 L459 932 L397 932 L466 743 L524 743 L688 932 Z M501 -13 L598 -13 L747 583 L840 583 L859 658 L588 658 L570 583 L666 583 L567 184 L558 184 L370 658 L141 658 L123 583 L217 583 L91 75 L-2 75 L-20 0 L250 0 L268 75 L171 75 L282 520 L291 520 L501 -13 Z " />
<glyph glyph-name="ncaron" unicode="&#x148;" horiz-adv-x="602" d="M550 730 L482 730 L375 640 L321 730 L259 730 L328 541 L386 541 L550 730 Z M456 93 C456 154 530 282 530 367 C530 427 495 471 439 471 C368 471 294 404 228 263 L221 266 C236 312 242 348 242 377 C242 439 212 470 169 470 C102 470 52 412 9 312 L56 292 C85 354 111 397 134 397 C152 397 155 381 140 324 L54 0 L174 0 C254 307 340 383 386 383 C403 383 413 373 413 350 C413 282 347 183 347 83 C347 25 382 -10 436 -10 C493 -10 549 36 589 157 L542 172 C515 103 494 71 473 71 C462 71 456 78 456 93 L456 93 Z " />
<glyph glyph-name="Omacron" unicode="&#x14c;" horiz-adv-x="720" d="M348 748 L619 748 L641 832 L369 832 L348 748 Z M62 273 C62 101 178 -16 342 -16 C564 -16 709 192 709 385 C709 557 594 674 430 674 C207 674 62 466 62 273 L62 273 Z M425 601 C518 601 576 545 576 429 C576 300 510 57 347 57 C253 57 196 113 196 229 C196 358 261 601 425 601 L425 601 Z " />
<glyph glyph-name="omacron" unicode="&#x14d;" horiz-adv-x="510" d="M188 546 L459 546 L481 630 L209 630 L188 546 Z M292 471 C153 471 28 340 28 184 C28 71 103 -10 218 -10 C357 -10 482 122 482 278 C482 391 407 471 292 471 L292 471 Z M363 325 C363 228 310 46 217 46 C174 46 147 73 147 137 C147 234 200 416 293 416 C336 416 363 389 363 325 L363 325 Z " />
<glyph glyph-name="Obreve" unicode="&#x14e;" horiz-adv-x="720" d="M62 273 C62 101 178 -16 342 -16 C564 -16 709 192 709 385 C709 557 594 674 430 674 C207 674 62 466 62 273 L62 273 Z M425 601 C518 601 576 545 576 429 C576 300 510 57 347 57 C253 57 196 113 196 229 C196 358 261 601 425 601 L425 601 Z M482 739 C565 739 632 799 658 907 L604 907 C578 853 542 821 495 821 C442 821 418 851 418 907 L367 907 C343 798 394 739 482 739 L482 739 Z " />
<glyph glyph-name="obreve" unicode="&#x14f;" horiz-adv-x="510" d="M292 471 C153 471 28 340 28 184 C28 71 103 -10 218 -10 C357 -10 482 122 482 278 C482 391 407 471 292 471 L292 471 Z M363 325 C363 228 310 46 217 46 C174 46 147 73 147 137 C147 234 200 416 293 416 C336 416 363 389 363 325 L363 325 Z M322 537 C405 537 472 597 498 705 L444 705 C418 651 382 619 335 619 C282 619 258 649 258 705 L207 705 C183 596 234 537 322 537 L322 537 Z " />
<glyph glyph-name="Ohungarumlaut" unicode="&#x150;" horiz-adv-x="720" d="M496 810 C540 847 554 861 554 891 C554 915 533 942 502 942 C470 942 452 915 427 870 L351 736 L409 736 L496 810 Z M666 810 C711 847 727 863 727 892 C727 916 709 942 678 942 C646 942 625 915 599 870 L517 736 L575 736 L666 810 Z M62 273 C62 101 178 -16 342 -16 C564 -16 709 192 709 385 C709 557 594 674 430 674 C207 674 62 466 62 273 L62 273 Z M425 601 C518 601 576 545 576 429 C576 300 510 57 347 57 C253 57 196 113 196 229 C196 358 261 601 425 601 L425 601 Z " />
<glyph glyph-name="ohungarumlaut" unicode="&#x151;" horiz-adv-x="510" d="M337 608 C381 645 395 659 395 689 C395 713 374 740 343 740 C311 740 293 713 268 668 L192 534 L250 534 L337 608 Z M507 608 C552 645 568 661 568 690 C568 714 550 740 519 740 C487 740 466 713 440 668 L358 534 L416 534 L507 608 Z M292 471 C153 471 28 340 28 184 C28 71 103 -10 218 -10 C357 -10 482 122 482 278 C482 391 407 471 292 471 L292 471 Z M363 325 C363 228 310 46 217 46 C174 46 147 73 147 137 C147 234 200 416 293 416 C336 416 363 389 363 325 L363 325 Z " />
<glyph glyph-name="OE" unicode="&#x152;" horiz-adv-x="1004" d="M505 658 C353 658 241 612 165 536 C88 460 49 353 49 257 C49 109 159 0 367 0 L895 0 L956 245 L890 245 C824 107 807 74 715 74 L548 74 L605 302 L659 302 C722 302 730 290 722 203 L784 203 L850 467 L785 467 C748 380 735 370 668 370 L622 370 L675 584 L840 584 C923 584 931 557 934 435 L994 435 L1050 658 L505 658 Z M549 584 L422 74 L368 74 C247 74 187 129 187 235 C187 331 230 454 289 513 C341 565 402 584 493 584 L549 584 Z " />
<glyph glyph-name="oe" unicode="&#x153;" horiz-adv-x="784" d="M693 148 C652 89 603 56 554 56 C504 56 460 82 460 165 C460 172 460 180 461 188 C671 200 766 277 766 367 C766 428 718 471 633 471 C561 471 493 437 445 382 C415 443 361 471 292 471 C153 471 28 340 28 184 C28 71 104 -10 215 -10 C277 -10 335 17 380 71 C407 16 461 -10 524 -10 C622 -10 685 45 736 118 L693 148 Z M363 325 C363 228 310 46 217 46 C174 46 147 73 147 137 C147 234 200 416 293 416 C336 416 363 389 363 325 L363 325 Z M614 416 C644 416 660 394 660 366 C660 304 609 250 470 235 C491 321 545 416 614 416 L614 416 Z " />
<glyph glyph-name="Racute" unicode="&#x154;" horiz-adv-x="688" d="M559 810 C604 847 621 862 621 891 C621 915 601 942 570 942 C537 942 518 914 490 870 L407 736 L466 736 L559 810 Z M-26 0 L300 0 L318 75 L218 75 L271 288 L358 288 C427 288 448 266 448 229 C448 181 428 124 428 81 C428 19 472 -12 542 -12 C598 -12 642 14 676 56 L649 95 C626 73 610 67 595 67 C573 67 560 74 560 102 C560 130 570 169 570 201 C570 261 541 298 453 316 L456 324 C612 338 676 418 676 510 C676 583 625 658 457 658 L135 658 L116 583 L218 583 L92 75 L-9 75 L-26 0 Z M289 358 L345 584 L433 584 C509 584 536 553 537 506 C537 465 522 422 497 398 C470 371 428 358 371 358 L289 358 Z " />
<glyph glyph-name="racute" unicode="&#x155;" horiz-adv-x="470" d="M403 608 C448 645 465 660 465 689 C465 713 445 740 414 740 C381 740 362 712 334 668 L251 534 L310 534 L403 608 Z M54 0 L174 0 C246 273 318 358 347 370 C345 328 372 305 407 305 C447 305 479 345 479 395 C479 442 448 471 406 471 C336 471 288 398 230 266 L222 269 C236 313 242 348 242 377 C242 439 212 470 169 470 C102 470 52 412 9 312 L56 292 C85 354 111 397 134 397 C152 397 155 381 140 324 L54 0 Z " />
<glyph glyph-name="Rcommaaccent" unicode="&#x156;" horiz-adv-x="688" d="M193 -337 C311 -302 370 -232 370 -157 C370 -109 343 -71 294 -71 C248 -71 219 -112 219 -150 C219 -185 243 -205 272 -205 C280 -205 288 -203 294 -200 L299 -204 C284 -243 244 -272 178 -296 L193 -337 Z M-26 0 L300 0 L318 75 L218 75 L271 288 L358 288 C427 288 448 266 448 229 C448 181 428 124 428 81 C428 19 472 -12 542 -12 C598 -12 642 14 676 56 L649 95 C626 73 610 67 595 67 C573 67 560 74 560 102 C560 130 570 169 570 201 C570 261 541 298 453 316 L456 324 C612 338 676 418 676 510 C676 583 625 658 457 658 L135 658 L116 583 L218 583 L92 75 L-9 75 L-26 0 Z M289 358 L345 584 L433 584 C509 584 536 553 537 506 C537 465 522 422 497 398 C470 371 428 358 371 358 L289 358 Z " />
<glyph glyph-name="rcommaaccent" unicode="&#x157;" horiz-adv-x="470" d="M-9 -337 C109 -302 168 -232 168 -157 C168 -109 141 -71 92 -71 C46 -71 17 -112 17 -150 C17 -185 41 -205 70 -205 C78 -205 86 -203 92 -200 L97 -204 C82 -243 42 -272 -24 -296 L-9 -337 Z M54 0 L174 0 C246 273 318 358 347 370 C345 328 372 305 407 305 C447 305 479 345 479 395 C479 442 448 471 406 471 C336 471 288 398 230 266 L222 269 C236 313 242 348 242 377 C242 439 212 470 169 470 C102 470 52 412 9 312 L56 292 C85 354 111 397 134 397 C152 397 155 381 140 324 L54 0 Z " />
<glyph glyph-name="Rcaron" unicode="&#x158;" horiz-adv-x="688" d="M639 932 L571 932 L464 842 L410 932 L348 932 L417 743 L475 743 L639 932 Z M-26 0 L300 0 L318 75 L218 75 L271 288 L358 288 C427 288 448 266 448 229 C448 181 428 124 428 81 C428 19 472 -12 542 -12 C598 -12 642 14 676 56 L649 95 C626 73 610 67 595 67 C573 67 560 74 560 102 C560 130 570 169 570 201 C570 261 541 298 453 316 L456 324 C612 338 676 418 676 510 C676 583 625 658 457 658 L135 658 L116 583 L218 583 L92 75 L-9 75 L-26 0 Z M289 358 L345 584 L433 584 C509 584 536 553 537 506 C537 465 522 422 497 398 C470 371 428 358 371 358 L289 358 Z " />
<glyph glyph-name="rcaron" unicode="&#x159;" horiz-adv-x="470" d="M483 730 L415 730 L308 640 L254 730 L192 730 L261 541 L319 541 L483 730 Z M54 0 L174 0 C246 273 318 358 347 370 C345 328 372 305 407 305 C447 305 479 345 479 395 C479 442 448 471 406 471 C336 471 288 398 230 266 L222 269 C236 313 242 348 242 377 C242 439 212 470 169 470 C102 470 52 412 9 312 L56 292 C85 354 111 397 134 397 C152 397 155 381 140 324 L54 0 Z " />
<glyph glyph-name="Sacute" unicode="&#x15a;" horiz-adv-x="587" d="M519 810 C564 847 581 862 581 891 C581 915 561 942 530 942 C497 942 478 914 450 870 L367 736 L426 736 L519 810 Z M-9 -13 L66 -13 L110 64 C148 16 213 -16 300 -16 C437 -16 546 78 546 201 C546 306 458 348 376 383 C304 415 236 442 236 505 C236 557 282 604 347 604 C433 604 483 558 504 434 L574 434 L633 671 L558 671 L517 598 C484 645 418 674 347 674 C214 674 113 574 113 462 C113 356 204 312 287 275 C358 242 424 215 424 157 C424 105 378 55 299 55 C211 55 141 114 122 234 L51 234 L-9 -13 Z " />
<glyph glyph-name="sacute" unicode="&#x15b;" horiz-adv-x="442" d="M400 608 C445 645 462 660 462 689 C462 713 442 740 411 740 C378 740 359 712 331 668 L248 534 L307 534 L400 608 Z M389 147 C389 216 332 244 279 268 C221 295 179 314 179 354 C179 396 214 421 262 421 C292 421 321 411 331 402 C317 390 307 369 307 349 C307 320 329 294 366 294 C404 294 430 327 430 366 C430 426 360 471 258 471 C171 471 70 422 70 317 C70 249 128 220 187 193 C238 170 279 151 279 113 C279 67 247 42 196 42 C160 42 127 53 110 68 C123 79 134 99 134 123 C134 150 114 178 75 178 C35 178 9 145 9 106 C9 30 106 -10 200 -10 C299 -10 389 43 389 147 L389 147 Z " />
<glyph glyph-name="Scedilla" unicode="&#x15e;" horiz-adv-x="587" d="M130 -164 L99 -204 C132 -231 180 -246 220 -246 C303 -246 344 -199 344 -148 C344 -104 309 -76 259 -67 L259 -63 L314 -16 C444 -9 546 82 546 201 C546 306 458 348 376 383 C304 415 236 442 236 505 C236 557 282 604 347 604 C433 604 483 558 504 434 L574 434 L633 671 L558 671 L517 598 C484 645 418 674 347 674 C214 674 113 574 113 462 C113 356 204 312 287 275 C358 242 424 215 424 157 C424 105 378 55 299 55 C211 55 141 114 122 234 L51 234 L-9 -13 L66 -13 L110 64 C140 26 187 -2 249 -12 L158 -87 L171 -118 C220 -114 259 -126 259 -156 C259 -178 240 -192 213 -192 C180 -192 155 -181 130 -164 L130 -164 Z " />
<glyph glyph-name="scedilla" unicode="&#x15f;" horiz-adv-x="442" d="M41 -164 L10 -204 C43 -231 91 -246 131 -246 C214 -246 255 -199 255 -148 C255 -104 220 -76 170 -67 L170 -63 L235 -7 C319 3 389 55 389 147 C389 216 332 244 279 268 C221 295 179 314 179 354 C179 396 214 421 262 421 C292 421 321 411 331 402 C317 390 307 369 307 349 C307 320 329 294 366 294 C404 294 430 327 430 366 C430 426 360 471 258 471 C171 471 70 422 70 317 C70 249 128 220 187 193 C238 170 279 151 279 113 C279 67 247 42 196 42 C160 42 127 53 110 68 C123 79 134 99 134 123 C134 150 114 178 75 178 C35 178 9 145 9 106 C9 39 84 0 165 -8 L69 -87 L82 -118 C131 -114 170 -126 170 -156 C170 -178 151 -192 124 -192 C91 -192 66 -181 41 -164 L41 -164 Z " />
<glyph glyph-name="Scaron" unicode="&#x160;" horiz-adv-x="587" d="M600 932 L532 932 L425 842 L371 932 L309 932 L378 743 L436 743 L600 932 Z M-9 -13 L66 -13 L110 64 C148 16 213 -16 300 -16 C437 -16 546 78 546 201 C546 306 458 348 376 383 C304 415 236 442 236 505 C236 557 282 604 347 604 C433 604 483 558 504 434 L574 434 L633 671 L558 671 L517 598 C484 645 418 674 347 674 C214 674 113 574 113 462 C113 356 204 312 287 275 C358 242 424 215 424 157 C424 105 378 55 299 55 C211 55 141 114 122 234 L51 234 L-9 -13 Z " />
<glyph glyph-name="scaron" unicode="&#x161;" horiz-adv-x="442" d="M480 730 L412 730 L305 640 L251 730 L189 730 L258 541 L316 541 L480 730 Z M389 147 C389 216 332 244 279 268 C221 295 179 314 179 354 C179 396 214 421 262 421 C292 421 321 411 331 402 C317 390 307 369 307 349 C307 320 329 294 366 294 C404 294 430 327 430 366 C430 426 360 471 258 471 C171 471 70 422 70 317 C70 249 128 220 187 193 C238 170 279 151 279 113 C279 67 247 42 196 42 C160 42 127 53 110 68 C123 79 134 99 134 123 C134 150 114 178 75 178 C35 178 9 145 9 106 C9 30 106 -10 200 -10 C299 -10 389 43 389 147 L389 147 Z " />
<glyph glyph-name="Tcommaaccent" unicode="&#x162;" horiz-adv-x="676" d="M148 -337 C266 -302 325 -232 325 -157 C325 -109 298 -71 249 -71 C203 -71 174 -112 174 -150 C174 -185 198 -205 227 -205 C235 -205 243 -203 249 -200 L254 -204 C239 -243 199 -272 133 -296 L148 -337 Z M106 0 L453 0 L471 75 L361 75 L490 594 L525 594 C607 594 617 564 622 411 L679 411 L741 658 L141 658 L78 411 L140 411 C225 568 246 594 326 594 L361 594 L232 75 L124 75 L106 0 Z " />
<glyph glyph-name="tcommaaccent" unicode="&#x163;" horiz-adv-x="388" d="M36 -337 C154 -302 213 -232 213 -157 C213 -109 186 -71 137 -71 C91 -71 62 -112 62 -150 C62 -185 86 -205 115 -205 C123 -205 131 -203 137 -200 L142 -204 C127 -243 87 -272 21 -296 L36 -337 Z M389 389 L405 450 L263 450 L299 583 L180 570 L147 450 L59 450 L43 389 L131 389 L77 190 C70 162 59 120 59 91 C59 23 106 -10 172 -10 C226 -10 303 24 352 166 L304 182 C276 118 246 74 210 74 C189 74 175 83 175 110 C175 122 180 145 187 170 L247 389 L389 389 Z " />
<glyph glyph-name="Tcaron" unicode="&#x164;" horiz-adv-x="676" d="M640 932 L572 932 L465 842 L411 932 L349 932 L418 743 L476 743 L640 932 Z M106 0 L453 0 L471 75 L361 75 L490 594 L525 594 C607 594 617 564 622 411 L679 411 L741 658 L141 658 L78 411 L140 411 C225 568 246 594 326 594 L361 594 L232 75 L124 75 L106 0 Z " />
<glyph glyph-name="tcaron" unicode="&#x165;" horiz-adv-x="388" d="M454 635 C479 676 492 695 492 721 C492 748 470 770 442 770 C408 770 389 747 378 691 L344 531 L391 531 L454 635 Z M389 389 L405 450 L263 450 L299 583 L180 570 L147 450 L59 450 L43 389 L131 389 L77 190 C70 162 59 120 59 91 C59 23 106 -10 172 -10 C226 -10 303 24 352 166 L304 182 C276 118 246 74 210 74 C189 74 175 83 175 110 C175 122 180 145 187 170 L247 389 L389 389 Z " />
<glyph glyph-name="Umacron" unicode="&#x16a;" horiz-adv-x="735" d="M351 -17 C442 -17 504 12 545 53 C587 95 607 145 620 198 L716 583 L804 583 L822 658 L559 658 L540 583 L634 583 L545 224 C532 174 513 135 487 109 C458 80 417 66 372 66 C291 66 232 103 232 179 C232 201 235 224 241 250 L324 583 L415 583 L434 658 L125 658 L106 583 L198 583 L116 256 C109 228 104 194 104 167 C104 64 188 -17 351 -17 L351 -17 Z M375 748 L646 748 L668 832 L396 832 L375 748 Z " />
<glyph glyph-name="umacron" unicode="&#x16b;" horiz-adv-x="600" d="M445 -10 C502 -10 556 35 595 157 L547 172 C524 105 503 71 480 71 C466 71 457 80 457 97 C457 110 460 127 468 154 L550 464 L430 464 C348 152 265 78 220 78 C203 78 192 89 192 117 C192 181 258 287 258 380 C258 438 227 471 174 471 C105 471 52 412 11 313 L58 293 C94 368 111 390 132 390 C141 390 147 383 147 369 C147 312 76 179 76 95 C76 33 112 -10 167 -10 C239 -10 309 56 375 201 L382 198 C366 147 360 109 360 84 C360 19 393 -10 445 -10 L445 -10 Z M213 546 L484 546 L506 630 L234 630 L213 546 Z " />
<glyph glyph-name="Ubreve" unicode="&#x16c;" horiz-adv-x="735" d="M351 -17 C442 -17 504 12 545 53 C587 95 607 145 620 198 L716 583 L804 583 L822 658 L559 658 L540 583 L634 583 L545 224 C532 174 513 135 487 109 C458 80 417 66 372 66 C291 66 232 103 232 179 C232 201 235 224 241 250 L324 583 L415 583 L434 658 L125 658 L106 583 L198 583 L116 256 C109 228 104 194 104 167 C104 64 188 -17 351 -17 L351 -17 Z M509 739 C592 739 659 799 685 907 L631 907 C605 853 569 821 522 821 C469 821 445 851 445 907 L394 907 C370 798 421 739 509 739 L509 739 Z " />
<glyph glyph-name="ubreve" unicode="&#x16d;" horiz-adv-x="600" d="M445 -10 C502 -10 556 35 595 157 L547 172 C524 105 503 71 480 71 C466 71 457 80 457 97 C457 110 460 127 468 154 L550 464 L430 464 C348 152 265 78 220 78 C203 78 192 89 192 117 C192 181 258 287 258 380 C258 438 227 471 174 471 C105 471 52 412 11 313 L58 293 C94 368 111 390 132 390 C141 390 147 383 147 369 C147 312 76 179 76 95 C76 33 112 -10 167 -10 C239 -10 309 56 375 201 L382 198 C366 147 360 109 360 84 C360 19 393 -10 445 -10 L445 -10 Z M346 534 C429 534 496 594 522 702 L468 702 C442 648 406 616 359 616 C306 616 282 646 282 702 L231 702 C207 593 258 534 346 534 L346 534 Z " />
<glyph glyph-name="Uring" unicode="&#x16e;" horiz-adv-x="735" d="M647 851 C647 902 610 946 543 946 C470 946 420 890 420 824 C420 775 457 730 524 730 C597 730 647 786 647 851 L647 851 Z M480 823 C480 858 500 904 540 904 C570 904 587 884 587 854 C587 818 567 772 527 772 C497 772 480 793 480 823 L480 823 Z M351 -17 C442 -17 504 12 545 53 C587 95 607 145 620 198 L716 583 L804 583 L822 658 L559 658 L540 583 L634 583 L545 224 C532 174 513 135 487 109 C458 80 417 66 372 66 C291 66 232 103 232 179 C232 201 235 224 241 250 L324 583 L415 583 L434 658 L125 658 L106 583 L198 583 L116 256 C109 228 104 194 104 167 C104 64 188 -17 351 -17 L351 -17 Z " />
<glyph glyph-name="uring" unicode="&#x16f;" horiz-adv-x="600" d="M486 649 C486 700 449 744 382 744 C309 744 259 688 259 622 C259 573 296 528 363 528 C436 528 486 584 486 649 L486 649 Z M319 621 C319 656 339 702 379 702 C409 702 426 682 426 652 C426 616 406 570 366 570 C336 570 319 591 319 621 L319 621 Z M445 -10 C502 -10 556 35 595 157 L547 172 C524 105 503 71 480 71 C466 71 457 80 457 97 C457 110 460 127 468 154 L550 464 L430 464 C348 152 265 78 220 78 C203 78 192 89 192 117 C192 181 258 287 258 380 C258 438 227 471 174 471 C105 471 52 412 11 313 L58 293 C94 368 111 390 132 390 C141 390 147 383 147 369 C147 312 76 179 76 95 C76 33 112 -10 167 -10 C239 -10 309 56 375 201 L382 198 C366 147 360 109 360 84 C360 19 393 -10 445 -10 L445 -10 Z " />
<glyph glyph-name="Uhungarumlaut" unicode="&#x170;" horiz-adv-x="735" d="M351 -17 C442 -17 504 12 545 53 C587 95 607 145 620 198 L716 583 L804 583 L822 658 L559 658 L540 583 L634 583 L545 224 C532 174 513 135 487 109 C458 80 417 66 372 66 C291 66 232 103 232 179 C232 201 235 224 241 250 L324 583 L415 583 L434 658 L125 658 L106 583 L198 583 L116 256 C109 228 104 194 104 167 C104 64 188 -17 351 -17 L351 -17 Z M524 810 C568 847 582 861 582 891 C582 915 561 942 530 942 C498 942 480 915 455 870 L379 736 L437 736 L524 810 Z M694 810 C739 847 755 863 755 892 C755 916 737 942 706 942 C674 942 653 915 627 870 L545 736 L603 736 L694 810 Z " />
<glyph glyph-name="uhungarumlaut" unicode="&#x171;" horiz-adv-x="600" d="M445 -10 C502 -10 556 35 595 157 L547 172 C524 105 503 71 480 71 C466 71 457 80 457 97 C457 110 460 127 468 154 L550 464 L430 464 C348 152 265 78 220 78 C203 78 192 89 192 117 C192 181 258 287 258 380 C258 438 227 471 174 471 C105 471 52 412 11 313 L58 293 C94 368 111 390 132 390 C141 390 147 383 147 369 C147 312 76 179 76 95 C76 33 112 -10 167 -10 C239 -10 309 56 375 201 L382 198 C366 147 360 109 360 84 C360 19 393 -10 445 -10 L445 -10 Z M362 608 C406 645 420 659 420 689 C420 713 399 740 368 740 C336 740 318 713 293 668 L217 534 L275 534 L362 608 Z M532 608 C577 645 593 661 593 690 C593 714 575 740 544 740 C512 740 491 713 465 668 L383 534 L441 534 L532 608 Z " />
<glyph glyph-name="Uogonek" unicode="&#x172;" horiz-adv-x="735" d="M397 -209 L377 -165 C358 -177 337 -185 317 -185 C280 -185 266 -163 266 -141 C266 -111 283 -81 363 -17 C447 -14 506 14 545 53 C587 95 607 145 620 198 L716 583 L804 583 L822 658 L559 658 L540 583 L634 583 L545 224 C532 174 513 135 487 109 C458 80 417 66 372 66 C291 66 232 103 232 179 C232 201 235 224 241 250 L324 583 L415 583 L434 658 L125 658 L106 583 L198 583 L116 256 C109 228 104 194 104 167 C104 77 167 4 291 -13 C209 -66 174 -105 174 -156 C174 -215 223 -246 286 -246 C328 -246 366 -230 397 -209 L397 -209 Z " />
<glyph glyph-name="uogonek" unicode="&#x173;" horiz-adv-x="600" d="M547 172 C524 105 502 71 480 71 C466 71 457 80 457 97 C457 110 460 127 468 154 L550 464 L430 464 C348 152 265 78 220 78 C203 78 192 89 192 117 C192 181 258 287 258 380 C258 438 227 471 174 471 C105 471 52 412 11 313 L58 293 C94 368 111 390 132 390 C141 390 147 383 147 369 C147 312 76 179 76 95 C76 33 112 -10 167 -10 C239 -10 309 56 375 201 L382 198 C366 147 360 109 360 84 C360 24 387 3 415 -6 C325 -63 287 -103 287 -156 C287 -215 336 -246 400 -246 C442 -246 479 -230 511 -209 L491 -165 C471 -177 450 -185 431 -185 C393 -185 379 -163 379 -141 C379 -111 398 -77 490 -5 C551 42 571 87 595 157 L547 172 Z " />
<glyph glyph-name="Wcircumflex" unicode="&#x174;" horiz-adv-x="983" d="M474 737 L541 737 L649 827 L703 737 L764 737 L695 926 L637 926 L474 737 Z M566 -4 L683 -4 L1012 583 L1080 583 L1099 658 L854 658 L836 584 L921 584 L679 126 L674 126 L659 584 L751 584 L769 658 L468 658 L450 584 L537 584 L540 513 L315 126 L310 126 L289 584 L375 584 L393 658 L92 658 L74 583 L162 583 L201 -4 L316 -4 L547 395 L566 -4 Z " />
<glyph glyph-name="wcircumflex" unicode="&#x175;" horiz-adv-x="746" d="M181 471 C110 471 59 412 15 312 L62 292 C96 361 114 390 139 390 C149 390 154 382 154 369 C154 308 68 192 68 102 C68 29 116 -12 180 -12 C259 -12 312 55 349 152 L356 150 C354 137 354 128 354 120 C353 29 399 -12 467 -12 C634 -12 730 232 730 372 C730 440 698 474 650 474 C609 474 577 435 577 393 C577 354 602 330 636 330 C646 330 657 333 663 336 C657 226 589 73 501 73 C472 73 451 87 451 140 C451 170 456 209 468 259 L517 464 L409 464 C341 165 269 73 218 73 C195 73 182 88 182 112 C182 180 264 283 264 383 C264 437 236 471 181 471 L181 471 Z M305 535 L372 535 L480 625 L534 535 L595 535 L526 724 L468 724 L305 535 Z " />
<glyph glyph-name="Ycircumflex" unicode="&#x176;" horiz-adv-x="638" d="M381 343 L309 584 L395 584 L414 658 L113 658 L94 583 L173 583 L274 277 L223 75 L128 75 L110 0 L428 0 L446 75 L349 75 L397 269 L662 583 L732 583 L751 658 L514 658 L496 584 L576 584 L381 343 Z M302 737 L369 737 L477 827 L531 737 L592 737 L523 926 L465 926 L302 737 Z " />
<glyph glyph-name="ycircumflex" unicode="&#x177;" horiz-adv-x="553" d="M176 471 C110 471 55 412 11 312 L58 292 C85 349 109 390 134 390 C143 390 149 382 149 369 C149 312 85 204 85 127 C85 69 118 23 184 23 C242 23 304 62 362 168 L368 165 L348 86 C314 -53 261 -116 183 -116 C164 -116 149 -113 137 -109 C147 -100 156 -82 157 -66 C159 -33 139 -5 99 -5 C54 -5 30 -45 30 -77 C30 -151 114 -170 184 -170 C309 -170 410 -106 453 78 L545 464 L433 464 C357 169 286 109 233 109 C211 109 200 119 200 144 C200 202 258 292 258 384 C258 437 227 471 176 471 L176 471 Z M197 535 L264 535 L372 625 L426 535 L487 535 L418 724 L360 724 L197 535 Z " />
<glyph glyph-name="Ydieresis" unicode="&#x178;" horiz-adv-x="638" d="M381 343 L309 584 L395 584 L414 658 L113 658 L94 583 L173 583 L274 277 L223 75 L128 75 L110 0 L428 0 L446 75 L349 75 L397 269 L662 583 L732 583 L751 658 L514 658 L496 584 L576 584 L381 343 Z M447 830 C447 867 423 889 389 889 C343 889 315 846 315 808 C315 772 339 750 370 750 C417 750 447 794 447 830 L447 830 Z M635 830 C635 867 611 889 577 889 C531 889 503 846 503 808 C503 772 527 750 558 750 C605 750 635 794 635 830 L635 830 Z " />
<glyph glyph-name="Zacute" unicode="&#x179;" horiz-adv-x="619" d="M528 810 C573 847 590 862 590 891 C590 915 570 942 539 942 C506 942 487 914 459 870 L376 736 L435 736 L528 810 Z M-20 0 L522 0 L586 256 L527 256 C440 92 419 74 340 74 L161 74 L667 595 L683 658 L163 658 L101 409 L159 409 C246 571 266 584 345 584 L503 584 L-4 63 L-20 0 Z " />
<glyph glyph-name="zacute" unicode="&#x17a;" horiz-adv-x="465" d="M398 608 C443 645 460 660 460 689 C460 713 440 740 409 740 C376 740 357 712 329 668 L246 534 L305 534 L398 608 Z M141 137 C217 173 315 246 384 330 C450 349 483 382 483 421 C483 448 462 471 430 471 C399 471 369 443 358 359 L349 357 L328 390 C292 446 252 471 203 471 C112 471 72 407 30 282 L75 265 C112 343 127 362 174 362 C216 362 264 330 320 324 C244 289 146 215 77 131 C11 112 -22 80 -22 41 C-22 14 -1 -10 31 -10 C63 -10 92 18 103 102 L112 104 L134 71 C169 16 211 -10 264 -10 C356 -10 395 54 437 179 L393 197 C356 119 342 99 293 99 C248 99 198 131 141 137 L141 137 Z " />
<glyph glyph-name="Zdotaccent" unicode="&#x17b;" horiz-adv-x="619" d="M-20 0 L522 0 L586 256 L527 256 C440 92 419 74 340 74 L161 74 L667 595 L683 658 L163 658 L101 409 L159 409 C246 571 266 584 345 584 L503 584 L-4 63 L-20 0 Z M519 819 C519 858 494 881 458 881 C408 881 379 836 379 797 C379 759 404 737 437 737 C488 737 519 782 519 819 L519 819 Z " />
<glyph glyph-name="zdotaccent" unicode="&#x17c;" horiz-adv-x="465" d="M141 137 C217 173 315 246 384 330 C450 349 483 382 483 421 C483 448 462 471 430 471 C399 471 369 443 358 359 L349 357 L328 390 C292 446 252 471 203 471 C112 471 72 407 30 282 L75 265 C112 343 127 362 174 362 C216 362 264 330 320 324 C244 289 146 215 77 131 C11 112 -22 80 -22 41 C-22 14 -1 -10 31 -10 C63 -10 92 18 103 102 L112 104 L134 71 C169 16 211 -10 264 -10 C356 -10 395 54 437 179 L393 197 C356 119 342 99 293 99 C248 99 198 131 141 137 L141 137 Z M388 617 C388 656 363 679 327 679 C277 679 248 634 248 595 C248 557 273 535 306 535 C357 535 388 580 388 617 L388 617 Z " />
<glyph glyph-name="Zcaron" unicode="&#x17d;" horiz-adv-x="619" d="M609 932 L541 932 L434 842 L380 932 L318 932 L387 743 L445 743 L609 932 Z M-20 0 L522 0 L586 256 L527 256 C440 92 419 74 340 74 L161 74 L667 595 L683 658 L163 658 L101 409 L159 409 C246 571 266 584 345 584 L503 584 L-4 63 L-20 0 Z " />
<glyph glyph-name="zcaron" unicode="&#x17e;" horiz-adv-x="465" d="M478 730 L410 730 L303 640 L249 730 L187 730 L256 541 L314 541 L478 730 Z M141 137 C217 173 315 246 384 330 C450 349 483 382 483 421 C483 448 462 471 430 471 C399 471 369 443 358 359 L349 357 L328 390 C292 446 252 471 203 471 C112 471 72 407 30 282 L75 265 C112 343 127 362 174 362 C216 362 264 330 320 324 C244 289 146 215 77 131 C11 112 -22 80 -22 41 C-22 14 -1 -10 31 -10 C63 -10 92 18 103 102 L112 104 L134 71 C169 16 211 -10 264 -10 C356 -10 395 54 437 179 L393 197 C356 119 342 99 293 99 C248 99 198 131 141 137 L141 137 Z " />
<glyph glyph-name="Aringacute" unicode="&#x1fa;" horiz-adv-x="673" d="M607 975 C652 1012 669 1027 669 1056 C669 1080 649 1107 618 1107 C585 1107 566 1079 538 1035 L455 901 L514 901 L607 975 Z M576 765 C576 816 539 860 472 860 C399 860 350 804 350 738 C350 709 362 681 386 664 L29 75 L-40 75 L-59 0 L186 0 L204 75 L120 75 L206 222 L428 222 L440 75 L345 75 L327 0 L636 0 L655 75 L567 75 L508 656 C550 676 576 718 576 765 L576 765 Z M244 289 L398 554 L402 554 L423 289 L244 289 Z M409 737 C409 772 429 818 469 818 C499 818 516 798 516 768 C516 732 496 686 457 686 C426 686 409 707 409 737 L409 737 Z " />
<glyph glyph-name="aringacute" unicode="&#x1fb;" horiz-adv-x="564" d="M511 464 L397 464 L377 387 C368 432 336 471 280 471 C224 471 171 443 124 395 C70 342 29 251 29 149 C29 61 76 -10 162 -10 C219 -10 276 28 314 103 L321 100 C320 90 320 85 320 78 C320 20 355 -10 402 -10 C463 -10 517 35 556 157 L508 172 C485 105 463 71 441 71 C426 71 418 80 418 97 C418 110 421 128 429 154 L511 464 Z M208 70 C171 70 150 100 150 159 C150 240 209 406 298 406 C333 406 352 378 352 326 C352 245 289 70 208 70 L208 70 Z M497 858 C542 895 559 910 559 939 C559 963 539 990 508 990 C475 990 456 962 428 918 L345 784 L404 784 L497 858 Z M475 649 C475 700 438 744 371 744 C298 744 248 688 248 622 C248 573 285 528 352 528 C425 528 475 584 475 649 L475 649 Z M308 621 C308 656 328 702 368 702 C398 702 415 682 415 652 C415 616 395 570 355 570 C325 570 308 591 308 621 L308 621 Z " />
<glyph glyph-name="AEacute" unicode="&#x1fc;" horiz-adv-x="1012" d="M788 810 C833 847 850 862 850 891 C850 915 830 942 799 942 C766 942 747 914 719 870 L636 736 L695 736 L788 810 Z M330 75 L312 0 L903 0 L964 245 L898 245 C831 107 815 74 723 74 L556 74 L613 302 L666 302 C730 302 738 290 730 203 L792 203 L858 467 L793 467 C755 380 743 370 676 370 L630 370 L683 584 L848 584 C930 584 939 557 942 435 L1002 435 L1057 658 L379 658 L362 583 L457 583 L14 75 L-56 75 L-74 0 L184 0 L202 74 L119 74 L251 232 L470 232 L430 75 L330 75 Z M308 299 L549 585 L557 585 L486 299 L308 299 Z " />
<glyph glyph-name="aeacute" unicode="&#x1fd;" horiz-adv-x="727" d="M575 471 C515 471 458 450 410 410 C386 449 337 471 267 471 C144 471 80 416 80 358 C80 325 101 299 138 299 C182 299 207 330 207 365 C207 378 201 395 191 404 C209 410 227 413 246 413 C300 413 332 389 332 343 C332 330 326 303 315 268 C117 260 10 200 10 101 C10 41 51 -6 135 -6 C203 -6 265 23 311 86 C334 27 388 -10 467 -10 C566 -10 628 45 679 118 L637 148 C595 89 546 56 497 56 C447 56 403 82 403 165 C403 172 403 179 404 187 C615 200 709 277 709 367 C709 428 661 471 575 471 L575 471 Z M557 416 C588 416 603 394 603 366 C603 304 553 250 413 235 C434 321 488 416 557 416 L557 416 Z M556 608 C601 645 618 660 618 689 C618 713 598 740 567 740 C534 740 515 712 487 668 L404 534 L463 534 L556 608 Z M297 162 C297 151 298 141 299 132 C257 81 219 63 184 63 C149 63 129 88 129 116 C129 178 186 209 303 224 C299 204 297 183 297 162 L297 162 Z " />
<glyph glyph-name="Oslashacute" unicode="&#x1fe;" horiz-adv-x="720" d="M62 273 C62 203 81 142 115 95 L14 -11 L65 -56 L159 46 C207 6 270 -16 342 -16 C564 -16 709 192 709 385 C709 455 690 516 656 563 L758 669 L707 714 L612 611 C564 651 502 674 430 674 C207 674 62 466 62 273 L62 273 Z M425 601 C478 601 521 582 547 544 L200 175 C197 191 196 209 196 229 C196 358 261 601 425 601 L425 601 Z M576 429 C576 300 510 57 347 57 C292 57 250 76 225 114 L571 483 C574 466 576 448 576 429 L576 429 Z M573 810 C618 847 635 862 635 891 C635 915 615 942 584 942 C551 942 532 914 504 870 L421 736 L480 736 L573 810 Z " />
<glyph glyph-name="oslashacute" unicode="&#x1ff;" horiz-adv-x="515" d="M40 -47 L106 23 C136 2 175 -10 220 -10 C359 -10 484 122 484 278 C484 325 471 366 447 398 L514 471 L474 509 L407 437 C377 459 338 471 294 471 C155 471 30 340 30 184 C30 137 43 96 66 63 L0 -9 L40 -47 Z M220 46 C188 46 166 55 155 80 L367 320 C364 216 312 46 220 46 L220 46 Z M294 416 C325 416 347 407 358 382 L146 143 C149 246 202 416 294 416 L294 416 Z M419 608 C464 645 481 660 481 689 C481 713 461 740 430 740 C397 740 378 712 350 668 L267 534 L326 534 L419 608 Z " />
<glyph glyph-name="Scommaaccent" unicode="&#x218;" horiz-adv-x="587" d="M116 -337 C234 -302 293 -232 293 -157 C293 -109 266 -71 217 -71 C171 -71 142 -112 142 -150 C142 -185 166 -205 195 -205 C203 -205 211 -203 217 -200 L222 -204 C207 -243 167 -272 101 -296 L116 -337 Z M-9 -13 L66 -13 L110 64 C148 16 213 -16 300 -16 C437 -16 546 78 546 201 C546 306 458 348 376 383 C304 415 236 442 236 505 C236 557 282 604 347 604 C433 604 483 558 504 434 L574 434 L633 671 L558 671 L517 598 C484 645 418 674 347 674 C214 674 113 574 113 462 C113 356 204 312 287 275 C358 242 424 215 424 157 C424 105 378 55 299 55 C211 55 141 114 122 234 L51 234 L-9 -13 Z " />
<glyph glyph-name="scommaaccent" unicode="&#x219;" horiz-adv-x="442" d="M39 -337 C157 -302 216 -232 216 -157 C216 -109 189 -71 140 -71 C94 -71 65 -112 65 -150 C65 -185 89 -205 118 -205 C126 -205 134 -203 140 -200 L145 -204 C130 -243 90 -272 24 -296 L39 -337 Z M389 147 C389 216 332 244 279 268 C221 295 179 314 179 354 C179 396 214 421 262 421 C292 421 321 411 331 402 C317 390 307 369 307 349 C307 320 329 294 366 294 C404 294 430 327 430 366 C430 426 360 471 258 471 C171 471 70 422 70 317 C70 249 128 220 187 193 C238 170 279 151 279 113 C279 67 247 42 196 42 C160 42 127 53 110 68 C123 79 134 99 134 123 C134 150 114 178 75 178 C35 178 9 145 9 106 C9 30 106 -10 200 -10 C299 -10 389 43 389 147 L389 147 Z " />
<glyph glyph-name="schwa" unicode="&#x259;" horiz-adv-x="471" d="M18 94 C18 33 66 -10 152 -10 C309 -10 442 135 442 289 C442 399 370 471 267 471 C161 471 99 416 48 343 L90 313 C132 372 181 405 230 405 C280 405 323 379 323 296 C323 288 323 281 322 273 C111 260 18 183 18 94 L18 94 Z M169 45 C139 45 123 67 123 95 C123 156 173 210 313 225 C292 140 238 45 169 45 L169 45 Z " />
<glyph glyph-name="circumflex" unicode="&#x2c6;" horiz-adv-x="321" d="M96 535 L163 535 L271 625 L325 535 L386 535 L317 724 L259 724 L96 535 Z " />
<glyph glyph-name="caron" unicode="&#x2c7;" horiz-adv-x="321" d="M427 730 L359 730 L252 640 L198 730 L136 730 L205 541 L263 541 L427 730 Z " />
<glyph glyph-name="breve" unicode="&#x2d8;" horiz-adv-x="346" d="M266 537 C349 537 416 597 442 705 L388 705 C362 651 326 619 279 619 C226 619 202 649 202 705 L151 705 C127 596 178 537 266 537 L266 537 Z " />
<glyph glyph-name="dotaccent" unicode="&#x2d9;" horiz-adv-x="201" d="M270 617 C270 656 245 679 209 679 C159 679 130 634 130 595 C130 557 155 535 188 535 C239 535 270 580 270 617 L270 617 Z " />
<glyph glyph-name="ring" unicode="&#x2da;" horiz-adv-x="274" d="M355 649 C355 700 318 744 251 744 C178 744 128 688 128 622 C128 573 165 528 232 528 C305 528 355 584 355 649 L355 649 Z M188 621 C188 656 208 702 248 702 C278 702 295 682 295 652 C295 616 275 570 235 570 C205 570 188 591 188 621 L188 621 Z " />
<glyph glyph-name="ogonek" unicode="&#x2db;" horiz-adv-x="283" d="M146 -209 L126 -165 C107 -177 86 -185 66 -185 C29 -185 15 -163 15 -141 C15 -109 34 -78 129 -4 L156 15 L85 15 L64 2 C-35 -59 -77 -100 -77 -156 C-77 -215 -28 -246 35 -246 C77 -246 115 -230 146 -209 L146 -209 Z " />
<glyph glyph-name="tilde" unicode="&#x2dc;" horiz-adv-x="361" d="M206 593 C239 593 270 539 336 539 C399 539 434 594 464 682 L407 682 C386 639 372 624 352 624 C319 624 288 678 222 678 C159 678 124 624 94 535 L151 535 C172 578 186 593 206 593 L206 593 Z " />
<glyph glyph-name="hungarumlaut" unicode="&#x2dd;" horiz-adv-x="308" d="M209 608 C253 645 267 659 267 689 C267 713 246 740 215 740 C183 740 165 713 140 668 L64 534 L122 534 L209 608 Z M379 608 C424 645 440 661 440 690 C440 714 422 740 391 740 C359 740 338 713 312 668 L230 534 L288 534 L379 608 Z " />
<glyph glyph-name="commaaccent" unicode="&#x326;" horiz-adv-x="240" d="M-77 -337 C41 -302 100 -232 100 -157 C100 -109 73 -71 24 -71 C-22 -71 -51 -112 -51 -150 C-51 -185 -27 -205 2 -205 C10 -205 18 -203 24 -200 L29 -204 C14 -243 -26 -272 -92 -296 L-77 -337 Z " />
<glyph glyph-name="Wgrave" unicode="&#x1e80;" horiz-adv-x="983" d="M566 -4 L683 -4 L1012 583 L1080 583 L1099 658 L854 658 L836 584 L921 584 L679 126 L674 126 L659 584 L751 584 L769 658 L468 658 L450 584 L537 584 L540 513 L315 126 L310 126 L289 584 L375 584 L393 658 L92 658 L74 583 L162 583 L201 -4 L316 -4 L547 395 L566 -4 Z M629 846 C618 902 609 941 563 941 C534 941 513 916 513 891 C513 869 521 850 547 811 L596 736 L649 736 L629 846 Z " />
<glyph glyph-name="wgrave" unicode="&#x1e81;" horiz-adv-x="746" d="M181 471 C110 471 59 412 15 312 L62 292 C96 361 114 390 139 390 C149 390 154 382 154 369 C154 308 68 192 68 102 C68 29 116 -12 180 -12 C259 -12 312 55 349 152 L356 150 C354 137 354 128 354 120 C353 29 399 -12 467 -12 C634 -12 730 232 730 372 C730 440 698 474 650 474 C609 474 577 435 577 393 C577 354 602 330 636 330 C646 330 657 333 663 336 C657 226 589 73 501 73 C472 73 451 87 451 140 C451 170 456 209 468 259 L517 464 L409 464 C341 165 269 73 218 73 C195 73 182 88 182 112 C182 180 264 283 264 383 C264 437 236 471 181 471 L181 471 Z M460 644 C449 700 440 739 394 739 C365 739 344 714 344 689 C344 667 352 648 378 609 L427 534 L480 534 L460 644 Z " />
<glyph glyph-name="Wacute" unicode="&#x1e82;" horiz-adv-x="983" d="M724 810 C769 847 786 862 786 891 C786 915 766 942 735 942 C702 942 683 914 655 870 L572 736 L631 736 L724 810 Z M566 -4 L683 -4 L1012 583 L1080 583 L1099 658 L854 658 L836 584 L921 584 L679 126 L674 126 L659 584 L751 584 L769 658 L468 658 L450 584 L537 584 L540 513 L315 126 L310 126 L289 584 L375 584 L393 658 L92 658 L74 583 L162 583 L201 -4 L316 -4 L547 395 L566 -4 Z " />
<glyph glyph-name="wacute" unicode="&#x1e83;" horiz-adv-x="746" d="M181 471 C110 471 59 412 15 312 L62 292 C96 361 114 390 139 390 C149 390 154 382 154 369 C154 308 68 192 68 102 C68 29 116 -12 180 -12 C259 -12 312 55 349 152 L356 150 C354 137 354 128 354 120 C353 29 399 -12 467 -12 C634 -12 730 232 730 372 C730 440 698 474 650 474 C609 474 577 435 577 393 C577 354 602 330 636 330 C646 330 657 333 663 336 C657 226 589 73 501 73 C472 73 451 87 451 140 C451 170 456 209 468 259 L517 464 L409 464 C341 165 269 73 218 73 C195 73 182 88 182 112 C182 180 264 283 264 383 C264 437 236 471 181 471 L181 471 Z M555 608 C600 645 617 660 617 689 C617 713 597 740 566 740 C533 740 514 712 486 668 L403 534 L462 534 L555 608 Z " />
<glyph glyph-name="Wdieresis" unicode="&#x1e84;" horiz-adv-x="983" d="M619 830 C619 867 595 889 561 889 C515 889 487 846 487 808 C487 772 511 750 542 750 C589 750 619 794 619 830 L619 830 Z M807 830 C807 867 783 889 749 889 C703 889 675 846 675 808 C675 772 699 750 730 750 C777 750 807 794 807 830 L807 830 Z M566 -4 L683 -4 L1012 583 L1080 583 L1099 658 L854 658 L836 584 L921 584 L679 126 L674 126 L659 584 L751 584 L769 658 L468 658 L450 584 L537 584 L540 513 L315 126 L310 126 L289 584 L375 584 L393 658 L92 658 L74 583 L162 583 L201 -4 L316 -4 L547 395 L566 -4 Z " />
<glyph glyph-name="wdieresis" unicode="&#x1e85;" horiz-adv-x="746" d="M181 471 C110 471 59 412 15 312 L62 292 C96 361 114 390 139 390 C149 390 154 382 154 369 C154 308 68 192 68 102 C68 29 116 -12 180 -12 C259 -12 312 55 349 152 L356 150 C354 137 354 128 354 120 C353 29 399 -12 467 -12 C634 -12 730 232 730 372 C730 440 698 474 650 474 C609 474 577 435 577 393 C577 354 602 330 636 330 C646 330 657 333 663 336 C657 226 589 73 501 73 C472 73 451 87 451 140 C451 170 456 209 468 259 L517 464 L409 464 C341 165 269 73 218 73 C195 73 182 88 182 112 C182 180 264 283 264 383 C264 437 236 471 181 471 L181 471 Z M638 628 C638 665 614 687 580 687 C534 687 506 644 506 606 C506 570 530 548 561 548 C608 548 638 592 638 628 L638 628 Z M450 628 C450 665 426 687 392 687 C346 687 318 644 318 606 C318 570 342 548 373 548 C420 548 450 592 450 628 L450 628 Z " />
<glyph glyph-name="Ygrave" unicode="&#x1ef2;" horiz-adv-x="638" d="M381 343 L309 584 L395 584 L414 658 L113 658 L94 583 L173 583 L274 277 L223 75 L128 75 L110 0 L428 0 L446 75 L349 75 L397 269 L662 583 L732 583 L751 658 L514 658 L496 584 L576 584 L381 343 Z M456 846 C445 902 436 941 390 941 C361 941 340 916 340 891 C340 869 348 850 374 811 L423 736 L476 736 L456 846 Z " />
<glyph glyph-name="ygrave" unicode="&#x1ef3;" horiz-adv-x="553" d="M176 471 C110 471 55 412 11 312 L58 292 C85 349 109 390 134 390 C143 390 149 382 149 369 C149 312 85 204 85 127 C85 69 118 23 184 23 C242 23 304 62 362 168 L368 165 L348 86 C314 -53 261 -116 183 -116 C164 -116 149 -113 137 -109 C147 -100 156 -82 157 -66 C159 -33 139 -5 99 -5 C54 -5 30 -45 30 -77 C30 -151 114 -170 184 -170 C309 -170 410 -106 453 78 L545 464 L433 464 C357 169 286 109 233 109 C211 109 200 119 200 144 C200 202 258 292 258 384 C258 437 227 471 176 471 L176 471 Z M352 644 C341 700 332 739 286 739 C257 739 236 714 236 689 C236 667 244 648 270 609 L319 534 L372 534 L352 644 Z " />
<glyph glyph-name="enspace" unicode="&#x2002;" horiz-adv-x="500" d="" />
<glyph glyph-name="emspace" unicode="&#x2003;" horiz-adv-x="1000" d="" />
<glyph glyph-name="threeperemspace" unicode="&#x2004;" horiz-adv-x="333" d="" />
<glyph glyph-name="fourperemspace" unicode="&#x2005;" horiz-adv-x="250" d="" />
<glyph glyph-name="thinspace" unicode="&#x2009;" horiz-adv-x="133" d="" />
<glyph glyph-name="hairspace" unicode="&#x200a;" horiz-adv-x="75" d="" />
<glyph glyph-name="endash" unicode="&#x2013;" horiz-adv-x="535" d="M47 209 L479 209 L498 287 L67 287 L47 209 Z " />
<glyph glyph-name="emdash" unicode="&#x2014;" horiz-adv-x="785" d="M47 209 L729 209 L748 287 L67 287 L47 209 Z " />
<glyph glyph-name="quoteleft" unicode="&#x2018;" horiz-adv-x="242" d="M300 681 C159 647 90 568 90 482 C90 431 118 392 171 392 C217 392 247 434 247 476 C247 512 224 535 193 535 C184 535 178 532 172 528 L166 533 C183 574 231 613 312 637 L300 681 Z " />
<glyph glyph-name="quoteright" unicode="&#x2019;" horiz-adv-x="242" d="M88 384 C229 418 298 497 298 584 C298 634 270 674 217 674 C171 674 141 631 141 590 C141 554 165 531 195 531 C204 531 211 534 217 538 L222 533 C206 491 157 453 76 429 L88 384 Z " />
<glyph glyph-name="quotesinglbase" unicode="&#x201a;" horiz-adv-x="242" d="M-50 -154 C91 -120 160 -41 160 46 C160 96 132 136 79 136 C33 136 3 93 3 52 C3 16 27 -7 57 -7 C66 -7 73 -4 79 0 L84 -5 C68 -47 19 -85 -62 -109 L-50 -154 Z " />
<glyph glyph-name="quotedblleft" unicode="&#x201c;" horiz-adv-x="452" d="M304 681 C163 647 94 568 94 482 C94 431 122 392 175 392 C221 392 251 434 251 476 C251 512 227 535 197 535 C188 535 181 532 176 528 L170 533 C186 574 235 613 316 637 L304 681 Z M510 681 C369 647 300 568 300 482 C300 431 328 392 381 392 C427 392 457 434 457 476 C457 512 433 535 403 535 C394 535 387 532 382 528 L376 533 C392 574 441 613 522 637 L510 681 Z " />
<glyph glyph-name="quotedblright" unicode="&#x201d;" horiz-adv-x="452" d="M88 384 C229 418 298 497 298 584 C298 634 270 674 217 674 C171 674 141 631 141 590 C141 554 165 531 195 531 C204 531 211 534 217 538 L222 533 C206 491 157 453 76 429 L88 384 Z M294 384 C435 418 504 497 504 584 C504 634 476 674 423 674 C377 674 347 631 347 590 C347 554 371 531 402 531 C410 531 417 534 423 538 L428 533 C412 491 364 453 282 429 L294 384 Z " />
<glyph glyph-name="quotedblbase" unicode="&#x201e;" horiz-adv-x="448" d="M-50 -154 C91 -120 160 -41 160 46 C160 96 132 136 79 136 C33 136 3 93 3 52 C3 16 27 -7 57 -7 C66 -7 73 -4 79 0 L84 -5 C68 -47 19 -85 -62 -109 L-50 -154 Z M156 -154 C297 -120 366 -41 366 46 C366 96 338 136 285 136 C239 136 209 93 209 52 C209 16 233 -7 264 -7 C272 -7 279 -4 285 0 L290 -5 C274 -47 226 -85 144 -109 L156 -154 Z " />
<glyph glyph-name="dagger" unicode="&#x2020;" horiz-adv-x="527" d="M425 626 L422 648 C418 677 403 704 371 704 C352 704 335 692 322 673 L308 655 L302 462 C237 485 211 495 167 495 C104 495 71 452 71 414 C71 380 95 361 122 361 C162 361 188 400 178 444 L187 444 C209 444 255 431 291 418 L189 136 L153 -8 C142 -52 169 -104 183 -106 C195 -108 241 -76 252 -32 L288 112 L330 405 C393 382 420 373 463 373 C527 373 559 415 559 453 C559 487 535 507 508 507 C468 507 442 467 452 424 C450 423 445 423 443 423 C421 423 374 437 339 449 L425 626 Z " />
<glyph glyph-name="daggerdbl" unicode="&#x2021;" horiz-adv-x="527" d="M272 176 L326 284 L333 406 C395 384 421 375 464 375 C527 375 560 417 560 456 C560 490 536 509 509 509 C469 509 443 470 453 426 C450 425 446 425 443 425 C423 425 374 439 340 451 L425 626 L422 648 C418 677 403 704 371 704 C352 704 335 692 322 673 L308 655 L303 464 C238 487 212 497 168 497 C105 497 72 455 72 416 C72 382 96 363 123 363 C163 363 189 402 179 446 L190 446 C209 446 255 433 289 421 L235 312 L228 191 C167 213 141 222 98 222 C35 222 2 180 2 141 C2 107 26 88 53 88 C93 88 120 127 110 171 C112 172 117 172 120 172 C140 172 188 157 223 145 L137 -29 L140 -51 C145 -80 159 -107 191 -107 C210 -107 227 -95 240 -77 L254 -58 L260 133 C324 110 351 100 395 100 C458 100 490 142 490 181 C490 215 467 234 439 234 C399 234 373 195 383 151 C381 150 376 150 373 150 C353 150 306 164 272 176 L272 176 Z " />
<glyph glyph-name="bullet" unicode="&#x2022;" horiz-adv-x="479" d="M251 172 C336 172 408 247 408 337 C408 413 353 468 281 468 C196 468 124 393 124 303 C124 227 179 172 251 172 L251 172 Z " />
<glyph glyph-name="ellipsis" unicode="&#x2026;" horiz-adv-x="708" d="M77 -16 C124 -16 154 28 154 68 C154 112 125 139 87 139 C40 139 10 95 10 55 C10 11 39 -16 77 -16 L77 -16 Z M310 -16 C357 -16 387 28 387 68 C387 112 358 139 320 139 C273 139 243 95 243 55 C243 11 272 -16 310 -16 L310 -16 Z M544 -16 C591 -16 621 28 621 68 C621 112 592 139 554 139 C507 139 477 95 477 55 C477 11 506 -16 544 -16 L544 -16 Z " />
<glyph glyph-name="guilsinglleft" unicode="&#x2039;" horiz-adv-x="305" d="M178 31 L220 58 L142 221 L300 387 L270 421 L67 273 C40 253 31 241 31 228 C31 219 34 209 49 191 L178 31 Z " />
<glyph glyph-name="guilsinglright" unicode="&#x203a;" horiz-adv-x="305" d="M125 420 L83 393 L161 230 L3 64 L33 30 L236 178 C263 198 272 210 272 223 C272 232 269 242 254 260 L125 420 Z " />
<glyph glyph-name="Euro" unicode="&#x20ac;" horiz-adv-x="651" d="M443 347 L460 412 L277 412 C312 504 376 582 478 582 C522 582 553 566 568 545 C544 531 523 504 523 469 C523 432 549 404 589 404 C636 404 668 449 668 499 C668 574 603 650 471 650 C334 650 211 554 153 413 L70 413 L54 347 L132 347 C126 323 122 299 120 274 L36 274 L20 208 L120 208 C130 58 226 -16 354 -16 C478 -16 563 66 606 173 L547 203 C501 109 447 67 379 67 C313 67 256 105 247 208 L409 208 L426 274 L247 274 C249 297 253 322 258 347 L443 347 Z " />
<glyph glyph-name="published" unicode="&#x2117;" horiz-adv-x="787" d="M412 -33 C618 -33 776 122 776 329 C776 535 618 691 412 691 C206 691 48 535 48 329 C48 122 206 -33 412 -33 L412 -33 Z M412 10 C232 10 98 147 98 329 C98 510 232 648 412 648 C593 648 726 510 726 329 C726 147 593 10 412 10 L412 10 Z M262 147 L453 147 L453 191 L394 191 L394 288 L438 288 C553 288 593 343 593 403 C593 465 549 514 435 514 L262 514 L262 469 L316 469 L316 191 L262 191 L262 147 Z M394 331 L394 471 L431 471 C491 471 508 443 508 402 C508 357 493 331 432 331 L394 331 Z " />
<glyph glyph-name="servicemark" unicode="&#x2120;" horiz-adv-x="800" d="M76 351 L114 351 L136 387 C154 366 186 349 226 349 C294 349 344 392 344 449 C344 503 297 520 257 538 C227 552 200 562 200 588 C200 612 219 629 250 629 C286 629 310 609 321 553 L356 553 L385 665 L347 665 L327 631 C312 653 283 667 248 667 C183 667 133 621 133 569 C133 516 180 498 220 479 C251 465 277 456 277 429 C277 406 259 387 226 387 C180 387 152 416 142 470 L106 470 L76 351 Z M361 355 L484 355 L494 396 L457 396 L509 604 L523 604 L543 355 L586 355 L727 604 L739 604 L686 396 L651 396 L641 355 L792 355 L803 396 L758 396 L813 617 L858 617 L868 658 L714 658 L607 460 L600 460 L586 658 L437 658 L426 617 L468 617 L413 396 L371 396 L361 355 Z " />
<glyph glyph-name="trademark" unicode="&#x2122;" horiz-adv-x="844" d="M406 355 L528 355 L539 396 L502 396 L554 604 L567 604 L588 355 L630 355 L772 604 L784 604 L731 396 L696 396 L686 355 L837 355 L847 396 L803 396 L858 617 L902 617 L913 658 L758 658 L651 460 L644 460 L631 658 L481 658 L471 617 L512 617 L458 396 L416 396 L406 355 Z M128 355 L310 355 L320 396 L266 396 L322 621 L339 621 C376 621 382 609 385 536 L415 536 L445 658 L145 658 L114 536 L148 536 C186 610 197 621 236 621 L250 621 L193 396 L139 396 L128 355 Z " />
<glyph glyph-name="minus" unicode="&#x2212;" horiz-adv-x="520" d="M455 245 L474 321 L93 321 L74 245 L455 245 Z " />
<glyph glyph-name="f_f" unicode="&#xfb00;" horiz-adv-x="644" d="M259 -170 C342 -170 434 -111 472 71 L539 389 L668 389 L685 450 L552 450 L558 475 C581 585 600 642 671 642 C682 642 692 640 698 636 C680 621 670 595 670 574 C670 539 694 519 727 519 C770 519 799 558 799 603 C799 650 760 694 673 694 C612 694 563 670 525 632 C509 665 467 693 393 693 C275 693 182 611 147 450 L58 450 L42 389 L134 389 L58 20 C32 -106 18 -124 -16 -123 C-9 -116 -2 -99 -2 -79 C-2 -52 -20 -28 -53 -28 C-93 -28 -119 -62 -119 -99 C-119 -137 -89 -170 -28 -170 C56 -170 144 -111 183 71 L250 389 L424 389 L348 20 C322 -106 304 -124 271 -123 C278 -116 285 -99 285 -79 C285 -52 267 -28 234 -28 C194 -28 168 -62 168 -99 C168 -137 198 -170 259 -170 L259 -170 Z M268 474 C291 586 317 641 390 641 C409 641 424 636 430 631 C415 616 406 593 406 573 C406 540 426 520 456 518 C448 496 442 473 437 450 L263 450 L268 474 Z " />
<glyph glyph-name="fi" unicode="&#xfb01;" horiz-adv-x="594" d="M402 389 L356 220 C340 161 329 115 329 84 C329 26 363 -10 422 -10 C484 -10 538 36 578 157 L530 172 C501 96 482 71 460 71 C448 71 439 78 439 95 C439 112 448 145 454 167 L532 450 L263 450 L268 475 C292 589 321 642 396 642 C415 642 435 638 444 631 C428 616 418 590 418 569 C418 533 443 512 481 512 C530 512 558 552 558 593 C558 645 509 694 403 694 C262 694 178 591 147 450 L58 450 L42 389 L134 389 L58 20 C32 -106 18 -124 -16 -123 C-9 -116 -2 -99 -2 -79 C-2 -52 -20 -28 -53 -28 C-93 -28 -119 -62 -119 -99 C-119 -137 -89 -170 -28 -170 C56 -170 144 -111 183 71 L250 389 L402 389 Z " />
<glyph glyph-name="fl" unicode="&#xfb02;" horiz-adv-x="597" d="M392 694 C257 694 175 586 147 450 L58 450 L42 389 L134 389 L58 20 C32 -106 18 -124 -16 -123 C-9 -116 -2 -99 -2 -79 C-2 -52 -20 -28 -53 -28 C-93 -28 -119 -62 -119 -99 C-119 -137 -89 -170 -28 -170 C56 -170 144 -111 183 71 L249 389 L404 389 L360 221 C344 162 333 114 333 84 C333 25 367 -10 426 -10 C488 -10 542 36 582 157 L534 172 C505 96 486 71 464 71 C451 71 443 78 443 96 C443 113 452 145 459 168 L602 694 L476 677 C455 687 427 694 392 694 L392 694 Z M268 476 C292 588 318 642 389 642 C408 642 422 637 428 632 C413 617 403 595 403 574 C403 547 417 529 439 522 L420 450 L262 450 L268 476 Z " />
<glyph glyph-name="f_f_i" unicode="&#xfb03;" horiz-adv-x="883" d="M393 693 C275 693 182 611 147 450 L58 450 L42 389 L134 389 L58 20 C32 -106 18 -124 -16 -123 C-9 -116 -2 -99 -2 -79 C-2 -52 -20 -28 -53 -28 C-93 -28 -119 -62 -119 -99 C-119 -137 -89 -170 -28 -170 C56 -170 144 -111 183 71 L250 389 L423 389 L347 20 C321 -106 304 -124 270 -123 C277 -116 284 -99 284 -79 C284 -52 266 -28 233 -28 C193 -28 167 -62 167 -99 C167 -137 198 -170 258 -170 C342 -170 433 -111 472 71 L539 389 L691 389 L645 220 C629 161 618 115 618 84 C618 26 652 -10 711 -10 C773 -10 827 36 867 157 L819 172 C790 96 771 71 749 71 C737 71 728 78 728 95 C728 112 737 145 743 167 L821 450 L552 450 L557 475 C581 589 610 642 685 642 C704 642 724 638 733 631 C717 616 707 590 707 569 C707 533 732 512 770 512 C819 512 847 552 847 593 C847 645 798 694 692 694 C623 694 568 669 526 628 C510 662 465 693 393 693 L393 693 Z M268 474 C291 586 317 641 390 641 C409 641 424 636 430 631 C415 616 406 593 406 573 C406 540 426 520 456 518 C448 496 441 474 436 450 L263 450 L268 474 Z " />
<glyph glyph-name="f_f_l" unicode="&#xfb04;" horiz-adv-x="887" d="M259 -170 C342 -170 434 -111 472 71 L539 389 L694 389 L649 221 C634 162 623 114 623 84 C623 25 657 -10 716 -10 C778 -10 831 36 871 157 L824 172 C795 96 775 71 754 71 C741 71 733 78 733 96 C733 113 742 145 748 168 L891 694 L766 677 C745 687 717 694 682 694 C618 694 566 670 526 630 C510 663 469 693 393 693 C275 693 182 611 147 450 L58 450 L42 389 L134 389 L58 20 C32 -106 18 -124 -16 -123 C-9 -116 -2 -99 -2 -79 C-2 -52 -20 -28 -53 -28 C-93 -28 -119 -62 -119 -99 C-119 -137 -89 -170 -28 -170 C56 -170 144 -111 183 71 L250 389 L424 389 L348 20 C322 -106 304 -124 271 -123 C278 -116 285 -99 285 -79 C285 -52 267 -28 234 -28 C194 -28 168 -62 168 -99 C168 -137 198 -170 259 -170 L259 -170 Z M268 474 C291 586 317 641 390 641 C409 641 424 636 430 631 C415 616 406 593 406 573 C406 540 426 520 456 518 C448 496 442 473 437 450 L263 450 L268 474 Z M558 476 C581 588 607 642 679 642 C697 642 712 637 718 632 C702 617 693 595 693 574 C693 547 707 529 729 522 L710 450 L552 450 L558 476 Z " />
</font>
</svg>
