<?xml version="1.0" standalone="yes"?>

<svg version="1.1" viewBox="0.0 0.0 720.0 540.0" fill="none" stroke="none" stroke-linecap="square" stroke-miterlimit="10" xmlns="http://www.w3.org/2000/svg" xmlns:xlink="http://www.w3.org/1999/xlink"><clipPath id="p.0"><path d="m0 0l720.0 0l0 540.0l-720.0 0l0 -540.0z" clip-rule="nonzero"></path></clipPath><g clip-path="url(#p.0)"><path fill="#000000" fill-opacity="0.0" d="m0 0l720.0 0l0 540.0l-720.0 0z" fill-rule="nonzero"></path><path fill="#000000" fill-opacity="0.0" d="m273.45404 246.13159l163.37006 -17.354324" fill-rule="nonzero"></path><path stroke="#93c47d" stroke-width="1.0" stroke-linejoin="round" stroke-linecap="butt" d="m276.86194 245.76958l159.96216 -16.99231" fill-rule="evenodd"></path><path fill="#93c47d" stroke="#93c47d" stroke-width="1.0" stroke-linecap="butt" d="m276.86194 245.76959l0.9995117 -1.2370911l-2.9537048 1.4446716l3.1912842 0.7919159z" fill-rule="evenodd"></path><path fill="#000000" fill-opacity="0.0" d="m40.0 88.13911l613.98425 0l0 44.000008l-613.98425 0z" fill-rule="nonzero"></path><path fill="#000000" d="m151.20563 109.902855q0 0.34375 -0.015625 0.578125q-0.015625 0.234375 -0.03125 0.4375l-6.53125 0q0 1.4375 0.796875 2.203125q0.796875 0.765625 2.296875 0.765625q0.40625 0 0.8125 -0.03125q0.40625 -0.046875 0.78125 -0.09375q0.390625 -0.0625 0.734375 -0.125q0.34375 -0.078125 0.640625 -0.15625l0 1.328125q-0.65625 0.1875 -1.484375 0.296875q-0.828125 0.125 -1.71875 0.125q-1.203125 0 -2.0625 -0.328125q-0.859375 -0.328125 -1.421875 -0.9375q-0.546875 -0.625 -0.8125 -1.515625q-0.265625 -0.890625 -0.265625 -2.03125q0 -0.984375 0.28125 -1.859375q0.296875 -0.875 0.828125 -1.53125q0.546875 -0.671875 1.328125 -1.0625q0.796875 -0.390625 1.796875 -0.390625q0.984375 0 1.734375 0.3125q0.75 0.296875 1.265625 0.859375q0.515625 0.5625 0.78125 1.375q0.265625 0.796875 0.265625 1.78125zm-1.6875 -0.21875q0.03125 -0.625 -0.125 -1.140625q-0.140625 -0.515625 -0.453125 -0.890625q-0.3125 -0.375 -0.78125 -0.578125q-0.453125 -0.203125 -1.078125 -0.203125q-0.515625 0 -0.953125 0.203125q-0.4375 0.203125 -0.765625 0.578125q-0.3125 0.359375 -0.5 0.890625q-0.1875 0.515625 -0.234375 1.140625l4.890625 0zm12.460419 5.375l-2.140625 0l-2.515625 -3.546875l-2.484375 3.546875l-2.078125 0l3.609375 -4.671875l-3.453125 -4.640625l2.078125 0l2.4375 3.578125l2.40625 -3.578125l2.0 0l-3.5 4.671875l3.640625 4.640625zm9.819794 -4.828125q0 1.25 -0.34375 2.1875q-0.34375 0.921875 -0.953125 1.53125q-0.609375 0.609375 -1.453125 0.921875q-0.828125 0.296875 -1.8125 0.296875q-0.4375 0 -0.890625 -0.046875q-0.4375 -0.046875 -0.890625 -0.15625l0 3.890625l-1.609375 0l0 -13.109375l1.4375 0l0.109375 1.5625q0.6875 -0.96875 1.46875 -1.34375q0.796875 -0.390625 1.71875 -0.390625q0.796875 0 1.390625 0.34375q0.609375 0.328125 1.015625 0.9375q0.40625 0.609375 0.609375 1.46875q0.203125 0.859375 0.203125 1.90625zm-1.640625 0.078125q0 -0.734375 -0.109375 -1.34375q-0.109375 -0.609375 -0.34375 -1.046875q-0.234375 -0.4375 -0.59375 -0.6875q-0.359375 -0.25 -0.859375 -0.25q-0.3125 0 -0.625 0.109375q-0.3125 0.09375 -0.65625 0.328125q-0.328125 0.21875 -0.703125 0.59375q-0.375 0.375 -0.8125 0.9375l0 4.515625q0.453125 0.1875 0.9375 0.296875q0.5 0.09375 0.96875 0.09375q1.3125 0 2.046875 -0.875q0.75 -0.890625 0.75 -2.671875zm21.936462 -1.25l-7.984375 0l0 -1.359375l7.984375 0l0 1.359375zm0 3.234375l-7.984375 0l0 -1.359375l7.984375 0l0 1.359375z" fill-rule="nonzero"></path><path fill="#0000ff" d="m210.85876 115.059105l-0.03125 -1.25q-0.765625 0.75 -1.546875 1.09375q-0.78125 0.328125 -1.65625 0.328125q-0.796875 0 -1.359375 -0.203125q-0.5625 -0.203125 -0.9375 -0.5625q-0.359375 -0.359375 -0.53125 -0.84375q-0.171875 -0.484375 -0.171875 -1.046875q0 -1.40625 1.046875 -2.1875q1.046875 -0.796875 3.078125 -0.796875l1.9375 0l0 -0.828125q0 -0.8125 -0.53125 -1.3125q-0.53125 -0.5 -1.609375 -0.5q-0.796875 0 -1.5625 0.1875q-0.765625 0.171875 -1.578125 0.484375l0 -1.453125q0.296875 -0.109375 0.671875 -0.21875q0.390625 -0.109375 0.796875 -0.1875q0.421875 -0.078125 0.875 -0.125q0.453125 -0.0625 0.921875 -0.0625q0.84375 0 1.515625 0.1875q0.6875 0.1875 1.15625 0.578125q0.46875 0.375 0.71875 0.953125q0.25 0.5625 0.25 1.34375l0 6.421875l-1.453125 0zm-0.171875 -4.234375l-2.0625 0q-0.59375 0 -1.03125 0.125q-0.4375 0.109375 -0.71875 0.34375q-0.28125 0.21875 -0.421875 0.53125q-0.125 0.296875 -0.125 0.6875q0 0.28125 0.078125 0.53125q0.09375 0.234375 0.28125 0.421875q0.1875 0.1875 0.484375 0.3125q0.296875 0.109375 0.71875 0.109375q0.5625 0 1.28125 -0.34375q0.71875 -0.34375 1.515625 -1.078125l0 -1.640625z" fill-rule="nonzero"></path><path fill="#980000" d="m230.9671 118.94973q-4.28125 -3.953125 -4.28125 -8.75q0 -1.125 0.21875 -2.234375q0.234375 -1.125 0.734375 -2.25q0.515625 -1.125 1.34375 -2.234375q0.828125 -1.125 2.015625 -2.234375l0.9375 0.953125q-3.59375 3.546875 -3.59375 7.875q0 2.15625 0.90625 4.140625q0.90625 1.984375 2.6875 3.75l-0.96875 0.984375z" fill-rule="nonzero"></path><path fill="#0000ff" d="m253.85669 110.23098q0 1.15625 -0.328125 2.078125q-0.3125 0.90625 -0.90625 1.546875q-0.578125 0.640625 -1.421875 0.984375q-0.84375 0.328125 -1.90625 0.328125q-0.828125 0 -1.6875 -0.15625q-0.859375 -0.15625 -1.703125 -0.5l0 -12.5625l1.609375 0l0 3.609375l-0.0625 1.71875q0.6875 -0.9375 1.484375 -1.3125q0.796875 -0.390625 1.703125 -0.390625q0.796875 0 1.390625 0.34375q0.609375 0.328125 1.015625 0.9375q0.40625 0.609375 0.609375 1.46875q0.203125 0.859375 0.203125 1.90625zm-1.640625 0.078125q0 -0.734375 -0.109375 -1.34375q-0.109375 -0.609375 -0.34375 -1.046875q-0.234375 -0.4375 -0.59375 -0.6875q-0.359375 -0.25 -0.859375 -0.25q-0.3125 0 -0.625 0.109375q-0.3125 0.09375 -0.65625 0.328125q-0.328125 0.21875 -0.703125 0.59375q-0.375 0.375 -0.8125 0.9375l0 4.515625q0.484375 0.1875 0.96875 0.296875q0.5 0.09375 0.9375 0.09375q0.5625 0 1.0625 -0.171875q0.5 -0.171875 0.890625 -0.578125q0.390625 -0.421875 0.609375 -1.09375q0.234375 -0.6875 0.234375 -1.703125z" fill-rule="nonzero"></path><path fill="#980000" d="m271.99628 118.94973q-4.28125 -3.953125 -4.28125 -8.75q0 -1.125 0.21875 -2.234375q0.234375 -1.125 0.734375 -2.25q0.515625 -1.125 1.34375 -2.234375q0.828125 -1.125 2.015625 -2.234375l0.9375 0.953125q-3.59375 3.546875 -3.59375 7.875q0 2.15625 0.90625 4.140625q0.90625 1.984375 2.6875 3.75l-0.96875 0.984375z" fill-rule="nonzero"></path><path fill="#0000ff" d="m294.1671 114.715355q-0.625 0.234375 -1.296875 0.34375q-0.65625 0.125 -1.359375 0.125q-2.21875 0 -3.40625 -1.1875q-1.1875 -1.203125 -1.1875 -3.5q0 -1.109375 0.34375 -2.0q0.34375 -0.90625 0.953125 -1.546875q0.625 -0.640625 1.484375 -0.984375q0.875 -0.34375 1.90625 -0.34375q0.734375 0 1.359375 0.109375q0.625 0.09375 1.203125 0.3125l0 1.546875q-0.59375 -0.3125 -1.234375 -0.453125q-0.625 -0.15625 -1.28125 -0.15625q-0.625 0 -1.1875 0.25q-0.546875 0.234375 -0.96875 0.6875q-0.40625 0.4375 -0.65625 1.078125q-0.234375 0.640625 -0.234375 1.4375q0 1.6875 0.8125 2.53125q0.828125 0.84375 2.28125 0.84375q0.65625 0 1.265625 -0.140625q0.625 -0.15625 1.203125 -0.453125l0 1.5z" fill-rule="nonzero"></path><path fill="#980000" d="m313.02545 118.94973q-4.28125 -3.953125 -4.28125 -8.75q0 -1.125 0.21875 -2.234375q0.234375 -1.125 0.734375 -2.25q0.515625 -1.125 1.34375 -2.234375q0.828125 -1.125 2.015625 -2.234375l0.9375 0.953125q-3.59375 3.546875 -3.59375 7.875q0 2.15625 0.90625 4.140625q0.90625 1.984375 2.6875 3.75l-0.96875 0.984375zm6.5854187 -17.703125q4.265625 3.953125 4.265625 8.8125q0 1.0 -0.203125 2.078125q-0.203125 1.078125 -0.703125 2.203125q-0.484375 1.125 -1.3125 2.28125q-0.828125 1.171875 -2.09375 2.328125l-0.9375 -0.953125q1.8125 -1.78125 2.703125 -3.734375q0.890625 -1.953125 0.890625 -4.078125q0 -4.421875 -3.59375 -7.953125l0.984375 -0.984375z" fill-rule="nonzero"></path><path fill="#980000" d="m340.12546 101.246605q4.265625 3.953125 4.265625 8.8125q0 1.0 -0.203125 2.078125q-0.203125 1.078125 -0.703125 2.203125q-0.484375 1.125 -1.3125 2.28125q-0.828125 1.171875 -2.09375 2.328125l-0.9375 -0.953125q1.8125 -1.78125 2.703125 -3.734375q0.890625 -1.953125 0.890625 -4.078125q0 -4.421875 -3.59375 -7.953125l0.984375 -0.984375z" fill-rule="nonzero"></path><path fill="#000000" d="m349.19525 116.965355q0.484375 0.015625 0.921875 -0.09375q0.453125 -0.09375 0.78125 -0.296875q0.34375 -0.203125 0.546875 -0.5q0.203125 -0.296875 0.203125 -0.671875q0 -0.390625 -0.140625 -0.625q-0.125 -0.25 -0.296875 -0.453125q-0.171875 -0.203125 -0.3125 -0.4375q-0.125 -0.234375 -0.125 -0.625q0 -0.1875 0.078125 -0.390625q0.078125 -0.21875 0.21875 -0.390625q0.15625 -0.1875 0.390625 -0.296875q0.25 -0.109375 0.5625 -0.109375q0.328125 0 0.625 0.140625q0.3125 0.125 0.53125 0.40625q0.234375 0.28125 0.359375 0.703125q0.140625 0.40625 0.140625 0.96875q0 0.78125 -0.28125 1.484375q-0.28125 0.703125 -0.84375 1.25q-0.5625 0.5625 -1.40625 0.875q-0.828125 0.328125 -1.953125 0.328125l0 -1.265625z" fill-rule="nonzero"></path><path fill="#0000ff" d="m368.52234 110.590355q0 -1.1875 0.3125 -2.109375q0.328125 -0.921875 0.921875 -1.546875q0.609375 -0.640625 1.4375 -0.96875q0.84375 -0.328125 1.875 -0.328125q0.453125 0 0.875 0.0625q0.4375 0.046875 0.859375 0.171875l0 -3.921875l1.625 0l0 13.109375l-1.453125 0l-0.0625 -1.765625q-0.671875 0.984375 -1.46875 1.46875q-0.78125 0.46875 -1.703125 0.46875q-0.796875 0 -1.40625 -0.328125q-0.59375 -0.34375 -1.0 -0.953125q-0.40625 -0.609375 -0.609375 -1.453125q-0.203125 -0.859375 -0.203125 -1.90625zm1.640625 -0.09375q0 1.6875 0.5 2.515625q0.5 0.828125 1.40625 0.828125q0.609375 0 1.296875 -0.546875q0.6875 -0.546875 1.4375 -1.625l0 -4.3125q-0.40625 -0.1875 -0.890625 -0.28125q-0.484375 -0.109375 -0.953125 -0.109375q-1.3125 0 -2.0625 0.859375q-0.734375 0.84375 -0.734375 2.671875z" fill-rule="nonzero"></path><path fill="#980000" d="m395.0838 118.94973q-4.28125 -3.953125 -4.28125 -8.75q0 -1.125 0.21875 -2.234375q0.234375 -1.125 0.734375 -2.25q0.515625 -1.125 1.34375 -2.234375q0.828125 -1.125 2.015625 -2.234375l0.9375 0.953125q-3.59375 3.546875 -3.59375 7.875q0 2.15625 0.90625 4.140625q0.90625 1.984375 2.6875 3.75l-0.96875 0.984375z" fill-rule="nonzero"></path><path fill="#0000ff" d="m417.89526 109.902855q0 0.34375 -0.015625 0.578125q-0.015625 0.234375 -0.03125 0.4375l-6.53125 0q0 1.4375 0.796875 2.203125q0.796875 0.765625 2.296875 0.765625q0.40625 0 0.8125 -0.03125q0.40625 -0.046875 0.78125 -0.09375q0.390625 -0.0625 0.734375 -0.125q0.34375 -0.078125 0.640625 -0.15625l0 1.328125q-0.65625 0.1875 -1.484375 0.296875q-0.828125 0.125 -1.71875 0.125q-1.203125 0 -2.0625 -0.328125q-0.859375 -0.328125 -1.421875 -0.9375q-0.546875 -0.625 -0.8125 -1.515625q-0.265625 -0.890625 -0.265625 -2.03125q0 -0.984375 0.28125 -1.859375q0.296875 -0.875 0.828125 -1.53125q0.546875 -0.671875 1.328125 -1.0625q0.796875 -0.390625 1.796875 -0.390625q0.984375 0 1.734375 0.3125q0.75 0.296875 1.265625 0.859375q0.515625 0.5625 0.78125 1.375q0.265625 0.796875 0.265625 1.78125zm-1.6875 -0.21875q0.03125 -0.625 -0.125 -1.140625q-0.140625 -0.515625 -0.453125 -0.890625q-0.3125 -0.375 -0.78125 -0.578125q-0.453125 -0.203125 -1.078125 -0.203125q-0.515625 0 -0.953125 0.203125q-0.4375 0.203125 -0.765625 0.578125q-0.3125 0.359375 -0.5 0.890625q-0.1875 0.515625 -0.234375 1.140625l4.890625 0z" fill-rule="nonzero"></path><path fill="#980000" d="m436.11298 118.94973q-4.28125 -3.953125 -4.28125 -8.75q0 -1.125 0.21875 -2.234375q0.234375 -1.125 0.734375 -2.25q0.515625 -1.125 1.34375 -2.234375q0.828125 -1.125 2.015625 -2.234375l0.9375 0.953125q-3.59375 3.546875 -3.59375 7.875q0 2.15625 0.90625 4.140625q0.90625 1.984375 2.6875 3.75l-0.96875 0.984375zm6.5854187 -17.703125q4.265625 3.953125 4.265625 8.8125q0 1.0 -0.203125 2.078125q-0.203125 1.078125 -0.703125 2.203125q-0.484375 1.125 -1.3125 2.28125q-0.828125 1.171875 -2.09375 2.328125l-0.9375 -0.953125q1.8125 -1.78125 2.703125 -3.734375q0.890625 -1.953125 0.890625 -4.078125q0 -4.421875 -3.59375 -7.953125l0.984375 -0.984375z" fill-rule="nonzero"></path><path fill="#000000" d="m451.7682 116.965355q0.484375 0.015625 0.921875 -0.09375q0.453125 -0.09375 0.78125 -0.296875q0.34375 -0.203125 0.546875 -0.5q0.203125 -0.296875 0.203125 -0.671875q0 -0.390625 -0.140625 -0.625q-0.125 -0.25 -0.296875 -0.453125q-0.171875 -0.203125 -0.3125 -0.4375q-0.125 -0.234375 -0.125 -0.625q0 -0.1875 0.078125 -0.390625q0.078125 -0.21875 0.21875 -0.390625q0.15625 -0.1875 0.390625 -0.296875q0.25 -0.109375 0.5625 -0.109375q0.328125 0 0.625 0.140625q0.3125 0.125 0.53125 0.40625q0.234375 0.28125 0.359375 0.703125q0.140625 0.40625 0.140625 0.96875q0 0.78125 -0.28125 1.484375q-0.28125 0.703125 -0.84375 1.25q-0.5625 0.5625 -1.40625 0.875q-0.828125 0.328125 -1.953125 0.328125l0 -1.265625z" fill-rule="nonzero"></path><path fill="#0000ff" d="m479.82965 103.44973q-1.265625 -0.265625 -2.1875 -0.265625q-2.1875 0 -2.1875 2.28125l0 1.640625l4.09375 0l0 1.34375l-4.09375 0l0 6.609375l-1.640625 0l0 -6.609375l-2.984375 0l0 -1.34375l2.984375 0l0 -1.546875q0 -3.71875 3.875 -3.71875q0.96875 0 2.140625 0.21875l0 1.390625zm-9.75 2.296875l0 0z" fill-rule="nonzero"></path><path fill="#980000" d="m497.65674 118.94973q-4.28125 -3.953125 -4.28125 -8.75q0 -1.125 0.21875 -2.234375q0.234375 -1.125 0.734375 -2.25q0.515625 -1.125 1.34375 -2.234375q0.828125 -1.125 2.015625 -2.234375l0.9375 0.953125q-3.59375 3.546875 -3.59375 7.875q0 2.15625 0.90625 4.140625q0.90625 1.984375 2.6875 3.75l-0.96875 0.984375zm6.5854187 -17.703125q4.265625 3.953125 4.265625 8.8125q0 1.0 -0.203125 2.078125q-0.203125 1.078125 -0.703125 2.203125q-0.484375 1.125 -1.3125 2.28125q-0.828125 1.171875 -2.09375 2.328125l-0.9375 -0.953125q1.8125 -1.78125 2.703125 -3.734375q0.890625 -1.953125 0.890625 -4.078125q0 -4.421875 -3.59375 -7.953125l0.984375 -0.984375z" fill-rule="nonzero"></path><path fill="#980000" d="m524.7567 101.246605q4.265625 3.953125 4.265625 8.8125q0 1.0 -0.203125 2.078125q-0.203125 1.078125 -0.703125 2.203125q-0.484375 1.125 -1.3125 2.28125q-0.828125 1.171875 -2.09375 2.328125l-0.9375 -0.953125q1.8125 -1.78125 2.703125 -3.734375q0.890625 -1.953125 0.890625 -4.078125q0 -4.421875 -3.59375 -7.953125l0.984375 -0.984375zm20.514648 0q4.265625 3.953125 4.265625 8.8125q0 1.0 -0.203125 2.078125q-0.203125 1.078125 -0.703125 2.203125q-0.484375 1.125 -1.3125 2.28125q-0.828125 1.171875 -2.09375 2.328125l-0.9375 -0.953125q1.8125 -1.78125 2.703125 -3.734375q0.890625 -1.953125 0.890625 -4.078125q0 -4.421875 -3.59375 -7.953125l0.984375 -0.984375z" fill-rule="nonzero"></path><path fill="#d0e0e3" d="m433.02225 144.22713l64.97638 0l0 384.75592l-64.97638 0z" fill-rule="nonzero"></path><path stroke="#000000" stroke-width="1.0" stroke-linejoin="round" stroke-linecap="butt" d="m433.02225 144.22713l64.97638 0l0 384.75592l-64.97638 0z" fill-rule="nonzero"></path><path fill="#434343" d="m469.6318 285.2438q0 0.859375 -0.359375 1.515625q-0.34375 0.640625 -0.984375 1.078125q-0.625 0.421875 -1.515625 0.640625q-0.875 0.21875 -1.953125 0.21875q-0.46875 0 -0.953125 -0.046875q-0.484375 -0.03125 -0.921875 -0.09375q-0.4375 -0.046875 -0.828125 -0.125q-0.390625 -0.078125 -0.703125 -0.15625l0 -1.59375q0.6875 0.25 1.546875 0.40625q0.875 0.140625 1.984375 0.140625q0.796875 0 1.359375 -0.125q0.5625 -0.125 0.921875 -0.359375q0.359375 -0.25 0.515625 -0.59375q0.171875 -0.359375 0.171875 -0.8125q0 -0.5 -0.28125 -0.84375q-0.265625 -0.34375 -0.71875 -0.609375q-0.4375 -0.28125 -1.015625 -0.5q-0.578125 -0.234375 -1.171875 -0.46875q-0.59375 -0.25 -1.171875 -0.53125q-0.5625 -0.28125 -1.015625 -0.671875q-0.4375 -0.390625 -0.71875 -0.90625q-0.265625 -0.515625 -0.265625 -1.234375q0 -0.625 0.265625 -1.21875q0.265625 -0.609375 0.8125 -1.078125q0.546875 -0.46875 1.40625 -0.75q0.859375 -0.296875 2.046875 -0.296875q0.296875 0 0.65625 0.03125q0.359375 0.03125 0.71875 0.078125q0.375 0.046875 0.734375 0.125q0.359375 0.0625 0.65625 0.125l0 1.484375q-0.71875 -0.203125 -1.4375 -0.296875q-0.703125 -0.109375 -1.375 -0.109375q-1.421875 0 -2.09375 0.46875q-0.65625 0.46875 -0.65625 1.265625q0 0.5 0.265625 0.859375q0.28125 0.34375 0.71875 0.625q0.453125 0.28125 1.015625 0.515625q0.578125 0.21875 1.171875 0.46875q0.59375 0.234375 1.15625 0.515625q0.578125 0.28125 1.015625 0.6875q0.453125 0.390625 0.71875 0.921875q0.28125 0.515625 0.28125 1.25z" fill-rule="nonzero"></path><path fill="#434343" d="m469.14743 310.52505l-6.90625 0l0 -12.125l6.90625 0l0 1.390625l-5.25 0l0 3.75l5.03125 0l0 1.40625l-5.03125 0l0 4.171875l5.25 0l0 1.40625z" fill-rule="nonzero"></path><path fill="#434343" d="m470.1318 332.52505l-1.859375 0l-1.8125 -3.875q-0.203125 -0.453125 -0.421875 -0.734375q-0.203125 -0.296875 -0.453125 -0.46875q-0.25 -0.171875 -0.546875 -0.25q-0.28125 -0.078125 -0.640625 -0.078125l-0.78125 0l0 5.40625l-1.65625 0l0 -12.125l3.25 0q1.046875 0 1.8125 0.234375q0.765625 0.234375 1.25 0.65625q0.484375 0.40625 0.703125 1.0q0.234375 0.578125 0.234375 1.296875q0 0.5625 -0.171875 1.078125q-0.15625 0.5 -0.484375 0.921875q-0.328125 0.40625 -0.828125 0.71875q-0.484375 0.296875 -1.109375 0.4375q0.515625 0.171875 0.859375 0.625q0.359375 0.4375 0.734375 1.171875l1.921875 3.984375zm-2.640625 -8.796875q0 -0.96875 -0.609375 -1.453125q-0.609375 -0.484375 -1.71875 -0.484375l-1.546875 0l0 4.015625l1.328125 0q0.59375 0 1.0625 -0.140625q0.46875 -0.140625 0.796875 -0.40625q0.328125 -0.265625 0.5 -0.640625q0.1875 -0.390625 0.1875 -0.890625z" fill-rule="nonzero"></path><path fill="#434343" d="m470.78806 342.40005l-4.109375 12.125l-2.234375 0l-4.03125 -12.125l1.875 0l2.609375 8.171875l0.75 2.390625l0.75 -2.390625l2.625 -8.171875l1.765625 0z" fill-rule="nonzero"></path><path fill="#434343" d="m469.14743 376.52505l-6.90625 0l0 -12.125l6.90625 0l0 1.390625l-5.25 0l0 3.75l5.03125 0l0 1.40625l-5.03125 0l0 4.171875l5.25 0l0 1.40625z" fill-rule="nonzero"></path><path fill="#434343" d="m470.1318 398.52505l-1.859375 0l-1.8125 -3.875q-0.203125 -0.453125 -0.421875 -0.734375q-0.203125 -0.296875 -0.453125 -0.46875q-0.25 -0.171875 -0.546875 -0.25q-0.28125 -0.078125 -0.640625 -0.078125l-0.78125 0l0 5.40625l-1.65625 0l0 -12.125l3.25 0q1.046875 0 1.8125 0.234375q0.765625 0.234375 1.25 0.65625q0.484375 0.40625 0.703125 1.0q0.234375 0.578125 0.234375 1.296875q0 0.5625 -0.171875 1.078125q-0.15625 0.5 -0.484375 0.921875q-0.328125 0.40625 -0.828125 0.71875q-0.484375 0.296875 -1.109375 0.4375q0.515625 0.171875 0.859375 0.625q0.359375 0.4375 0.734375 1.171875l1.921875 3.984375zm-2.640625 -8.796875q0 -0.96875 -0.609375 -1.453125q-0.609375 -0.484375 -1.71875 -0.484375l-1.546875 0l0 4.015625l1.328125 0q0.59375 0 1.0625 -0.140625q0.46875 -0.140625 0.796875 -0.40625q0.328125 -0.265625 0.5 -0.640625q0.1875 -0.390625 0.1875 -0.890625z" fill-rule="nonzero"></path><path fill="#d0e0e3" d="m208.50131 144.22713l64.97638 0l0 384.75592l-64.97638 0z" fill-rule="nonzero"></path><path stroke="#000000" stroke-width="1.0" stroke-linejoin="round" stroke-linecap="butt" d="m208.50131 144.22713l64.97638 0l0 384.75592l-64.97638 0z" fill-rule="nonzero"></path><path fill="#434343" d="m245.09523 288.07193q-1.453125 0.609375 -3.0625 0.609375q-2.5625 0 -3.9375 -1.53125q-1.375 -1.546875 -1.375 -4.546875q0 -1.46875 0.375 -2.640625q0.375 -1.171875 1.078125 -2.0q0.71875 -0.828125 1.71875 -1.265625q1.0 -0.453125 2.234375 -0.453125q0.84375 0 1.5625 0.15625q0.734375 0.140625 1.40625 0.4375l0 1.625q-0.65625 -0.359375 -1.375 -0.546875q-0.703125 -0.203125 -1.53125 -0.203125q-0.859375 0 -1.546875 0.328125q-0.6875 0.3125 -1.171875 0.921875q-0.484375 0.609375 -0.75 1.484375q-0.25 0.875 -0.25 2.0q0 2.359375 0.953125 3.5625q0.953125 1.1875 2.796875 1.1875q0.78125 0 1.5 -0.171875q0.71875 -0.1875 1.375 -0.515625l0 1.5625z" fill-rule="nonzero"></path><path fill="#434343" d="m245.00148 310.52505l-6.984375 0l0 -12.125l1.6875 0l0 10.71875l5.296875 0l0 1.40625z" fill-rule="nonzero"></path><path fill="#434343" d="m240.25148 321.79068l-2.796875 0l0 -1.390625l7.25 0l0 1.390625l-2.78125 0l0 9.328125l2.78125 0l0 1.40625l-7.25 0l0 -1.40625l2.796875 0l0 -9.328125z" fill-rule="nonzero"></path><path fill="#434343" d="m244.62648 354.52505l-6.90625 0l0 -12.125l6.90625 0l0 1.390625l-5.25 0l0 3.75l5.03125 0l0 1.40625l-5.03125 0l0 4.171875l5.25 0l0 1.40625z" fill-rule="nonzero"></path><path fill="#434343" d="m245.22023 376.52505l-2.15625 0l-3.53125 -7.5625l-1.03125 -2.421875l0 6.109375l0 3.875l-1.53125 0l0 -12.125l2.125 0l3.359375 7.15625l1.21875 2.78125l0 -6.5l0 -3.4375l1.546875 0l0 12.125z" fill-rule="nonzero"></path><path fill="#434343" d="m245.5171 387.8063l-3.59375 0l0 10.71875l-1.671875 0l0 -10.71875l-3.59375 0l0 -1.40625l8.859375 0l0 1.40625z" fill-rule="nonzero"></path><path fill="#000000" fill-opacity="0.0" d="m275.37988 154.37495l159.52756 23.685043" fill-rule="nonzero"></path><path stroke="#e06666" stroke-width="1.0" stroke-linejoin="round" stroke-linecap="butt" d="m275.3799 154.37495l156.1376 23.181747" fill-rule="evenodd"></path><path fill="#e06666" stroke="#e06666" stroke-width="1.0" stroke-linecap="butt" d="m431.51752 177.5567l-1.2775574 0.9472351l3.2214355 -0.6586304l-2.8911133 -1.5661621z" fill-rule="evenodd"></path><path fill="#000000" fill-opacity="0.0" d="m343.18604 134.28076l22.677185 2.9606323l-2.551178 14.992126l-22.677185 -2.9606323z" fill-rule="nonzero"></path><path fill="#e06666" d="m354.0799 156.38391l1.5900879 0.42819214q-0.5466919 1.6304474 -1.8093567 2.4425812q-1.2600708 0.79670715 -2.871399 0.5863342q-1.9986572 -0.26094055 -3.0022888 -1.7156067q-0.98553467 -1.4680634 -0.57107544 -3.903656q0.26757812 -1.5723419 0.97821045 -2.6771393q0.72875977 -1.1181946 1.8974915 -1.5643921q1.1868591 -0.45959473 2.4418335 -0.2957611q1.5958252 0.2083435 2.4664917 1.1414185q0.870697 0.9330597 0.9132385 2.451355l-1.6532898 0.03627014q-0.06451416 -1.0169067 -0.56933594 -1.5870667q-0.5048218 -0.57014465 -1.3259583 -0.6773529q-1.2549744 -0.16383362 -2.1972961 0.6270752q-0.92681885 0.79293823 -1.2547302 2.7198334q-0.33312988 1.9577179 0.27389526 2.9509125q0.6096802 0.9777832 1.8181763 1.1355591q0.9760742 0.12742615 1.7265015 -0.37338257q0.75302124 -0.51623535 1.1488037 -1.725174z" fill-rule="nonzero"></path><path fill="#000000" fill-opacity="0.0" d="m273.4716 190.73802l160.53543 -11.842529" fill-rule="nonzero"></path><path stroke="#e06666" stroke-width="1.0" stroke-linejoin="round" stroke-linecap="butt" d="m276.88937 190.48589l157.11765 -11.590378" fill-rule="evenodd"></path><path fill="#e06666" stroke="#e06666" stroke-width="1.0" stroke-linecap="butt" d="m276.88937 190.4859l1.0388184 -1.2042694l-2.9986572 1.3488464l3.1641235 0.8942261z" fill-rule="evenodd"></path><path fill="#000000" fill-opacity="0.0" d="m275.37988 209.34238l158.61417 19.433075" fill-rule="nonzero"></path><path stroke="#93c47d" stroke-width="1.0" stroke-linejoin="round" stroke-linecap="butt" d="m275.3799 209.34238l155.2125 19.016296" fill-rule="evenodd"></path><path fill="#93c47d" stroke="#93c47d" stroke-width="1.0" stroke-linecap="butt" d="m430.5924 228.35869l-1.2529907 0.9794769l3.2035828 -0.7404938l-2.9300842 -1.4919891z" fill-rule="evenodd"></path><path fill="#000000" fill-opacity="0.0" d="m333.4637 185.07516l55.62204 7.3385773l-2.551178 14.992126l-55.62204 -7.3385773z" fill-rule="nonzero"></path><path fill="#93c47d" d="m344.0724 210.80086l-1.5335693 -0.20233154l2.282013 -13.410477l1.6420288 0.21664429l-0.81314087 4.7784424q1.2763367 -1.1712341 2.9028625 -0.9566345q0.898468 0.11853027 1.6410217 0.5947571q0.74520874 0.46080017 1.1436157 1.1910706q0.4165039 0.7168884 0.5534363 1.6805725q0.13696289 0.96369934 -0.041412354 2.0118713q-0.42492676 2.4971313 -1.897644 3.70549q-1.4700928 1.1929626 -3.2050476 0.96406555q-1.7349548 -0.22891235 -2.4669495 -1.7911987l-0.20721436 1.2177277zm0.82388306 -4.9346313q-0.29638672 1.7418213 0.0345459 2.589264q0.5749512 1.3682098 1.907135 1.5439758q1.0843506 0.1430664 2.0317688 -0.6775665q0.9500427 -0.83602905 1.2674255 -2.7011719q0.32263184 -1.8959656 -0.28164673 -2.905548q-0.6043091 -1.0095978 -1.6731567 -1.1506195q-1.0843506 -0.1430664 -2.0343933 0.6929779q-0.9500427 0.8360443 -1.2516785 2.6086884zm10.417725 10.452469q-1.069397 -1.90625 -1.6235046 -4.327667q-0.55148315 -2.4368134 -0.13180542 -4.9031067q0.37246704 -2.1888428 1.4079285 -4.085312q1.22995 -2.2017975 3.340271 -4.2716675l1.1927795 0.15737915q-1.4379578 1.7488098 -1.9332886 2.518753q-0.7727356 1.1903992 -1.3315125 2.5193634q-0.6939087 1.6578522 -0.9876709 3.384262q-0.7501831 4.408493 1.2595825 9.165375l-1.1927795 -0.15737915zm10.658783 -6.2690277l1.5898132 0.43040466q-0.54663086 1.6300049 -1.809082 2.4405823q-1.2598572 0.795166 -2.8709106 0.5826111q-1.998291 -0.26365662 -3.0017395 -1.7199249q-0.98532104 -1.469635 -0.5708618 -3.9050903q0.2675476 -1.5722656 0.9780884 -2.6763153q0.7286377 -1.1174164 1.8971863 -1.5621338q1.1866455 -0.45809937 2.4414062 -0.2925415q1.5955505 0.21051025 2.466034 1.1448975q0.8705139 0.9343872 0.9130249 2.453003l-1.6530151 0.034072876q-0.06448364 -1.0171661 -0.56918335 -1.588089q-0.5047302 -0.57092285 -1.3257141 -0.679245q-1.2547607 -0.16555786 -2.19693 0.62423706q-0.92666626 0.79185486 -1.2545471 2.7186432q-0.33312988 1.9576111 0.2737732 2.9517975q0.6095581 0.97875977 1.8178406 1.1381836q0.9758911 0.12875366 1.7261963 -0.3711548q0.75289917 -0.5153198 1.1486206 -1.723938zm2.6727295 8.027954l-1.1772766 -0.15533447q3.4894104 -4.0313263 4.2395935 -8.439835q0.2911682 -1.7109833 0.19244385 -3.4576569q-0.09185791 -1.4147949 -0.43444824 -2.7523499q-0.21463013 -0.8793793 -1.0047302 -2.937912l1.1773071 0.15531921q1.3441162 2.52565 1.771698 4.946121q0.37420654 2.0824585 0.0017089844 4.2713013q-0.41967773 2.4662933 -1.7735596 4.651718q-1.3357544 2.1720734 -2.9927368 3.718628z" fill-rule="nonzero"></path><path fill="#000000" fill-opacity="0.0" d="m276.33405 274.71732l159.52756 23.685028" fill-rule="nonzero"></path><path stroke="#bf9000" stroke-width="1.0" stroke-linejoin="round" stroke-linecap="butt" d="m276.33405 274.71732l156.1376 23.181732" fill-rule="evenodd"></path><path fill="#bf9000" stroke="#bf9000" stroke-width="1.0" stroke-linecap="butt" d="m432.47165 297.89905l-1.2775269 0.9472351l3.221405 -0.6586304l-2.8911133 -1.5661621z" fill-rule="evenodd"></path><path fill="#000000" fill-opacity="0.0" d="m343.18744 255.03127l22.677185 2.9606476l-2.551178 14.992126l-22.677185 -2.9606323z" fill-rule="nonzero"></path><path fill="#bf9000" d="m353.7983 277.53867l1.667572 0.43832397q-0.6546631 1.4272766 -1.8963318 2.1160583q-1.2236023 0.67541504 -2.927887 0.45291138q-2.138092 -0.2791443 -3.170105 -1.7532654q-1.0320129 -1.4741516 -0.62802124 -3.848053q0.41708374 -2.4510193 1.9028931 -3.6437073q1.5013123 -1.1906738 3.5309448 -0.9256897q1.9676819 0.25689697 2.9815674 1.7444153q1.0138855 1.4875183 0.6020508 3.9077148q-0.023590088 0.13873291 -0.08892822 0.42959595l-7.281952 -0.9507141q-0.1798706 1.6153259 0.4970398 2.570343q0.6768799 0.9550476 1.9008484 1.1148376q0.8986206 0.11734009 1.6125488 -0.2621765q0.73205566 -0.39291382 1.29776 -1.3905945zm-4.9844055 -3.3768005l5.453705 0.7120056q0.0987854 -1.2319336 -0.30758667 -1.9153137q-0.62753296 -1.0588989 -1.8979797 -1.224762q-1.1310425 -0.14764404 -2.0523682 0.5199585q-0.90319824 0.6541748 -1.1957703 1.9081116z" fill-rule="nonzero"></path><path fill="#000000" fill-opacity="0.0" d="m274.42575 311.08038l160.53543 -11.842529" fill-rule="nonzero"></path><path stroke="#bf9000" stroke-width="1.0" stroke-linejoin="round" stroke-linecap="butt" d="m277.84354 310.82825l157.11761 -11.590393" fill-rule="evenodd"></path><path fill="#bf9000" stroke="#bf9000" stroke-width="1.0" stroke-linecap="butt" d="m277.84354 310.82825l1.0387878 -1.2042542l-2.9986572 1.3488464l3.1641235 0.8942261z" fill-rule="evenodd"></path><path fill="#000000" fill-opacity="0.0" d="m275.38113 346.36475l159.52756 23.685028" fill-rule="nonzero"></path><path stroke="#134f5c" stroke-width="1.0" stroke-linejoin="round" stroke-linecap="butt" d="m275.38116 346.36475l156.1376 23.181732" fill-rule="evenodd"></path><path fill="#134f5c" stroke="#134f5c" stroke-width="1.0" stroke-linecap="butt" d="m431.51877 369.54648l-1.2775269 0.9472351l3.221405 -0.6586304l-2.8910828 -1.5661316z" fill-rule="evenodd"></path><path fill="#000000" fill-opacity="0.0" d="m343.18732 325.66556l22.677155 2.9606323l-2.551178 14.992126l-22.677185 -2.9606323z" fill-rule="nonzero"></path><path fill="#134f5c" d="m349.54965 350.8171l1.4348755 -8.432098l-1.4718628 -0.19213867l0.22033691 -1.2948914l1.4718933 0.19216919l0.17575073 -1.0328064q0.16525269 -0.9711609 0.4169922 -1.4267883q0.34259033 -0.6170654 1.0123901 -0.923584q0.67245483 -0.3218994 1.757019 -0.18029785q0.6972046 0.091033936 1.5231018 0.3564148l-0.49447632 1.4166565q-0.49554443 -0.15924072 -0.96035767 -0.21990967q-0.7591553 -0.099121094 -1.124115 0.18414307q-0.3623352 0.26785278 -0.51187134 1.1465149l-0.15213013 0.8940735l1.9057007 0.24880981l-0.22033691 1.2948608l-1.9057007 -0.24880981l-1.4348755 8.432098l-1.642334 -0.2144165z" fill-rule="nonzero"></path><path fill="#000000" fill-opacity="0.0" d="m273.47284 382.7278l160.53543 -11.842529" fill-rule="nonzero"></path><path stroke="#134f5c" stroke-width="1.0" stroke-linejoin="round" stroke-linecap="butt" d="m276.89062 382.47568l157.11765 -11.590393" fill-rule="evenodd"></path><path fill="#134f5c" stroke="#134f5c" stroke-width="1.0" stroke-linecap="butt" d="m276.89062 382.47568l1.0388184 -1.2042542l-2.9986572 1.3488464l3.1641235 0.8942261z" fill-rule="evenodd"></path><path fill="#000000" fill-opacity="0.0" d="m275.37988 417.41953l159.52756 23.685059" fill-rule="nonzero"></path><path stroke="#a64d79" stroke-width="1.0" stroke-linejoin="round" stroke-linecap="butt" d="m275.3799 417.41953l156.1376 23.181732" fill-rule="evenodd"></path><path fill="#a64d79" stroke="#a64d79" stroke-width="1.0" stroke-linecap="butt" d="m431.51752 440.6013l-1.2775574 0.9472351l3.2214355 -0.6586304l-2.8911133 -1.5661621z" fill-rule="evenodd"></path><path fill="#000000" fill-opacity="0.0" d="m318.4788 393.75833l72.09448 9.480316l-2.551178 14.992126l-72.09448 -9.480316z" fill-rule="nonzero"></path><path fill="#741b47" d="m336.46692 420.44815l0.20986938 -1.2331848q-1.1760864 1.3267517 -2.973114 1.0904541q-1.1618652 -0.15280151 -2.0457764 -0.91516113q-0.8658142 -0.77575684 -1.2139282 -1.9877319q-0.32995605 -1.2253723 -0.075531006 -2.720581q0.24655151 -1.4489746 0.928772 -2.5727234q0.6977234 -1.1217346 1.7657471 -1.6274414q1.0835266 -0.5036621 2.29187 -0.34475708q0.8830261 0.116119385 1.501709 0.5756836q0.6341553 0.4616394 0.9656372 1.1198425l0.8183899 -4.8093567l1.6421204 0.21594238l-2.282074 13.410675l-1.5336914 -0.20166016zm-4.4098816 -5.544159q-0.31741333 1.8651733 0.3152771 2.8939514q0.64819336 1.0307922 1.717102 1.1713562q1.0844116 0.14260864 1.993042 -0.63619995q0.90859985 -0.7788086 1.2181091 -2.5977478q0.3383789 -1.9884644 -0.2788086 -3.0151978q-0.6145935 -1.0421448 -1.7454834 -1.1908569q-1.099884 -0.14465332 -1.995636 0.6516113q-0.89572144 0.79626465 -1.2236023 2.7230835zm10.849762 10.425415q-1.0694885 -1.9057007 -1.6236267 -4.326721q-0.5515442 -2.4364624 -0.13183594 -4.9028015q0.37246704 -2.1888733 1.407959 -4.085663q1.230011 -2.2022095 3.3404236 -4.2728577l1.1928406 0.15686035q-1.4380188 1.7493286 -1.9333496 2.5194397q-0.77279663 1.1906738 -1.3315735 2.5197754q-0.6939392 1.6580505 -0.98773193 3.384491q-0.7501831 4.4085693 1.2597351 9.164337l-1.1928406 -0.15686035zm10.895721 -5.8008423l1.6673584 0.43988037q-0.65460205 1.4268494 -1.8961487 2.1145935q-1.2234192 0.67437744 -2.9275208 0.45028687q-2.137848 -0.28112793 -3.1697083 -1.7563782q-1.0318604 -1.4752197 -0.62789917 -3.8490906q0.41705322 -2.4508972 1.90271 -3.642395q1.5011597 -1.1894226 3.530548 -0.9225769q1.9674377 0.25872803 2.9812012 1.747345q1.0137329 1.4886475 0.6019287 3.908722q-0.023620605 0.13873291 -0.08895874 0.42956543l-7.281067 -0.9574585q-0.17984009 1.6153564 0.49694824 2.5711365q0.67678833 0.9557495 1.9006348 1.1166992q0.89849854 0.118133545 1.6123657 -0.2607727q0.7319641 -0.39230347 1.2976074 -1.3895569zm-4.9837646 -3.3817444l5.453064 0.71707153q0.0987854 -1.2320251 -0.30752563 -1.9158325q-0.6274414 -1.0596008 -1.8977661 -1.226654q-1.1308899 -0.14868164 -2.052124 0.51812744q-0.9031067 0.6534729 -1.1956482 1.9072876zm8.479828 7.0406494l0.32000732 -1.8805847l1.8899841 0.24853516l-0.32000732 1.8805847q-0.17575073 1.0327759 -0.65509033 1.6158752q-0.4819641 0.59854126 -1.329773 0.83377075l-0.3440857 -0.77020264q0.56344604 -0.14654541 0.88739014 -0.5609741q0.3239441 -0.4144287 0.4965515 -1.2427368l-0.9449768 -0.12426758zm5.1080627 0.6717224l1.434845 -8.431793l-1.4717102 -0.19351196l0.22033691 -1.2948303l1.4717102 0.19351196l0.17572021 -1.0327759q0.16525269 -0.97109985 0.4169922 -1.4265442q0.3425293 -0.6168823 1.0122986 -0.9227905q0.6723633 -0.32131958 1.7567749 -0.17871094q0.69714355 0.09164429 1.5229492 0.35784912l-0.4944458 1.4163818q-0.4954834 -0.159729 -0.9602356 -0.2208252q-0.75909424 -0.099823 -1.1239929 0.18313599q-0.3623047 0.2675476 -0.5118103 1.1461792l-0.15216064 0.89404297l1.9054871 0.25057983l-0.22033691 1.2947998l-1.9054871 -0.25054932l-1.4348145 8.431763l-1.6421204 -0.21591187zm5.1492004 4.7115173l-1.1773682 -0.15481567q3.4895935 -4.0325623 4.239807 -8.441132q0.2911377 -1.711029 0.19238281 -3.4575806q-0.09185791 -1.4146729 -0.43447876 -2.7519836q-0.21466064 -0.87924194 -1.0047913 -2.9373474l1.1773682 0.15484619q1.3442383 2.5249329 1.7718201 4.9450684q0.37423706 2.0821838 0.0017700195 4.271057q-0.41970825 2.466339 -1.7736206 4.6522217q-1.335846 2.1725159 -2.9928894 3.7196655z" fill-rule="nonzero"></path><path fill="#000000" fill-opacity="0.0" d="m273.4716 453.7826l160.53543 -11.842499" fill-rule="nonzero"></path><path stroke="#741b47" stroke-width="1.0" stroke-linejoin="round" stroke-linecap="butt" d="m276.88937 453.53046l157.11765 -11.590363" fill-rule="evenodd"></path><path fill="#741b47" stroke="#741b47" stroke-width="1.0" stroke-linecap="butt" d="m276.88937 453.5305l1.0388184 -1.2042847l-2.9986572 1.3488464l3.1641235 0.8942261z" fill-rule="evenodd"></path><path fill="#000000" fill-opacity="0.0" d="m274.42447 484.65225l159.52759 23.685028" fill-rule="nonzero"></path><path stroke="#3d85c6" stroke-width="1.0" stroke-linejoin="round" stroke-linecap="butt" d="m274.42447 484.65222l156.13766 23.181732" fill-rule="evenodd"></path><path fill="#3d85c6" stroke="#3d85c6" stroke-width="1.0" stroke-linecap="butt" d="m430.56213 507.83395l-1.2775574 0.9472351l3.2214355 -0.65859985l-2.8911133 -1.5661621z" fill-rule="evenodd"></path><path fill="#000000" fill-opacity="0.0" d="m272.51617 521.0153l160.53543 -11.842529" fill-rule="nonzero"></path><path stroke="#3c78d8" stroke-width="1.0" stroke-linejoin="round" stroke-linecap="butt" d="m275.93396 520.7632l157.11765 -11.590393" fill-rule="evenodd"></path><path fill="#3c78d8" stroke="#3c78d8" stroke-width="1.0" stroke-linecap="butt" d="m275.934 520.7632l1.0387878 -1.2042847l-2.9986572 1.348877l3.1641235 0.89416504z" fill-rule="evenodd"></path><path fill="#000000" fill-opacity="0.0" d="m318.4788 462.90244l72.09448 9.480316l-2.551178 14.992126l-72.09448 -9.480316z" fill-rule="nonzero"></path><path fill="#3d85c6" d="m334.14395 488.05753q-1.0632629 0.6639099 -1.970398 0.87557983q-0.9045105 0.19625854 -1.8804626 0.06790161q-1.5956421 -0.20980835 -2.3320312 -1.0946045q-0.73373413 -0.90023804 -0.5265198 -2.117981q0.123291016 -0.7244873 0.5482788 -1.267456q0.4250183 -0.54299927 1.0120544 -0.8282471q0.58703613 -0.28527832 1.284668 -0.3826599q0.5193176 -0.07354736 1.5136719 -0.053100586q2.0558777 0.018188477 3.0559387 -0.1812439q0.05770874 -0.33914185 0.07345581 -0.4316101q0.17050171 -1.0019531 -0.22341919 -1.4792786q-0.54074097 -0.63842773 -1.7955627 -0.8034363q-1.1618652 -0.15280151 -1.7877502 0.1746521q-0.6259155 0.3274536 -1.067627 1.3410034l-1.5872803 -0.4451294q0.40811157 -1.0021973 1.011383 -1.5690308q0.6187744 -0.5647583 1.62146 -0.77960205q1.020813 -0.22824097 2.2911377 -0.06121826q1.2548218 0.16500854 1.9795532 0.5597534q0.72476196 0.39474487 1.0204773 0.8906555q0.29574585 0.49591064 0.31976318 1.1924744q0.022125244 0.42843628 -0.16412354 1.5228577l-0.37509155 2.2042847q-0.39083862 2.2967834 -0.40283203 2.9255676q0.006164551 0.615448 0.23706055 1.2131348l-1.7350769 -0.22814941q-0.17678833 -0.54330444 -0.12072754 -1.2451172zm0.48486328 -3.6870117q-0.9588318 0.23638916 -2.8159485 0.26010132q-1.046051 0.004272461 -1.4958191 0.13424683q-0.44973755 0.12997437 -0.74243164 0.45394897q-0.2927246 0.3239746 -0.3661499 0.7555847q-0.11279297 0.6628418 0.30685425 1.1750488q0.43777466 0.49884033 1.3982544 0.6251221q0.96047974 0.12631226 1.7749023 -0.19210815q0.8170471 -0.3338318 1.2940063 -0.9960327q0.3604126 -0.53570557 0.54403687 -1.6147461l0.10229492 -0.6011658zm5.703949 9.764496q-1.0694885 -1.9057007 -1.6236572 -4.326721q-0.5515137 -2.4364624 -0.13183594 -4.9028015q0.37249756 -2.1888428 1.4079895 -4.085663q1.230011 -2.202179 3.3404236 -4.272827l1.1928406 0.15686035q-1.4380188 1.7492981 -1.9333496 2.5194397q-0.77279663 1.1906433 -1.3315735 2.5197754q-0.6939392 1.6580505 -0.98773193 3.3844604q-0.7502136 4.4086 1.2597351 9.164337l-1.1928406 -0.15686035zm5.204529 -3.3500366l-1.5336914 -0.20166016l2.282074 -13.410706l1.6421204 0.21594238l-0.81314087 4.778534q1.2763672 -1.1717224 2.9030151 -0.9578247q0.89849854 0.118133545 1.6411133 0.59402466q0.74523926 0.46047974 1.1436768 1.1905212q0.41653442 0.7166748 0.5534973 1.6802673q0.13696289 0.963562 -0.041412354 2.0117493q-0.42492676 2.4971619 -1.8977356 3.7061157q-1.4701538 1.193512 -3.2052002 0.96533203q-1.7350769 -0.22814941 -2.467102 -1.7900391l-0.20721436 1.2177429zm0.82388306 -4.9346924q-0.29641724 1.7418518 0.034576416 2.5891113q0.5749817 1.3678894 1.9072571 1.5430603q1.0844116 0.14260864 2.0318604 -0.67837524q0.95007324 -0.83639526 1.2674866 -2.7015686q0.32263184 -1.8959961 -0.28170776 -2.9052734q-0.6043091 -1.0092773 -1.6732483 -1.1498413q-1.0844116 -0.14257812 -2.0344849 0.69381714q-0.95010376 0.83639526 -1.2517395 2.6090698zm8.363342 6.1427917l0.32003784 -1.8805542l1.8899841 0.24850464l-0.32003784 1.8805847q-0.17575073 1.0327759 -0.65509033 1.6159058q-0.4819641 0.59851074 -1.3297424 0.83374023l-0.3440857 -0.77020264q0.56344604 -0.1465149 0.8873596 -0.5609436q0.3239441 -0.4144287 0.49658203 -1.2427673l-0.9450073 -0.12426758zm11.041382 1.4519348l0.20983887 -1.2331543q-1.1760559 1.3267212 -2.9730835 1.0904236q-1.1618652 -0.152771 -2.0457764 -0.91516113q-0.8658142 -0.77575684 -1.2139282 -1.9877319q-0.32998657 -1.2253418 -0.075531006 -2.7205505q0.24655151 -1.4489746 0.928772 -2.572754q0.6977234 -1.1217346 1.7657471 -1.6274414q1.0835266 -0.5036621 2.29187 -0.34475708q0.8830261 0.116119385 1.501709 0.5757141q0.6341553 0.4616089 0.9656067 1.119812l0.8184204 -4.8093567l1.6421204 0.21594238l-2.282074 13.410706l-1.5336914 -0.20169067zm-4.409912 -5.5441284q-0.3173828 1.8651428 0.31530762 2.893921q0.64819336 1.0307922 1.717102 1.1713562q1.0844116 0.14260864 1.9930115 -0.63619995q0.9086304 -0.7788086 1.2181396 -2.5977478q0.3383789 -1.9884644 -0.2788086 -3.0151978q-0.6145935 -1.0421448 -1.7454834 -1.1908569q-1.099884 -0.1446228 -1.995636 0.65164185q-0.89572144 0.79626465 -1.2236328 2.7230835zm8.773895 10.152435l-1.1773376 -0.15484619q3.4895935 -4.0325623 4.2397766 -8.441132q0.2911682 -1.711029 0.19241333 -3.45755q-0.09188843 -1.4147034 -0.43447876 -2.7520142q-0.21466064 -0.87924194 -1.0047913 -2.937317l1.1773376 0.15481567q1.3442383 2.5249329 1.7718506 4.9450684q0.37423706 2.0822144 0.001739502 4.271057q-0.41967773 2.466339 -1.7736206 4.6522217q-1.3358154 2.1725159 -2.9928894 3.719696z" fill-rule="nonzero"></path><path fill="#000000" fill-opacity="0.0" d="m7.0 5.0l689.98425 0l0 49.007874l-689.98425 0z" fill-rule="nonzero"></path><path fill="#434343" d="m279.24628 31.451248q-0.8125 0.3125 -1.5625 0.46875q-0.75 0.171875 -1.578125 0.171875q-1.296875 0 -2.3125 -0.390625q-1.0 -0.390625 -1.703125 -1.140625q-0.6875 -0.765625 -1.046875 -1.890625q-0.34375 -1.125 -0.34375 -2.625q0 -1.53125 0.390625 -2.71875q0.390625 -1.1875 1.109375 -2.015625q0.71875 -0.828125 1.75 -1.25q1.046875 -0.4375 2.328125 -0.4375q0.421875 0 0.78125 0.03125q0.375 0.015625 0.71875 0.0625q0.359375 0.046875 0.71875 0.140625q0.359375 0.078125 0.75 0.203125l0 2.265625q-0.78125 -0.375 -1.5 -0.53125q-0.71875 -0.15625 -1.296875 -0.15625q-0.859375 0 -1.484375 0.3125q-0.609375 0.3125 -1.0 0.875q-0.390625 0.5625 -0.578125 1.34375q-0.1875 0.765625 -0.1875 1.6875q0 0.984375 0.1875 1.765625q0.1875 0.765625 0.578125 1.3125q0.40625 0.53125 1.03125 0.8125q0.625 0.28125 1.484375 0.28125q0.296875 0 0.65625 -0.046875q0.359375 -0.0625 0.71875 -0.15625q0.375 -0.109375 0.734375 -0.234375q0.359375 -0.140625 0.65625 -0.28125l0 2.140625zm10.726044 -4.3125q0 1.109375 -0.328125 2.03125q-0.3125 0.921875 -0.90625 1.578125q-0.59375 0.65625 -1.453125 1.03125q-0.859375 0.359375 -1.96875 0.359375q-1.046875 0 -1.875 -0.3125q-0.8125 -0.3125 -1.390625 -0.90625q-0.578125 -0.609375 -0.890625 -1.515625q-0.296875 -0.921875 -0.296875 -2.140625q0 -1.125 0.3125 -2.03125q0.328125 -0.921875 0.921875 -1.578125q0.59375 -0.65625 1.453125 -1.0q0.875 -0.359375 1.953125 -0.359375q1.0625 0 1.890625 0.3125q0.828125 0.296875 1.390625 0.921875q0.578125 0.609375 0.875 1.515625q0.3125 0.90625 0.3125 2.09375zm-2.359375 0.046875q0 -1.46875 -0.5625 -2.203125q-0.546875 -0.734375 -1.625 -0.734375q-0.59375 0 -1.015625 0.234375q-0.40625 0.234375 -0.671875 0.640625q-0.265625 0.390625 -0.390625 0.9375q-0.125 0.53125 -0.125 1.140625q0 1.484375 0.59375 2.234375q0.59375 0.734375 1.609375 0.734375q0.578125 0 0.984375 -0.21875q0.421875 -0.234375 0.671875 -0.625q0.265625 -0.40625 0.390625 -0.953125q0.140625 -0.546875 0.140625 -1.1875zm9.741669 4.734375l0 -6.140625q0 -1.546875 -1.140625 -1.546875q-0.578125 0 -1.109375 0.46875q-0.515625 0.453125 -1.109375 1.25l0 5.96875l-2.25 0l0 -9.421875l1.953125 0l0.046875 1.390625q0.296875 -0.359375 0.609375 -0.65625q0.3125 -0.296875 0.671875 -0.5q0.359375 -0.21875 0.765625 -0.328125q0.421875 -0.109375 0.953125 -0.109375q0.71875 0 1.25 0.234375q0.546875 0.234375 0.90625 0.671875q0.359375 0.421875 0.53125 1.03125q0.1875 0.609375 0.1875 1.359375l0 6.328125l-2.265625 0zm9.913544 0l-2.609375 0l-3.734375 -9.421875l2.515625 0l1.953125 5.34375l0.59375 1.71875l0.578125 -1.65625l1.96875 -5.40625l2.4375 0l-3.703125 9.421875zm13.194794 -5.4375q0 0.234375 -0.015625 0.609375q-0.015625 0.359375 -0.046875 0.6875l-6.1875 0q0 0.625 0.1875 1.109375q0.1875 0.46875 0.53125 0.78125q0.359375 0.3125 0.84375 0.484375q0.484375 0.171875 1.078125 0.171875q0.6875 0 1.46875 -0.109375q0.78125 -0.109375 1.625 -0.34375l0 1.796875q-0.359375 0.09375 -0.78125 0.1875q-0.421875 0.078125 -0.875 0.140625q-0.4375 0.078125 -0.90625 0.109375q-0.453125 0.03125 -0.875 0.03125q-1.078125 0 -1.9375 -0.3125q-0.84375 -0.3125 -1.4375 -0.90625q-0.59375 -0.59375 -0.90625 -1.46875q-0.3125 -0.890625 -0.3125 -2.046875q0 -1.15625 0.3125 -2.09375q0.3125 -0.9375 0.890625 -1.609375q0.578125 -0.671875 1.390625 -1.03125q0.828125 -0.375 1.828125 -0.375q1.015625 0 1.78125 0.3125q0.765625 0.296875 1.28125 0.859375q0.53125 0.5625 0.796875 1.328125q0.265625 0.765625 0.265625 1.6875zm-2.296875 -0.328125q0 -0.546875 -0.15625 -0.953125q-0.140625 -0.421875 -0.390625 -0.6875q-0.25 -0.28125 -0.59375 -0.40625q-0.34375 -0.125 -0.734375 -0.125q-0.84375 0 -1.390625 0.578125q-0.546875 0.5625 -0.65625 1.59375l3.921875 0zm9.960419 5.765625l0 -6.140625q0 -1.546875 -1.140625 -1.546875q-0.578125 0 -1.109375 0.46875q-0.515625 0.453125 -1.109375 1.25l0 5.96875l-2.25 0l0 -9.421875l1.953125 0l0.046875 1.390625q0.296875 -0.359375 0.609375 -0.65625q0.3125 -0.296875 0.671875 -0.5q0.359375 -0.21875 0.765625 -0.328125q0.421875 -0.109375 0.953125 -0.109375q0.71875 0 1.25 0.234375q0.546875 0.234375 0.90625 0.671875q0.359375 0.421875 0.53125 1.03125q0.1875 0.609375 0.1875 1.359375l0 6.328125l-2.265625 0zm12.413544 -0.09375q-0.609375 0.140625 -1.234375 0.21875q-0.625 0.09375 -1.171875 0.09375q-0.9375 0 -1.609375 -0.203125q-0.671875 -0.1875 -1.109375 -0.578125q-0.4375 -0.40625 -0.65625 -1.015625q-0.203125 -0.625 -0.203125 -1.484375l0 -4.59375l-2.53125 0l0 -1.765625l2.53125 0l0 -2.421875l2.328125 -0.59375l0 3.015625l3.65625 0l0 1.765625l-3.65625 0l0 4.421875q0 0.8125 0.359375 1.234375q0.375 0.40625 1.25 0.40625q0.5625 0 1.078125 -0.09375q0.53125 -0.09375 0.96875 -0.21875l0 1.8125zm8.038544 -11.90625q0 0.296875 -0.125 0.578125q-0.109375 0.265625 -0.3125 0.46875q-0.1875 0.1875 -0.46875 0.3125q-0.265625 0.109375 -0.578125 0.109375q-0.3125 0 -0.59375 -0.109375q-0.265625 -0.125 -0.46875 -0.3125q-0.203125 -0.203125 -0.3125 -0.46875q-0.109375 -0.28125 -0.109375 -0.578125q0 -0.3125 0.109375 -0.578125q0.109375 -0.265625 0.3125 -0.46875q0.203125 -0.203125 0.46875 -0.3125q0.28125 -0.125 0.59375 -0.125q0.3125 0 0.578125 0.125q0.28125 0.109375 0.46875 0.3125q0.203125 0.203125 0.3125 0.46875q0.125 0.265625 0.125 0.578125zm-2.515625 4.34375l-2.65625 0l0 -1.765625l4.984375 0l0 7.65625l2.71875 0l0 1.765625l-8.03125 0l0 -1.765625l2.984375 0l0 -5.890625zm15.710419 2.875q0 1.109375 -0.328125 2.03125q-0.3125 0.921875 -0.90625 1.578125q-0.59375 0.65625 -1.453125 1.03125q-0.859375 0.359375 -1.96875 0.359375q-1.046875 0 -1.875 -0.3125q-0.8125 -0.3125 -1.390625 -0.90625q-0.578125 -0.609375 -0.890625 -1.515625q-0.296875 -0.921875 -0.296875 -2.140625q0 -1.125 0.3125 -2.03125q0.328125 -0.921875 0.921875 -1.578125q0.59375 -0.65625 1.453125 -1.0q0.875 -0.359375 1.953125 -0.359375q1.0625 0 1.890625 0.3125q0.828125 0.296875 1.390625 0.921875q0.578125 0.609375 0.875 1.515625q0.3125 0.90625 0.3125 2.09375zm-2.359375 0.046875q0 -1.46875 -0.5625 -2.203125q-0.546875 -0.734375 -1.625 -0.734375q-0.59375 0 -1.015625 0.234375q-0.40625 0.234375 -0.671875 0.640625q-0.265625 0.390625 -0.390625 0.9375q-0.125 0.53125 -0.125 1.140625q0 1.484375 0.59375 2.234375q0.59375 0.734375 1.609375 0.734375q0.578125 0 0.984375 -0.21875q0.421875 -0.234375 0.671875 -0.625q0.265625 -0.40625 0.390625 -0.953125q0.140625 -0.546875 0.140625 -1.1875zm9.741669 4.734375l0 -6.140625q0 -1.546875 -1.140625 -1.546875q-0.578125 0 -1.109375 0.46875q-0.515625 0.453125 -1.109375 1.25l0 5.96875l-2.25 0l0 -9.421875l1.953125 0l0.046875 1.390625q0.296875 -0.359375 0.609375 -0.65625q0.3125 -0.296875 0.671875 -0.5q0.359375 -0.21875 0.765625 -0.328125q0.421875 -0.109375 0.953125 -0.109375q0.71875 0 1.25 0.234375q0.546875 0.234375 0.90625 0.671875q0.359375 0.421875 0.53125 1.03125q0.1875 0.609375 0.1875 1.359375l0 6.328125l-2.265625 0zm10.554169 0l-0.0625 -1.234375q-0.296875 0.3125 -0.625 0.578125q-0.3125 0.265625 -0.703125 0.46875q-0.390625 0.1875 -0.859375 0.296875q-0.453125 0.109375 -1.0 0.109375q-0.71875 0 -1.265625 -0.21875q-0.546875 -0.21875 -0.921875 -0.59375q-0.375 -0.375 -0.5625 -0.90625q-0.1875 -0.546875 -0.1875 -1.203125q0 -0.671875 0.28125 -1.234375q0.28125 -0.5625 0.859375 -0.96875q0.578125 -0.40625 1.4375 -0.640625q0.875 -0.234375 2.046875 -0.234375l1.234375 0l0 -0.5625q0 -0.359375 -0.109375 -0.65625q-0.09375 -0.296875 -0.328125 -0.5q-0.21875 -0.203125 -0.578125 -0.3125q-0.359375 -0.109375 -0.890625 -0.109375q-0.84375 0 -1.65625 0.1875q-0.8125 0.1875 -1.5625 0.53125l0 -1.8125q0.671875 -0.265625 1.546875 -0.4375q0.890625 -0.171875 1.859375 -0.171875q1.046875 0 1.796875 0.203125q0.75 0.1875 1.234375 0.59375q0.484375 0.390625 0.71875 1.0q0.234375 0.59375 0.234375 1.390625l0 6.4375l-1.9375 0zm-0.328125 -4.171875l-1.375 0q-0.578125 0 -0.984375 0.125q-0.390625 0.109375 -0.640625 0.3125q-0.25 0.1875 -0.375 0.4375q-0.109375 0.25 -0.109375 0.546875q0 0.5625 0.359375 0.875q0.375 0.296875 1.015625 0.296875q0.46875 0 0.984375 -0.34375q0.515625 -0.34375 1.125 -0.984375l0 -1.265625zm7.7104187 -7.171875l-2.65625 0l0 -1.765625l4.984375 0l0 11.34375l2.71875 0l0 1.765625l-8.03125 0l0 -1.765625l2.984375 0l0 -9.578125zm23.498962 11.34375l-1.703125 -3.890625q-0.25 -0.5625 -0.6875 -0.84375q-0.421875 -0.28125 -1.0 -0.28125l-0.4375 0l0 5.015625l-2.28125 0l0 -12.125l3.53125 0q1.0 0 1.8125 0.171875q0.8125 0.171875 1.390625 0.578125q0.578125 0.390625 0.890625 1.03125q0.3125 0.640625 0.3125 1.5625q0 0.671875 -0.203125 1.203125q-0.1875 0.515625 -0.546875 0.890625q-0.34375 0.375 -0.84375 0.609375q-0.484375 0.21875 -1.046875 0.3125q0.4375 0.09375 0.8125 0.515625q0.375 0.40625 0.734375 1.1875l1.9375 4.0625l-2.671875 0zm-0.5625 -8.546875q0 -0.890625 -0.578125 -1.28125q-0.5625 -0.390625 -1.6875 -0.390625l-1.0 0l0 3.421875l0.921875 0q0.53125 0 0.953125 -0.109375q0.4375 -0.109375 0.734375 -0.328125q0.3125 -0.234375 0.484375 -0.5625q0.171875 -0.328125 0.171875 -0.75zm13.179169 0.28125q0 0.953125 -0.328125 1.75q-0.3125 0.796875 -0.9375 1.390625q-0.609375 0.578125 -1.546875 0.90625q-0.921875 0.328125 -2.140625 0.328125l-1.171875 0l0 3.890625l-2.296875 0l0 -12.125l3.5625 0q1.171875 0 2.078125 0.265625q0.90625 0.25 1.515625 0.75q0.625 0.484375 0.9375 1.203125q0.328125 0.71875 0.328125 1.640625zm-2.390625 0.15625q0 -0.484375 -0.15625 -0.875q-0.15625 -0.390625 -0.46875 -0.671875q-0.3125 -0.28125 -0.78125 -0.421875q-0.46875 -0.15625 -1.125 -0.15625l-1.203125 0l0 4.4375l1.28125 0q0.59375 0 1.046875 -0.15625q0.453125 -0.15625 0.765625 -0.453125q0.3125 -0.3125 0.46875 -0.734375q0.171875 -0.4375 0.171875 -0.96875zm12.288544 7.640625q-0.8125 0.3125 -1.5625 0.46875q-0.75 0.171875 -1.578125 0.171875q-1.296875 0 -2.3125 -0.390625q-1.0 -0.390625 -1.703125 -1.140625q-0.6875 -0.765625 -1.046875 -1.890625q-0.34375 -1.125 -0.34375 -2.625q0 -1.53125 0.390625 -2.71875q0.390625 -1.1875 1.109375 -2.015625q0.71875 -0.828125 1.75 -1.25q1.046875 -0.4375 2.328125 -0.4375q0.421875 0 0.78125 0.03125q0.375 0.015625 0.71875 0.0625q0.359375 0.046875 0.71875 0.140625q0.359375 0.078125 0.75 0.203125l0 2.265625q-0.78125 -0.375 -1.5 -0.53125q-0.71875 -0.15625 -1.296875 -0.15625q-0.859375 0 -1.484375 0.3125q-0.609375 0.3125 -1.0 0.875q-0.390625 0.5625 -0.578125 1.34375q-0.1875 0.765625 -0.1875 1.6875q0 0.984375 0.1875 1.765625q0.1875 0.765625 0.578125 1.3125q0.40625 0.53125 1.03125 0.8125q0.625 0.28125 1.484375 0.28125q0.296875 0 0.65625 -0.046875q0.359375 -0.0625 0.71875 -0.15625q0.375 -0.109375 0.734375 -0.234375q0.359375 -0.140625 0.65625 -0.28125l0 2.140625z" fill-rule="nonzero"></path></g></svg>

