<?xml version="1.0" standalone="yes"?>

<svg version="1.1" viewBox="0.0 0.0 720.0 540.0" fill="none" stroke="none" stroke-linecap="square" stroke-miterlimit="10" xmlns="http://www.w3.org/2000/svg" xmlns:xlink="http://www.w3.org/1999/xlink"><clipPath id="p.0"><path d="m0 0l720.0 0l0 540.0l-720.0 0l0 -540.0z" clip-rule="nonzero"></path></clipPath><g clip-path="url(#p.0)"><path fill="#000000" fill-opacity="0.0" d="m0 0l720.0 0l0 540.0l-720.0 0z" fill-rule="nonzero"></path><path fill="#000000" fill-opacity="0.0" d="m40.0 88.13911l613.98425 0l0 44.000008l-613.98425 0z" fill-rule="nonzero"></path><path fill="#000000" d="m151.20563 109.902855q0 0.34375 -0.015625 0.578125q-0.015625 0.234375 -0.03125 0.4375l-6.53125 0q0 1.4375 0.796875 2.203125q0.796875 0.765625 2.296875 0.765625q0.40625 0 0.8125 -0.03125q0.40625 -0.046875 0.78125 -0.09375q0.390625 -0.0625 0.734375 -0.125q0.34375 -0.078125 0.640625 -0.15625l0 1.328125q-0.65625 0.1875 -1.484375 0.296875q-0.828125 0.125 -1.71875 0.125q-1.203125 0 -2.0625 -0.328125q-0.859375 -0.328125 -1.421875 -0.9375q-0.546875 -0.625 -0.8125 -1.515625q-0.265625 -0.890625 -0.265625 -2.03125q0 -0.984375 0.28125 -1.859375q0.296875 -0.875 0.828125 -1.53125q0.546875 -0.671875 1.328125 -1.0625q0.796875 -0.390625 1.796875 -0.390625q0.984375 0 1.734375 0.3125q0.75 0.296875 1.265625 0.859375q0.515625 0.5625 0.78125 1.375q0.265625 0.796875 0.265625 1.78125zm-1.6875 -0.21875q0.03125 -0.625 -0.125 -1.140625q-0.140625 -0.515625 -0.453125 -0.890625q-0.3125 -0.375 -0.78125 -0.578125q-0.453125 -0.203125 -1.078125 -0.203125q-0.515625 0 -0.953125 0.203125q-0.4375 0.203125 -0.765625 0.578125q-0.3125 0.359375 -0.5 0.890625q-0.1875 0.515625 -0.234375 1.140625l4.890625 0zm12.460419 5.375l-2.140625 0l-2.515625 -3.546875l-2.484375 3.546875l-2.078125 0l3.609375 -4.671875l-3.453125 -4.640625l2.078125 0l2.4375 3.578125l2.40625 -3.578125l2.0 0l-3.5 4.671875l3.640625 4.640625zm9.819794 -4.828125q0 1.25 -0.34375 2.1875q-0.34375 0.921875 -0.953125 1.53125q-0.609375 0.609375 -1.453125 0.921875q-0.828125 0.296875 -1.8125 0.296875q-0.4375 0 -0.890625 -0.046875q-0.4375 -0.046875 -0.890625 -0.15625l0 3.890625l-1.609375 0l0 -13.109375l1.4375 0l0.109375 1.5625q0.6875 -0.96875 1.46875 -1.34375q0.796875 -0.390625 1.71875 -0.390625q0.796875 0 1.390625 0.34375q0.609375 0.328125 1.015625 0.9375q0.40625 0.609375 0.609375 1.46875q0.203125 0.859375 0.203125 1.90625zm-1.640625 0.078125q0 -0.734375 -0.109375 -1.34375q-0.109375 -0.609375 -0.34375 -1.046875q-0.234375 -0.4375 -0.59375 -0.6875q-0.359375 -0.25 -0.859375 -0.25q-0.3125 0 -0.625 0.109375q-0.3125 0.09375 -0.65625 0.328125q-0.328125 0.21875 -0.703125 0.59375q-0.375 0.375 -0.8125 0.9375l0 4.515625q0.453125 0.1875 0.9375 0.296875q0.5 0.09375 0.96875 0.09375q1.3125 0 2.046875 -0.875q0.75 -0.890625 0.75 -2.671875zm21.936462 -1.25l-7.984375 0l0 -1.359375l7.984375 0l0 1.359375zm0 3.234375l-7.984375 0l0 -1.359375l7.984375 0l0 1.359375z" fill-rule="nonzero"></path><path fill="#0000ff" d="m210.85876 115.059105l-0.03125 -1.25q-0.765625 0.75 -1.546875 1.09375q-0.78125 0.328125 -1.65625 0.328125q-0.796875 0 -1.359375 -0.203125q-0.5625 -0.203125 -0.9375 -0.5625q-0.359375 -0.359375 -0.53125 -0.84375q-0.171875 -0.484375 -0.171875 -1.046875q0 -1.40625 1.046875 -2.1875q1.046875 -0.796875 3.078125 -0.796875l1.9375 0l0 -0.828125q0 -0.8125 -0.53125 -1.3125q-0.53125 -0.5 -1.609375 -0.5q-0.796875 0 -1.5625 0.1875q-0.765625 0.171875 -1.578125 0.484375l0 -1.453125q0.296875 -0.109375 0.671875 -0.21875q0.390625 -0.109375 0.796875 -0.1875q0.421875 -0.078125 0.875 -0.125q0.453125 -0.0625 0.921875 -0.0625q0.84375 0 1.515625 0.1875q0.6875 0.1875 1.15625 0.578125q0.46875 0.375 0.71875 0.953125q0.25 0.5625 0.25 1.34375l0 6.421875l-1.453125 0zm-0.171875 -4.234375l-2.0625 0q-0.59375 0 -1.03125 0.125q-0.4375 0.109375 -0.71875 0.34375q-0.28125 0.21875 -0.421875 0.53125q-0.125 0.296875 -0.125 0.6875q0 0.28125 0.078125 0.53125q0.09375 0.234375 0.28125 0.421875q0.1875 0.1875 0.484375 0.3125q0.296875 0.109375 0.71875 0.109375q0.5625 0 1.28125 -0.34375q0.71875 -0.34375 1.515625 -1.078125l0 -1.640625z" fill-rule="nonzero"></path><path fill="#980000" d="m230.9671 118.94973q-4.28125 -3.953125 -4.28125 -8.75q0 -1.125 0.21875 -2.234375q0.234375 -1.125 0.734375 -2.25q0.515625 -1.125 1.34375 -2.234375q0.828125 -1.125 2.015625 -2.234375l0.9375 0.953125q-3.59375 3.546875 -3.59375 7.875q0 2.15625 0.90625 4.140625q0.90625 1.984375 2.6875 3.75l-0.96875 0.984375z" fill-rule="nonzero"></path><path fill="#0000ff" d="m253.85669 110.23098q0 1.15625 -0.328125 2.078125q-0.3125 0.90625 -0.90625 1.546875q-0.578125 0.640625 -1.421875 0.984375q-0.84375 0.328125 -1.90625 0.328125q-0.828125 0 -1.6875 -0.15625q-0.859375 -0.15625 -1.703125 -0.5l0 -12.5625l1.609375 0l0 3.609375l-0.0625 1.71875q0.6875 -0.9375 1.484375 -1.3125q0.796875 -0.390625 1.703125 -0.390625q0.796875 0 1.390625 0.34375q0.609375 0.328125 1.015625 0.9375q0.40625 0.609375 0.609375 1.46875q0.203125 0.859375 0.203125 1.90625zm-1.640625 0.078125q0 -0.734375 -0.109375 -1.34375q-0.109375 -0.609375 -0.34375 -1.046875q-0.234375 -0.4375 -0.59375 -0.6875q-0.359375 -0.25 -0.859375 -0.25q-0.3125 0 -0.625 0.109375q-0.3125 0.09375 -0.65625 0.328125q-0.328125 0.21875 -0.703125 0.59375q-0.375 0.375 -0.8125 0.9375l0 4.515625q0.484375 0.1875 0.96875 0.296875q0.5 0.09375 0.9375 0.09375q0.5625 0 1.0625 -0.171875q0.5 -0.171875 0.890625 -0.578125q0.390625 -0.421875 0.609375 -1.09375q0.234375 -0.6875 0.234375 -1.703125z" fill-rule="nonzero"></path><path fill="#980000" d="m271.99628 118.94973q-4.28125 -3.953125 -4.28125 -8.75q0 -1.125 0.21875 -2.234375q0.234375 -1.125 0.734375 -2.25q0.515625 -1.125 1.34375 -2.234375q0.828125 -1.125 2.015625 -2.234375l0.9375 0.953125q-3.59375 3.546875 -3.59375 7.875q0 2.15625 0.90625 4.140625q0.90625 1.984375 2.6875 3.75l-0.96875 0.984375z" fill-rule="nonzero"></path><path fill="#0000ff" d="m294.1671 114.715355q-0.625 0.234375 -1.296875 0.34375q-0.65625 0.125 -1.359375 0.125q-2.21875 0 -3.40625 -1.1875q-1.1875 -1.203125 -1.1875 -3.5q0 -1.109375 0.34375 -2.0q0.34375 -0.90625 0.953125 -1.546875q0.625 -0.640625 1.484375 -0.984375q0.875 -0.34375 1.90625 -0.34375q0.734375 0 1.359375 0.109375q0.625 0.09375 1.203125 0.3125l0 1.546875q-0.59375 -0.3125 -1.234375 -0.453125q-0.625 -0.15625 -1.28125 -0.15625q-0.625 0 -1.1875 0.25q-0.546875 0.234375 -0.96875 0.6875q-0.40625 0.4375 -0.65625 1.078125q-0.234375 0.640625 -0.234375 1.4375q0 1.6875 0.8125 2.53125q0.828125 0.84375 2.28125 0.84375q0.65625 0 1.265625 -0.140625q0.625 -0.15625 1.203125 -0.453125l0 1.5z" fill-rule="nonzero"></path><path fill="#980000" d="m313.02545 118.94973q-4.28125 -3.953125 -4.28125 -8.75q0 -1.125 0.21875 -2.234375q0.234375 -1.125 0.734375 -2.25q0.515625 -1.125 1.34375 -2.234375q0.828125 -1.125 2.015625 -2.234375l0.9375 0.953125q-3.59375 3.546875 -3.59375 7.875q0 2.15625 0.90625 4.140625q0.90625 1.984375 2.6875 3.75l-0.96875 0.984375zm6.5854187 -17.703125q4.265625 3.953125 4.265625 8.8125q0 1.0 -0.203125 2.078125q-0.203125 1.078125 -0.703125 2.203125q-0.484375 1.125 -1.3125 2.28125q-0.828125 1.171875 -2.09375 2.328125l-0.9375 -0.953125q1.8125 -1.78125 2.703125 -3.734375q0.890625 -1.953125 0.890625 -4.078125q0 -4.421875 -3.59375 -7.953125l0.984375 -0.984375z" fill-rule="nonzero"></path><path fill="#980000" d="m340.12546 101.246605q4.265625 3.953125 4.265625 8.8125q0 1.0 -0.203125 2.078125q-0.203125 1.078125 -0.703125 2.203125q-0.484375 1.125 -1.3125 2.28125q-0.828125 1.171875 -2.09375 2.328125l-0.9375 -0.953125q1.8125 -1.78125 2.703125 -3.734375q0.890625 -1.953125 0.890625 -4.078125q0 -4.421875 -3.59375 -7.953125l0.984375 -0.984375z" fill-rule="nonzero"></path><path fill="#000000" d="m349.19525 116.965355q0.484375 0.015625 0.921875 -0.09375q0.453125 -0.09375 0.78125 -0.296875q0.34375 -0.203125 0.546875 -0.5q0.203125 -0.296875 0.203125 -0.671875q0 -0.390625 -0.140625 -0.625q-0.125 -0.25 -0.296875 -0.453125q-0.171875 -0.203125 -0.3125 -0.4375q-0.125 -0.234375 -0.125 -0.625q0 -0.1875 0.078125 -0.390625q0.078125 -0.21875 0.21875 -0.390625q0.15625 -0.1875 0.390625 -0.296875q0.25 -0.109375 0.5625 -0.109375q0.328125 0 0.625 0.140625q0.3125 0.125 0.53125 0.40625q0.234375 0.28125 0.359375 0.703125q0.140625 0.40625 0.140625 0.96875q0 0.78125 -0.28125 1.484375q-0.28125 0.703125 -0.84375 1.25q-0.5625 0.5625 -1.40625 0.875q-0.828125 0.328125 -1.953125 0.328125l0 -1.265625z" fill-rule="nonzero"></path><path fill="#0000ff" d="m368.52234 110.590355q0 -1.1875 0.3125 -2.109375q0.328125 -0.921875 0.921875 -1.546875q0.609375 -0.640625 1.4375 -0.96875q0.84375 -0.328125 1.875 -0.328125q0.453125 0 0.875 0.0625q0.4375 0.046875 0.859375 0.171875l0 -3.921875l1.625 0l0 13.109375l-1.453125 0l-0.0625 -1.765625q-0.671875 0.984375 -1.46875 1.46875q-0.78125 0.46875 -1.703125 0.46875q-0.796875 0 -1.40625 -0.328125q-0.59375 -0.34375 -1.0 -0.953125q-0.40625 -0.609375 -0.609375 -1.453125q-0.203125 -0.859375 -0.203125 -1.90625zm1.640625 -0.09375q0 1.6875 0.5 2.515625q0.5 0.828125 1.40625 0.828125q0.609375 0 1.296875 -0.546875q0.6875 -0.546875 1.4375 -1.625l0 -4.3125q-0.40625 -0.1875 -0.890625 -0.28125q-0.484375 -0.109375 -0.953125 -0.109375q-1.3125 0 -2.0625 0.859375q-0.734375 0.84375 -0.734375 2.671875z" fill-rule="nonzero"></path><path fill="#980000" d="m395.0838 118.94973q-4.28125 -3.953125 -4.28125 -8.75q0 -1.125 0.21875 -2.234375q0.234375 -1.125 0.734375 -2.25q0.515625 -1.125 1.34375 -2.234375q0.828125 -1.125 2.015625 -2.234375l0.9375 0.953125q-3.59375 3.546875 -3.59375 7.875q0 2.15625 0.90625 4.140625q0.90625 1.984375 2.6875 3.75l-0.96875 0.984375z" fill-rule="nonzero"></path><path fill="#0000ff" d="m417.89526 109.902855q0 0.34375 -0.015625 0.578125q-0.015625 0.234375 -0.03125 0.4375l-6.53125 0q0 1.4375 0.796875 2.203125q0.796875 0.765625 2.296875 0.765625q0.40625 0 0.8125 -0.03125q0.40625 -0.046875 0.78125 -0.09375q0.390625 -0.0625 0.734375 -0.125q0.34375 -0.078125 0.640625 -0.15625l0 1.328125q-0.65625 0.1875 -1.484375 0.296875q-0.828125 0.125 -1.71875 0.125q-1.203125 0 -2.0625 -0.328125q-0.859375 -0.328125 -1.421875 -0.9375q-0.546875 -0.625 -0.8125 -1.515625q-0.265625 -0.890625 -0.265625 -2.03125q0 -0.984375 0.28125 -1.859375q0.296875 -0.875 0.828125 -1.53125q0.546875 -0.671875 1.328125 -1.0625q0.796875 -0.390625 1.796875 -0.390625q0.984375 0 1.734375 0.3125q0.75 0.296875 1.265625 0.859375q0.515625 0.5625 0.78125 1.375q0.265625 0.796875 0.265625 1.78125zm-1.6875 -0.21875q0.03125 -0.625 -0.125 -1.140625q-0.140625 -0.515625 -0.453125 -0.890625q-0.3125 -0.375 -0.78125 -0.578125q-0.453125 -0.203125 -1.078125 -0.203125q-0.515625 0 -0.953125 0.203125q-0.4375 0.203125 -0.765625 0.578125q-0.3125 0.359375 -0.5 0.890625q-0.1875 0.515625 -0.234375 1.140625l4.890625 0z" fill-rule="nonzero"></path><path fill="#980000" d="m436.11298 118.94973q-4.28125 -3.953125 -4.28125 -8.75q0 -1.125 0.21875 -2.234375q0.234375 -1.125 0.734375 -2.25q0.515625 -1.125 1.34375 -2.234375q0.828125 -1.125 2.015625 -2.234375l0.9375 0.953125q-3.59375 3.546875 -3.59375 7.875q0 2.15625 0.90625 4.140625q0.90625 1.984375 2.6875 3.75l-0.96875 0.984375zm6.5854187 -17.703125q4.265625 3.953125 4.265625 8.8125q0 1.0 -0.203125 2.078125q-0.203125 1.078125 -0.703125 2.203125q-0.484375 1.125 -1.3125 2.28125q-0.828125 1.171875 -2.09375 2.328125l-0.9375 -0.953125q1.8125 -1.78125 2.703125 -3.734375q0.890625 -1.953125 0.890625 -4.078125q0 -4.421875 -3.59375 -7.953125l0.984375 -0.984375z" fill-rule="nonzero"></path><path fill="#000000" d="m451.7682 116.965355q0.484375 0.015625 0.921875 -0.09375q0.453125 -0.09375 0.78125 -0.296875q0.34375 -0.203125 0.546875 -0.5q0.203125 -0.296875 0.203125 -0.671875q0 -0.390625 -0.140625 -0.625q-0.125 -0.25 -0.296875 -0.453125q-0.171875 -0.203125 -0.3125 -0.4375q-0.125 -0.234375 -0.125 -0.625q0 -0.1875 0.078125 -0.390625q0.078125 -0.21875 0.21875 -0.390625q0.15625 -0.1875 0.390625 -0.296875q0.25 -0.109375 0.5625 -0.109375q0.328125 0 0.625 0.140625q0.3125 0.125 0.53125 0.40625q0.234375 0.28125 0.359375 0.703125q0.140625 0.40625 0.140625 0.96875q0 0.78125 -0.28125 1.484375q-0.28125 0.703125 -0.84375 1.25q-0.5625 0.5625 -1.40625 0.875q-0.828125 0.328125 -1.953125 0.328125l0 -1.265625z" fill-rule="nonzero"></path><path fill="#0000ff" d="m479.82965 103.44973q-1.265625 -0.265625 -2.1875 -0.265625q-2.1875 0 -2.1875 2.28125l0 1.640625l4.09375 0l0 1.34375l-4.09375 0l0 6.609375l-1.640625 0l0 -6.609375l-2.984375 0l0 -1.34375l2.984375 0l0 -1.546875q0 -3.71875 3.875 -3.71875q0.96875 0 2.140625 0.21875l0 1.390625zm-9.75 2.296875l0 0z" fill-rule="nonzero"></path><path fill="#980000" d="m497.65674 118.94973q-4.28125 -3.953125 -4.28125 -8.75q0 -1.125 0.21875 -2.234375q0.234375 -1.125 0.734375 -2.25q0.515625 -1.125 1.34375 -2.234375q0.828125 -1.125 2.015625 -2.234375l0.9375 0.953125q-3.59375 3.546875 -3.59375 7.875q0 2.15625 0.90625 4.140625q0.90625 1.984375 2.6875 3.75l-0.96875 0.984375zm6.5854187 -17.703125q4.265625 3.953125 4.265625 8.8125q0 1.0 -0.203125 2.078125q-0.203125 1.078125 -0.703125 2.203125q-0.484375 1.125 -1.3125 2.28125q-0.828125 1.171875 -2.09375 2.328125l-0.9375 -0.953125q1.8125 -1.78125 2.703125 -3.734375q0.890625 -1.953125 0.890625 -4.078125q0 -4.421875 -3.59375 -7.953125l0.984375 -0.984375z" fill-rule="nonzero"></path><path fill="#980000" d="m524.7567 101.246605q4.265625 3.953125 4.265625 8.8125q0 1.0 -0.203125 2.078125q-0.203125 1.078125 -0.703125 2.203125q-0.484375 1.125 -1.3125 2.28125q-0.828125 1.171875 -2.09375 2.328125l-0.9375 -0.953125q1.8125 -1.78125 2.703125 -3.734375q0.890625 -1.953125 0.890625 -4.078125q0 -4.421875 -3.59375 -7.953125l0.984375 -0.984375zm20.514648 0q4.265625 3.953125 4.265625 8.8125q0 1.0 -0.203125 2.078125q-0.203125 1.078125 -0.703125 2.203125q-0.484375 1.125 -1.3125 2.28125q-0.828125 1.171875 -2.09375 2.328125l-0.9375 -0.953125q1.8125 -1.78125 2.703125 -3.734375q0.890625 -1.953125 0.890625 -4.078125q0 -4.421875 -3.59375 -7.953125l0.984375 -0.984375z" fill-rule="nonzero"></path><path fill="#000000" fill-opacity="0.0" d="m349.9367 132.14035l22.677155 2.9606323l-2.551178 14.992126l-22.677155 -2.9606323z" fill-rule="nonzero"></path><path fill="#e06666" d="m360.83054 154.24348l1.5900879 0.4282074q-0.5466919 1.6304474 -1.8093567 2.442566q-1.2600403 0.79670715 -2.8713684 0.5863342q-1.9986572 -0.2609253 -3.0023193 -1.7156067q-0.98550415 -1.4680481 -0.5710449 -3.9036407q0.2675476 -1.5723419 0.97821045 -2.6771545q0.72875977 -1.1181793 1.8974915 -1.5643921q1.1868286 -0.45959473 2.441803 -0.29574585q1.5958557 0.2083435 2.4665222 1.1414032q0.8706665 0.93307495 0.913208 2.451355l-1.6532898 0.03627014q-0.06451416 -1.0169067 -0.56933594 -1.5870514q-0.50479126 -0.57014465 -1.3259583 -0.6773529q-1.2549744 -0.16384888 -2.1972961 0.6270752q-0.92681885 0.79293823 -1.2546997 2.719818q-0.3331604 1.9577332 0.27389526 2.9509277q0.60964966 0.97776794 1.8181458 1.1355438q0.97610474 0.1274414 1.7265015 -0.37338257q0.75302124 -0.51623535 1.1488037 -1.725174z" fill-rule="nonzero"></path><path fill="#000000" fill-opacity="0.0" d="m7.0 5.0l689.98425 0l0 49.007874l-689.98425 0z" fill-rule="nonzero"></path><path fill="#434343" d="m284.5312 31.919998l-2.6875 0l-1.203125 -3.734375l-0.421875 -1.53125l-0.421875 1.5625l-1.1875 3.703125l-2.5625 0l-0.671875 -12.125l2.0 0l0.296875 7.78125l0.078125 2.109375l0.546875 -1.890625l1.328125 -4.3125l1.4375 0l1.40625 4.578125l0.46875 1.609375l0.03125 -1.890625l0.296875 -7.984375l1.953125 0l-0.6875 12.125zm7.6322937 -12.0q0 0.296875 -0.125 0.578125q-0.109375 0.265625 -0.3125 0.46875q-0.1875 0.1875 -0.46875 0.3125q-0.265625 0.109375 -0.578125 0.109375q-0.3125 0 -0.59375 -0.109375q-0.265625 -0.125 -0.46875 -0.3125q-0.203125 -0.203125 -0.3125 -0.46875q-0.109375 -0.28125 -0.109375 -0.578125q0 -0.3125 0.109375 -0.578125q0.109375 -0.265625 0.3125 -0.46875q0.203125 -0.203125 0.46875 -0.3125q0.28125 -0.125 0.59375 -0.125q0.3125 0 0.578125 0.125q0.28125 0.109375 0.46875 0.3125q0.203125 0.203125 0.3125 0.46875q0.125 0.265625 0.125 0.578125zm-2.515625 4.34375l-2.65625 0l0 -1.765625l4.984375 0l0 7.65625l2.71875 0l0 1.765625l-8.03125 0l0 -1.765625l2.984375 0l0 -5.890625zm14.991669 7.5625q-0.609375 0.140625 -1.234375 0.21875q-0.625 0.09375 -1.171875 0.09375q-0.9375 0 -1.609375 -0.203125q-0.671875 -0.1875 -1.109375 -0.578125q-0.4375 -0.40625 -0.65625 -1.015625q-0.203125 -0.625 -0.203125 -1.484375l0 -4.59375l-2.53125 0l0 -1.765625l2.53125 0l0 -2.421875l2.328125 -0.59375l0 3.015625l3.65625 0l0 1.765625l-3.65625 0l0 4.421875q0 0.8125 0.359375 1.234375q0.375 0.40625 1.25 0.40625q0.5625 0 1.078125 -0.09375q0.53125 -0.09375 0.96875 -0.21875l0 1.8125zm8.101044 0.09375l0 -6.140625q0 -1.546875 -1.140625 -1.546875q-0.578125 0 -1.109375 0.46875q-0.515625 0.453125 -1.109375 1.25l0 5.96875l-2.25 0l0 -13.109375l2.25 0l0 3.234375l-0.109375 1.703125q0.296875 -0.34375 0.59375 -0.609375q0.296875 -0.28125 0.640625 -0.46875q0.34375 -0.1875 0.734375 -0.28125q0.40625 -0.09375 0.890625 -0.09375q0.71875 0 1.25 0.234375q0.546875 0.234375 0.90625 0.671875q0.359375 0.421875 0.53125 1.03125q0.1875 0.609375 0.1875 1.359375l0 6.328125l-2.265625 0zm23.280212 -8.265625q0 0.953125 -0.328125 1.75q-0.3125 0.796875 -0.9375 1.390625q-0.609375 0.578125 -1.546875 0.90625q-0.921875 0.328125 -2.140625 0.328125l-1.171875 0l0 3.890625l-2.296875 0l0 -12.125l3.5625 0q1.171875 0 2.078125 0.265625q0.90625 0.25 1.515625 0.75q0.625 0.484375 0.9375 1.203125q0.328125 0.71875 0.328125 1.640625zm-2.390625 0.15625q0 -0.484375 -0.15625 -0.875q-0.15625 -0.390625 -0.46875 -0.671875q-0.3125 -0.28125 -0.78125 -0.421875q-0.46875 -0.15625 -1.125 -0.15625l-1.203125 0l0 4.4375l1.28125 0q0.59375 0 1.046875 -0.15625q0.453125 -0.15625 0.765625 -0.453125q0.3125 -0.3125 0.46875 -0.734375q0.171875 -0.4375 0.171875 -0.96875zm9.819794 -3.890625q0 0.296875 -0.125 0.578125q-0.109375 0.265625 -0.3125 0.46875q-0.1875 0.1875 -0.46875 0.3125q-0.265625 0.109375 -0.578125 0.109375q-0.3125 0 -0.59375 -0.109375q-0.265625 -0.125 -0.46875 -0.3125q-0.203125 -0.203125 -0.3125 -0.46875q-0.109375 -0.28125 -0.109375 -0.578125q0 -0.3125 0.109375 -0.578125q0.109375 -0.265625 0.3125 -0.46875q0.203125 -0.203125 0.46875 -0.3125q0.28125 -0.125 0.59375 -0.125q0.3125 0 0.578125 0.125q0.28125 0.109375 0.46875 0.3125q0.203125 0.203125 0.3125 0.46875q0.125 0.265625 0.125 0.578125zm-2.515625 4.34375l-2.65625 0l0 -1.765625l4.984375 0l0 7.65625l2.71875 0l0 1.765625l-8.03125 0l0 -1.765625l2.984375 0l0 -5.890625zm15.694794 2.78125q0 1.296875 -0.375 2.25q-0.359375 0.9375 -1.015625 1.5625q-0.640625 0.625 -1.53125 0.9375q-0.890625 0.296875 -1.9375 0.296875q-0.359375 0 -0.71875 -0.046875q-0.34375 -0.046875 -0.640625 -0.125l0 3.6875l-2.25 0l0 -13.109375l1.953125 0l0.046875 1.390625q0.296875 -0.359375 0.609375 -0.65625q0.3125 -0.296875 0.671875 -0.5q0.359375 -0.21875 0.765625 -0.328125q0.421875 -0.109375 0.953125 -0.109375q0.828125 0 1.46875 0.328125q0.65625 0.328125 1.09375 0.953125q0.453125 0.609375 0.671875 1.5q0.234375 0.875 0.234375 1.96875zm-2.375 0.09375q0 -0.78125 -0.109375 -1.328125q-0.109375 -0.546875 -0.328125 -0.890625q-0.203125 -0.359375 -0.5 -0.515625q-0.296875 -0.171875 -0.6875 -0.171875q-0.578125 0 -1.109375 0.46875q-0.515625 0.453125 -1.109375 1.25l0 4.125q0.28125 0.09375 0.671875 0.171875q0.390625 0.0625 0.796875 0.0625q0.546875 0 0.984375 -0.21875q0.4375 -0.234375 0.75 -0.640625q0.3125 -0.40625 0.46875 -0.984375q0.171875 -0.59375 0.171875 -1.328125zm12.366669 -0.65625q0 0.234375 -0.015625 0.609375q-0.015625 0.359375 -0.046875 0.6875l-6.1875 0q0 0.625 0.1875 1.109375q0.1875 0.46875 0.53125 0.78125q0.359375 0.3125 0.84375 0.484375q0.484375 0.171875 1.078125 0.171875q0.6875 0 1.46875 -0.109375q0.78125 -0.109375 1.625 -0.34375l0 1.796875q-0.359375 0.09375 -0.78125 0.1875q-0.421875 0.078125 -0.875 0.140625q-0.4375 0.078125 -0.90625 0.109375q-0.453125 0.03125 -0.875 0.03125q-1.078125 0 -1.9375 -0.3125q-0.84375 -0.3125 -1.4375 -0.90625q-0.59375 -0.59375 -0.90625 -1.46875q-0.3125 -0.890625 -0.3125 -2.046875q0 -1.15625 0.3125 -2.09375q0.3125 -0.9375 0.890625 -1.609375q0.578125 -0.671875 1.390625 -1.03125q0.828125 -0.375 1.828125 -0.375q1.015625 0 1.78125 0.3125q0.765625 0.296875 1.28125 0.859375q0.53125 0.5625 0.796875 1.328125q0.265625 0.765625 0.265625 1.6875zm-2.296875 -0.328125q0 -0.546875 -0.15625 -0.953125q-0.140625 -0.421875 -0.390625 -0.6875q-0.25 -0.28125 -0.59375 -0.40625q-0.34375 -0.125 -0.734375 -0.125q-0.84375 0 -1.390625 0.578125q-0.546875 0.5625 -0.65625 1.59375l3.921875 0zm7.3822937 -5.578125l-2.65625 0l0 -1.765625l4.984375 0l0 11.34375l2.71875 0l0 1.765625l-8.03125 0l0 -1.765625l2.984375 0l0 -9.578125zm12.772919 -0.65625q0 0.296875 -0.125 0.578125q-0.109375 0.265625 -0.3125 0.46875q-0.1875 0.1875 -0.46875 0.3125q-0.265625 0.109375 -0.578125 0.109375q-0.3125 0 -0.59375 -0.109375q-0.265625 -0.125 -0.46875 -0.3125q-0.203125 -0.203125 -0.3125 -0.46875q-0.109375 -0.28125 -0.109375 -0.578125q0 -0.3125 0.109375 -0.578125q0.109375 -0.265625 0.3125 -0.46875q0.203125 -0.203125 0.46875 -0.3125q0.28125 -0.125 0.59375 -0.125q0.3125 0 0.578125 0.125q0.28125 0.109375 0.46875 0.3125q0.203125 0.203125 0.3125 0.46875q0.125 0.265625 0.125 0.578125zm-2.515625 4.34375l-2.65625 0l0 -1.765625l4.984375 0l0 7.65625l2.71875 0l0 1.765625l-8.03125 0l0 -1.765625l2.984375 0l0 -5.890625zm12.835419 7.65625l0 -6.140625q0 -1.546875 -1.140625 -1.546875q-0.578125 0 -1.109375 0.46875q-0.515625 0.453125 -1.109375 1.25l0 5.96875l-2.25 0l0 -9.421875l1.953125 0l0.046875 1.390625q0.296875 -0.359375 0.609375 -0.65625q0.3125 -0.296875 0.671875 -0.5q0.359375 -0.21875 0.765625 -0.328125q0.421875 -0.109375 0.953125 -0.109375q0.71875 0 1.25 0.234375q0.546875 0.234375 0.90625 0.671875q0.359375 0.421875 0.53125 1.03125q0.1875 0.609375 0.1875 1.359375l0 6.328125l-2.265625 0zm10.194794 -12.0q0 0.296875 -0.125 0.578125q-0.109375 0.265625 -0.3125 0.46875q-0.1875 0.1875 -0.46875 0.3125q-0.265625 0.109375 -0.578125 0.109375q-0.3125 0 -0.59375 -0.109375q-0.265625 -0.125 -0.46875 -0.3125q-0.203125 -0.203125 -0.3125 -0.46875q-0.109375 -0.28125 -0.109375 -0.578125q0 -0.3125 0.109375 -0.578125q0.109375 -0.265625 0.3125 -0.46875q0.203125 -0.203125 0.46875 -0.3125q0.28125 -0.125 0.59375 -0.125q0.3125 0 0.578125 0.125q0.28125 0.109375 0.46875 0.3125q0.203125 0.203125 0.3125 0.46875q0.125 0.265625 0.125 0.578125zm-2.515625 4.34375l-2.65625 0l0 -1.765625l4.984375 0l0 7.65625l2.71875 0l0 1.765625l-8.03125 0l0 -1.765625l2.984375 0l0 -5.890625zm12.835419 7.65625l0 -6.140625q0 -1.546875 -1.140625 -1.546875q-0.578125 0 -1.109375 0.46875q-0.515625 0.453125 -1.109375 1.25l0 5.96875l-2.25 0l0 -9.421875l1.953125 0l0.046875 1.390625q0.296875 -0.359375 0.609375 -0.65625q0.3125 -0.296875 0.671875 -0.5q0.359375 -0.21875 0.765625 -0.328125q0.421875 -0.109375 0.953125 -0.109375q0.71875 0 1.25 0.234375q0.546875 0.234375 0.90625 0.671875q0.359375 0.421875 0.53125 1.03125q0.1875 0.609375 0.1875 1.359375l0 6.328125l-2.265625 0zm11.710419 -7.78125q0.265625 0.328125 0.359375 0.6875q0.109375 0.359375 0.109375 0.734375q0 0.78125 -0.28125 1.390625q-0.265625 0.59375 -0.765625 1.015625q-0.484375 0.40625 -1.1875 0.609375q-0.6875 0.203125 -1.515625 0.203125q-0.5 0 -0.921875 -0.09375q-0.40625 -0.09375 -0.625 -0.21875q-0.15625 0.15625 -0.265625 0.34375q-0.109375 0.1875 -0.109375 0.421875q0 0.15625 0.0625 0.3125q0.078125 0.140625 0.21875 0.265625q0.15625 0.109375 0.34375 0.1875q0.203125 0.0625 0.453125 0.078125l2.234375 0.078125q0.765625 0.015625 1.359375 0.1875q0.609375 0.171875 1.046875 0.5q0.4375 0.3125 0.671875 0.765625q0.234375 0.4375 0.234375 1.015625q0 0.65625 -0.296875 1.234375q-0.296875 0.59375 -0.890625 1.015625q-0.59375 0.4375 -1.484375 0.6875q-0.890625 0.25 -2.078125 0.25q-1.140625 0 -1.96875 -0.1875q-0.8125 -0.171875 -1.34375 -0.5q-0.515625 -0.3125 -0.765625 -0.765625q-0.25 -0.453125 -0.25 -0.984375q0 -0.328125 0.078125 -0.609375q0.09375 -0.28125 0.25 -0.53125q0.171875 -0.25 0.421875 -0.484375q0.25 -0.25 0.59375 -0.5q-0.453125 -0.25 -0.6875 -0.65625q-0.234375 -0.421875 -0.234375 -0.875q0 -0.328125 0.078125 -0.59375q0.09375 -0.28125 0.21875 -0.53125q0.140625 -0.25 0.3125 -0.46875q0.171875 -0.234375 0.375 -0.46875q-0.34375 -0.34375 -0.578125 -0.828125q-0.21875 -0.484375 -0.21875 -1.21875q0 -0.78125 0.28125 -1.390625q0.28125 -0.625 0.78125 -1.046875q0.5 -0.421875 1.1875 -0.640625q0.703125 -0.21875 1.515625 -0.21875q0.421875 0 0.796875 0.046875q0.390625 0.03125 0.703125 0.140625l3.265625 0l0 1.640625l-1.484375 0zm-5.328125 9.03125q0 0.546875 0.546875 0.796875q0.546875 0.265625 1.546875 0.265625q0.640625 0 1.078125 -0.125q0.453125 -0.109375 0.71875 -0.3125q0.28125 -0.1875 0.40625 -0.453125q0.125 -0.25 0.125 -0.53125q0 -0.25 -0.125 -0.421875q-0.109375 -0.171875 -0.328125 -0.296875q-0.203125 -0.109375 -0.484375 -0.171875q-0.28125 -0.0625 -0.625 -0.078125l-2.0 -0.03125q-0.265625 0.1875 -0.4375 0.34375q-0.171875 0.171875 -0.265625 0.328125q-0.09375 0.171875 -0.125 0.328125q-0.03125 0.171875 -0.03125 0.359375zm0.375 -7.5625q0 0.75 0.4375 1.203125q0.4375 0.4375 1.234375 0.4375q0.421875 0 0.71875 -0.140625q0.3125 -0.140625 0.515625 -0.375q0.203125 -0.234375 0.296875 -0.53125q0.109375 -0.3125 0.109375 -0.640625q0 -0.796875 -0.4375 -1.234375q-0.4375 -0.4375 -1.21875 -0.4375q-0.421875 0 -0.734375 0.140625q-0.3125 0.140625 -0.515625 0.375q-0.203125 0.234375 -0.3125 0.546875q-0.09375 0.3125 -0.09375 0.65625z" fill-rule="nonzero"></path><path fill="#d0e0e3" d="m439.77292 141.8203l64.97638 0l0 384.75592l-64.97638 0z" fill-rule="nonzero"></path><path stroke="#000000" stroke-width="1.0" stroke-linejoin="round" stroke-linecap="butt" d="m439.77292 141.8203l64.97638 0l0 384.75592l-64.97638 0z" fill-rule="nonzero"></path><path fill="#434343" d="m476.38245 282.837q0 0.859375 -0.359375 1.515625q-0.34375 0.640625 -0.984375 1.078125q-0.625 0.421875 -1.515625 0.640625q-0.875 0.21875 -1.953125 0.21875q-0.46875 0 -0.953125 -0.046875q-0.484375 -0.03125 -0.921875 -0.09375q-0.4375 -0.046875 -0.828125 -0.125q-0.390625 -0.078125 -0.703125 -0.15625l0 -1.59375q0.6875 0.25 1.546875 0.40625q0.875 0.140625 1.984375 0.140625q0.796875 0 1.359375 -0.125q0.5625 -0.125 0.921875 -0.359375q0.359375 -0.25 0.515625 -0.59375q0.171875 -0.359375 0.171875 -0.8125q0 -0.5 -0.28125 -0.84375q-0.265625 -0.34375 -0.71875 -0.609375q-0.4375 -0.28125 -1.015625 -0.5q-0.578125 -0.234375 -1.171875 -0.46875q-0.59375 -0.25 -1.171875 -0.53125q-0.5625 -0.28125 -1.015625 -0.671875q-0.4375 -0.390625 -0.71875 -0.90625q-0.265625 -0.515625 -0.265625 -1.234375q0 -0.625 0.265625 -1.21875q0.265625 -0.609375 0.8125 -1.078125q0.546875 -0.46875 1.40625 -0.75q0.859375 -0.296875 2.046875 -0.296875q0.296875 0 0.65625 0.03125q0.359375 0.03125 0.71875 0.078125q0.375 0.046875 0.734375 0.125q0.359375 0.0625 0.65625 0.125l0 1.484375q-0.71875 -0.203125 -1.4375 -0.296875q-0.703125 -0.109375 -1.375 -0.109375q-1.421875 0 -2.09375 0.46875q-0.65625 0.46875 -0.65625 1.265625q0 0.5 0.265625 0.859375q0.28125 0.34375 0.71875 0.625q0.453125 0.28125 1.015625 0.515625q0.578125 0.21875 1.171875 0.46875q0.59375 0.234375 1.15625 0.515625q0.578125 0.28125 1.015625 0.6875q0.453125 0.390625 0.71875 0.921875q0.28125 0.515625 0.28125 1.25z" fill-rule="nonzero"></path><path fill="#434343" d="m475.89807 308.11826l-6.90625 0l0 -12.125l6.90625 0l0 1.390625l-5.25 0l0 3.75l5.03125 0l0 1.40625l-5.03125 0l0 4.171875l5.25 0l0 1.40625z" fill-rule="nonzero"></path><path fill="#434343" d="m476.88245 330.11826l-1.859375 0l-1.8125 -3.875q-0.203125 -0.453125 -0.421875 -0.734375q-0.203125 -0.296875 -0.453125 -0.46875q-0.25 -0.171875 -0.546875 -0.25q-0.28125 -0.078125 -0.640625 -0.078125l-0.78125 0l0 5.40625l-1.65625 0l0 -12.125l3.25 0q1.046875 0 1.8125 0.234375q0.765625 0.234375 1.25 0.65625q0.484375 0.40625 0.703125 1.0q0.234375 0.578125 0.234375 1.296875q0 0.5625 -0.171875 1.078125q-0.15625 0.5 -0.484375 0.921875q-0.328125 0.40625 -0.828125 0.71875q-0.484375 0.296875 -1.109375 0.4375q0.515625 0.171875 0.859375 0.625q0.359375 0.4375 0.734375 1.171875l1.921875 3.984375zm-2.640625 -8.796875q0 -0.96875 -0.609375 -1.453125q-0.609375 -0.484375 -1.71875 -0.484375l-1.546875 0l0 4.015625l1.328125 0q0.59375 0 1.0625 -0.140625q0.46875 -0.140625 0.796875 -0.40625q0.328125 -0.265625 0.5 -0.640625q0.1875 -0.390625 0.1875 -0.890625z" fill-rule="nonzero"></path><path fill="#434343" d="m477.5387 339.99326l-4.109375 12.125l-2.234375 0l-4.03125 -12.125l1.875 0l2.609375 8.171875l0.75 2.390625l0.75 -2.390625l2.625 -8.171875l1.765625 0z" fill-rule="nonzero"></path><path fill="#434343" d="m475.89807 374.11826l-6.90625 0l0 -12.125l6.90625 0l0 1.390625l-5.25 0l0 3.75l5.03125 0l0 1.40625l-5.03125 0l0 4.171875l5.25 0l0 1.40625z" fill-rule="nonzero"></path><path fill="#434343" d="m476.88245 396.11826l-1.859375 0l-1.8125 -3.875q-0.203125 -0.453125 -0.421875 -0.734375q-0.203125 -0.296875 -0.453125 -0.46875q-0.25 -0.171875 -0.546875 -0.25q-0.28125 -0.078125 -0.640625 -0.078125l-0.78125 0l0 5.40625l-1.65625 0l0 -12.125l3.25 0q1.046875 0 1.8125 0.234375q0.765625 0.234375 1.25 0.65625q0.484375 0.40625 0.703125 1.0q0.234375 0.578125 0.234375 1.296875q0 0.5625 -0.171875 1.078125q-0.15625 0.5 -0.484375 0.921875q-0.328125 0.40625 -0.828125 0.71875q-0.484375 0.296875 -1.109375 0.4375q0.515625 0.171875 0.859375 0.625q0.359375 0.4375 0.734375 1.171875l1.921875 3.984375zm-2.640625 -8.796875q0 -0.96875 -0.609375 -1.453125q-0.609375 -0.484375 -1.71875 -0.484375l-1.546875 0l0 4.015625l1.328125 0q0.59375 0 1.0625 -0.140625q0.46875 -0.140625 0.796875 -0.40625q0.328125 -0.265625 0.5 -0.640625q0.1875 -0.390625 0.1875 -0.890625z" fill-rule="nonzero"></path><path fill="#d0e0e3" d="m215.25197 141.8203l64.976364 0l0 384.75592l-64.976364 0z" fill-rule="nonzero"></path><path stroke="#000000" stroke-width="1.0" stroke-linejoin="round" stroke-linecap="butt" d="m215.25197 141.8203l64.976364 0l0 384.75592l-64.976364 0z" fill-rule="nonzero"></path><path fill="#434343" d="m251.84589 285.66513q-1.453125 0.609375 -3.0625 0.609375q-2.5625 0 -3.9375 -1.53125q-1.375 -1.546875 -1.375 -4.546875q0 -1.46875 0.375 -2.640625q0.375 -1.171875 1.078125 -2.0q0.71875 -0.828125 1.71875 -1.265625q1.0 -0.453125 2.234375 -0.453125q0.84375 0 1.5625 0.15625q0.734375 0.140625 1.40625 0.4375l0 1.625q-0.65625 -0.359375 -1.375 -0.546875q-0.703125 -0.203125 -1.53125 -0.203125q-0.859375 0 -1.546875 0.328125q-0.6875 0.3125 -1.171875 0.921875q-0.484375 0.609375 -0.75 1.484375q-0.25 0.875 -0.25 2.0q0 2.359375 0.953125 3.5625q0.953125 1.1875 2.796875 1.1875q0.78125 0 1.5 -0.171875q0.71875 -0.1875 1.375 -0.515625l0 1.5625z" fill-rule="nonzero"></path><path fill="#434343" d="m251.75214 308.11826l-6.984375 0l0 -12.125l1.6875 0l0 10.71875l5.296875 0l0 1.40625z" fill-rule="nonzero"></path><path fill="#434343" d="m247.00214 319.38388l-2.796875 0l0 -1.390625l7.25 0l0 1.390625l-2.78125 0l0 9.328125l2.78125 0l0 1.40625l-7.25 0l0 -1.40625l2.796875 0l0 -9.328125z" fill-rule="nonzero"></path><path fill="#434343" d="m251.37714 352.11826l-6.90625 0l0 -12.125l6.90625 0l0 1.390625l-5.25 0l0 3.75l5.03125 0l0 1.40625l-5.03125 0l0 4.171875l5.25 0l0 1.40625z" fill-rule="nonzero"></path><path fill="#434343" d="m251.97089 374.11826l-2.15625 0l-3.53125 -7.5625l-1.03125 -2.421875l0 6.109375l0 3.875l-1.53125 0l0 -12.125l2.125 0l3.359375 7.15625l1.21875 2.78125l0 -6.5l0 -3.4375l1.546875 0l0 12.125z" fill-rule="nonzero"></path><path fill="#434343" d="m252.26776 385.3995l-3.59375 0l0 10.71875l-1.671875 0l0 -10.71875l-3.59375 0l0 -1.40625l8.859375 0l0 1.40625z" fill-rule="nonzero"></path><path fill="#000000" fill-opacity="0.0" d="m282.13055 151.96812l159.52756 23.685043" fill-rule="nonzero"></path><path stroke="#e06666" stroke-width="1.0" stroke-linejoin="round" stroke-linecap="butt" d="m282.13055 151.96812l156.1376 23.181747" fill-rule="evenodd"></path><path fill="#e06666" stroke="#e06666" stroke-width="1.0" stroke-linecap="butt" d="m438.26816 175.14987l-1.2775269 0.9472351l3.221405 -0.6586304l-2.8911133 -1.5661469z" fill-rule="evenodd"></path><path fill="#000000" fill-opacity="0.0" d="m281.175 287.1842l160.53543 -11.842499" fill-rule="nonzero"></path><path stroke="#e06666" stroke-width="1.0" stroke-linejoin="round" stroke-linecap="butt" d="m284.59277 286.9321l157.11765 -11.590393" fill-rule="evenodd"></path><path fill="#e06666" stroke="#e06666" stroke-width="1.0" stroke-linecap="butt" d="m284.5928 286.9321l1.0387878 -1.2042847l-2.9986572 1.3488464l3.1641235 0.8942261z" fill-rule="evenodd"></path><path fill="#000000" fill-opacity="0.0" d="m282.13196 195.7803l159.52756 23.685043" fill-rule="nonzero"></path><path stroke="#bf9000" stroke-width="1.0" stroke-linejoin="round" stroke-linecap="butt" d="m282.13196 195.7803l156.1376 23.181747" fill-rule="evenodd"></path><path fill="#bf9000" stroke="#bf9000" stroke-width="1.0" stroke-linecap="butt" d="m438.26956 218.96205l-1.2775574 0.94721985l3.2214355 -0.6586151l-2.8911133 -1.5661621z" fill-rule="evenodd"></path><path fill="#000000" fill-opacity="0.0" d="m348.98535 176.09427l22.677155 2.960617l-2.551178 14.992126l-22.677155 -2.9606323z" fill-rule="nonzero"></path><path fill="#bf9000" d="m359.59622 198.60167l1.667572 0.43832397q-0.6546631 1.4272461 -1.8963623 2.1160583q-1.2235718 0.6753998 -2.9278564 0.45289612q-2.138092 -0.2791443 -3.170105 -1.7532654q-1.0320129 -1.4741364 -0.62805176 -3.8480682q0.41708374 -2.451004 1.9028931 -3.643692q1.5013123 -1.1906586 3.5309753 -0.92567444q1.9676819 0.2568817 2.9815674 1.7444153q1.0138855 1.4875183 0.6020508 3.9076996q-0.023620605 0.13873291 -0.08895874 0.42959595l-7.281952 -0.95069885q-0.17984009 1.6153107 0.4970398 2.570343q0.6768799 0.9550476 1.9008789 1.1148376q0.8986206 0.11732483 1.6125488 -0.26219177q0.73205566 -0.39291382 1.29776 -1.3905792zm-4.9844055 -3.3768005l5.453705 0.7120056q0.0987854 -1.2319489 -0.30758667 -1.9153137q-0.62753296 -1.0588989 -1.8980103 -1.224762q-1.131012 -0.1476593 -2.0523376 0.519928q-0.90322876 0.6542053 -1.1957703 1.9081421z" fill-rule="nonzero"></path><path fill="#000000" fill-opacity="0.0" d="m281.1764 308.67355l160.53543 -11.842529" fill-rule="nonzero"></path><path stroke="#bf9000" stroke-width="1.0" stroke-linejoin="round" stroke-linecap="butt" d="m284.59418 308.42142l157.11765 -11.590393" fill-rule="evenodd"></path><path fill="#bf9000" stroke="#bf9000" stroke-width="1.0" stroke-linecap="butt" d="m284.59418 308.42142l1.0388184 -1.2042542l-2.9986572 1.3488464l3.1641235 0.8942261z" fill-rule="evenodd"></path><path fill="#000000" fill-opacity="0.0" d="m281.17642 226.63377l159.52756 23.685028" fill-rule="nonzero"></path><path stroke="#134f5c" stroke-width="1.0" stroke-linejoin="round" stroke-linecap="butt" d="m281.17642 226.63377l156.13763 23.181747" fill-rule="evenodd"></path><path fill="#134f5c" stroke="#134f5c" stroke-width="1.0" stroke-linecap="butt" d="m437.31406 249.8155l-1.2775574 0.9472351l3.2214355 -0.6586151l-2.8911133 -1.5661621z" fill-rule="evenodd"></path><path fill="#000000" fill-opacity="0.0" d="m348.98257 205.9346l22.677185 2.960617l-2.5512085 14.992126l-22.677155 -2.960617z" fill-rule="nonzero"></path><path fill="#134f5c" d="m355.34494 231.08614l1.4348755 -8.432083l-1.4718933 -0.19216919l0.22033691 -1.2948608l1.4718933 0.19215393l0.17575073 -1.0328064q0.16525269 -0.9711609 0.4170227 -1.4267731q0.3425598 -0.61709595 1.0123901 -0.923584q0.67245483 -0.3218994 1.7569885 -0.18031311q0.6972046 0.09101868 1.5231323 0.35643005l-0.49447632 1.4166565q-0.49554443 -0.15924072 -0.96035767 -0.21992493q-0.7591858 -0.099121094 -1.1241455 0.18414307q-0.3623352 0.26785278 -0.5118408 1.1465149l-0.15216064 0.8940735l1.9057007 0.24880981l-0.22033691 1.2948608l-1.9057007 -0.24879456l-1.4348755 8.432068l-1.6423035 -0.21440125z" fill-rule="nonzero"></path><path fill="#000000" fill-opacity="0.0" d="m280.22348 326.75668l160.53543 -11.842529" fill-rule="nonzero"></path><path stroke="#134f5c" stroke-width="1.0" stroke-linejoin="round" stroke-linecap="butt" d="m283.6413 326.50452l157.11765 -11.590363" fill-rule="evenodd"></path><path fill="#134f5c" stroke="#134f5c" stroke-width="1.0" stroke-linecap="butt" d="m283.6413 326.50455l1.0387878 -1.2042847l-2.9986572 1.3488464l3.1641235 0.8942261z" fill-rule="evenodd"></path><path fill="#000000" fill-opacity="0.0" d="m282.13055 351.51535l159.52756 23.685028" fill-rule="nonzero"></path><path stroke="#a64d79" stroke-width="1.0" stroke-linejoin="round" stroke-linecap="butt" d="m282.13055 351.51535l156.1376 23.181702" fill-rule="evenodd"></path><path fill="#a64d79" stroke="#a64d79" stroke-width="1.0" stroke-linecap="butt" d="m438.26816 374.69708l-1.2775269 0.9472351l3.221405 -0.6586304l-2.8911133 -1.5661621z" fill-rule="evenodd"></path><path fill="#000000" fill-opacity="0.0" d="m325.22943 326.89877l72.09448 9.480286l-2.551178 14.992126l-72.09448 -9.480316z" fill-rule="nonzero"></path><path fill="#741b47" d="m343.2176 353.58856l0.20983887 -1.2331543q-1.1760559 1.3267212 -2.9730835 1.0904236q-1.1618958 -0.152771 -2.045807 -0.91516113q-0.8657837 -0.77575684 -1.2138977 -1.9877319q-0.32998657 -1.2253418 -0.07556152 -2.7205505q0.24658203 -1.4489746 0.9288025 -2.572754q0.6976929 -1.1217346 1.7657471 -1.6274414q1.0834961 -0.5036621 2.2918396 -0.34475708q0.8830261 0.116119385 1.501709 0.5757141q0.6341858 0.4616089 0.9656372 1.119812l0.8183899 -4.8093567l1.6421204 0.21594238l-2.282074 13.410706l-1.5336609 -0.20169067zm-4.409912 -5.5441284q-0.3173828 1.8651428 0.31530762 2.893921q0.64816284 1.0307922 1.717102 1.1713562q1.0844116 0.14260864 1.9930115 -0.63619995q0.90859985 -0.7788086 1.2181396 -2.5977478q0.3383789 -1.9884644 -0.2788391 -3.0151978q-0.614563 -1.0421448 -1.7454529 -1.1908569q-1.0999146 -0.1446228 -1.995636 0.6516113q-0.89575195 0.79626465 -1.2236328 2.723114zm10.849762 10.4253845q-1.069458 -1.9057007 -1.6236267 -4.326721q-0.5515137 -2.4364624 -0.13183594 -4.9028015q0.37246704 -2.1888733 1.4079895 -4.085663q1.230011 -2.202179 3.340393 -4.272827l1.1928711 0.15682983q-1.4380493 1.7493286 -1.9333801 2.5194397q-0.7727661 1.1906738 -1.331543 2.519806q-0.6939697 1.6580505 -0.98773193 3.3844604q-0.7502136 4.4085693 1.2597351 9.164337l-1.1928711 -0.15686035zm10.895752 -5.8008423l1.6673584 0.4399109q-0.65460205 1.4268188 -1.8961487 2.114563q-1.2234497 0.67437744 -2.9275208 0.45028687q-2.137848 -0.2810974 -3.1697083 -1.7563477q-1.0318604 -1.4752502 -0.6279297 -3.8490906q0.41708374 -2.4509277 1.9027405 -3.642395q1.5011292 -1.1894531 3.530548 -0.9225769q1.9674377 0.2586975 2.9811707 1.747345q1.0137634 1.488617 0.6019287 3.9086914q-0.023590088 0.13873291 -0.08892822 0.42956543l-7.281067 -0.957428q-0.17984009 1.6153259 0.49691772 2.571106q0.67678833 0.95578 1.9006348 1.1166992q0.89852905 0.11816406 1.6123657 -0.2607727q0.7319641 -0.39227295 1.2976379 -1.3895569zm-4.983795 -3.3817444l5.453064 0.71707153q0.0987854 -1.2320251 -0.30752563 -1.9158325q-0.6274414 -1.0596008 -1.8977356 -1.2266235q-1.1308899 -0.14871216 -2.052124 0.51812744q-0.9031067 0.6534424 -1.1956787 1.9072571zm8.479828 7.0406494l0.32003784 -1.8805542l1.8899536 0.24850464l-0.32000732 1.8805847q-0.17575073 1.0327759 -0.65509033 1.6159058q-0.4819641 0.59851074 -1.3297424 0.83374023l-0.3440857 -0.77020264q0.56344604 -0.1465149 0.8873596 -0.5609436q0.3239441 -0.4144287 0.49658203 -1.2427673l-0.9450073 -0.12426758zm5.1080933 0.6717224l1.4348145 -8.431793l-1.4717102 -0.19351196l0.22033691 -1.2948303l1.4717102 0.19354248l0.17575073 -1.0328064q0.16525269 -0.97109985 0.41696167 -1.4265442q0.3425598 -0.6168518 1.0122986 -0.9227905q0.6723938 -0.32131958 1.7568054 -0.17871094q0.69711304 0.091674805 1.5229187 0.35784912l-0.49441528 1.4163818q-0.49551392 -0.159729 -0.9602356 -0.2208252q-0.75909424 -0.099823 -1.1240234 0.18313599q-0.3623047 0.2675476 -0.5118103 1.1461792l-0.15213013 0.89404297l1.9054565 0.25057983l-0.22033691 1.2948303l-1.9054565 -0.25057983l-1.4348145 8.431793l-1.6421204 -0.21594238zm5.1492004 4.711548l-1.1773682 -0.15481567q3.4895935 -4.032593 4.2397766 -8.441162q0.2911682 -1.711029 0.19241333 -3.45755q-0.09185791 -1.4146729 -0.43447876 -2.7520142q-0.21466064 -0.87924194 -1.0047913 -2.937317l1.1773682 0.15481567q1.3442078 2.5249329 1.7718201 4.9450684q0.37423706 2.0822144 0.001739502 4.2710876q-0.41967773 2.4663086 -1.7736206 4.652191q-1.3358154 2.1725159 -2.992859 3.719696z" fill-rule="nonzero"></path><path fill="#000000" fill-opacity="0.0" d="m280.22223 430.7826l160.53543 -11.842499" fill-rule="nonzero"></path><path stroke="#741b47" stroke-width="1.0" stroke-linejoin="round" stroke-linecap="butt" d="m283.64005 430.53046l157.11761 -11.590363" fill-rule="evenodd"></path><path fill="#741b47" stroke="#741b47" stroke-width="1.0" stroke-linecap="butt" d="m283.64005 430.5305l1.0387878 -1.2042847l-2.9986572 1.3488464l3.1641235 0.8942261z" fill-rule="evenodd"></path><path fill="#000000" fill-opacity="0.0" d="m281.17514 482.24542l159.52756 23.685059" fill-rule="nonzero"></path><path stroke="#3d85c6" stroke-width="1.0" stroke-linejoin="round" stroke-linecap="butt" d="m281.17514 482.2454l156.13763 23.181732" fill-rule="evenodd"></path><path fill="#3d85c6" stroke="#3d85c6" stroke-width="1.0" stroke-linecap="butt" d="m437.31277 505.42715l-1.2775269 0.9472351l3.221405 -0.6586304l-2.8911133 -1.5661621z" fill-rule="evenodd"></path><path fill="#000000" fill-opacity="0.0" d="m279.2668 518.6085l160.53546 -11.84256" fill-rule="nonzero"></path><path stroke="#3c78d8" stroke-width="1.0" stroke-linejoin="round" stroke-linecap="butt" d="m282.68463 518.3563l157.11761 -11.590363" fill-rule="evenodd"></path><path fill="#3c78d8" stroke="#3c78d8" stroke-width="1.0" stroke-linecap="butt" d="m282.68463 518.3563l1.0388184 -1.2042236l-2.9986877 1.3488159l3.164154 0.8942261z" fill-rule="evenodd"></path><path fill="#000000" fill-opacity="0.0" d="m325.22943 460.4956l72.09448 9.480316l-2.551178 14.992126l-72.09448 -9.480316z" fill-rule="nonzero"></path><path fill="#3d85c6" d="m340.89462 485.6507q-1.0632935 0.6639404 -1.970398 0.87557983q-0.9045105 0.19625854 -1.8804932 0.06793213q-1.5956421 -0.20983887 -2.3320007 -1.094635q-0.73376465 -0.90023804 -0.5265503 -2.117981q0.123291016 -0.7244873 0.5483093 -1.267456q0.4249878 -0.54296875 1.0120239 -0.8282471q0.58706665 -0.28527832 1.284668 -0.3826599q0.51934814 -0.07354736 1.5136719 -0.053100586q2.0558777 0.018188477 3.0559692 -0.1812439q0.05770874 -0.33914185 0.07345581 -0.4316101q0.17047119 -1.0019531 -0.2234497 -1.479248q-0.54071045 -0.63845825 -1.7955322 -0.8034668q-1.1618958 -0.152771 -1.7877808 0.1746521q-0.625885 0.3274536 -1.067627 1.3410034l-1.5872803 -0.44509888q0.4081421 -1.0022278 1.0114136 -1.5690308q0.6187744 -0.5647888 1.62146 -0.77963257q1.020813 -0.22824097 2.2911377 -0.061187744q1.2548218 0.16500854 1.9795532 0.5597229q0.72473145 0.39474487 1.0204773 0.8906555q0.29571533 0.49591064 0.31973267 1.1924744q0.022125244 0.42843628 -0.16409302 1.5228577l-0.37512207 2.2042847q-0.39083862 2.2967834 -0.4028015 2.9255981q0.006134033 0.6154175 0.23703003 1.2131348l-1.7350464 -0.22817993q-0.17681885 -0.54330444 -0.12072754 -1.2451172zm0.48486328 -3.6869812q-0.9588623 0.23635864 -2.815979 0.2600708q-1.046051 0.004272461 -1.4957886 0.13424683q-0.44976807 0.12997437 -0.74246216 0.45394897q-0.2926941 0.3239746 -0.3661499 0.7555847q-0.11279297 0.6628418 0.30688477 1.1750488q0.43777466 0.49884033 1.3982544 0.6251526q0.96047974 0.12628174 1.7749023 -0.19213867q0.8170471 -0.33380127 1.2940063 -0.9960327q0.3604126 -0.53570557 0.54403687 -1.6147156l0.10229492 -0.6011658zm5.7039185 9.764496q-1.0694885 -1.9057007 -1.6236267 -4.3267517q-0.5515442 -2.4364624 -0.13183594 -4.902771q0.37246704 -2.1888733 1.407959 -4.0856934q1.230011 -2.202179 3.3404236 -4.272827l1.1928711 0.15686035q-1.4380493 1.7492981 -1.9333801 2.5194397q-0.77279663 1.1906433 -1.3315735 2.5197754q-0.6939392 1.6580505 -0.98773193 3.384491q-0.7501831 4.4085693 1.2597656 9.164337l-1.1928711 -0.15686035zm5.204529 -3.3500671l-1.5336609 -0.20166016l2.282074 -13.410706l1.6420898 0.21594238l-0.81314087 4.778534q1.2763977 -1.1717224 2.9030151 -0.9578247q0.89852905 0.11816406 1.6411133 0.59402466q0.74523926 0.46047974 1.1436768 1.1905212q0.41656494 0.7166748 0.5534973 1.6802673q0.13696289 0.963562 -0.041412354 2.0117798q-0.42492676 2.4971619 -1.8977051 3.7060852q-1.4701538 1.193512 -3.2052307 0.96533203q-1.7350464 -0.22814941 -2.467102 -1.7900391l-0.20721436 1.2177429zm0.82388306 -4.9346924q-0.29638672 1.7418518 0.034576416 2.5891113q0.5749817 1.3678894 1.9072571 1.5430603q1.0844116 0.14260864 2.0318909 -0.67837524q0.95007324 -0.83639526 1.267456 -2.7015686q0.32263184 -1.8959656 -0.28167725 -2.9052734q-0.6043396 -1.0092773 -1.6732483 -1.1498413q-1.0844421 -0.14257812 -2.0345154 0.69381714q-0.95007324 0.83639526 -1.2517395 2.6090698zm8.363373 6.1428223l0.32000732 -1.8805847l1.8899841 0.24853516l-0.32000732 1.8805542q-0.17575073 1.0328064 -0.65509033 1.6159058q-0.4819641 0.59851074 -1.3297424 0.83374023l-0.3440857 -0.7701721q0.5634155 -0.14654541 0.8873596 -0.5609741q0.3239441 -0.4144287 0.4965515 -1.2427368l-0.9449768 -0.12426758zm11.041382 1.4519043l0.20983887 -1.2331543q-1.1760559 1.3267517 -2.9730835 1.0904236q-1.1618958 -0.152771 -2.045807 -0.91516113q-0.8658142 -0.7757263 -1.2138977 -1.9877319q-0.32998657 -1.2253418 -0.07556152 -2.7205505q0.24658203 -1.4489746 0.9288025 -2.572754q0.6976929 -1.1217346 1.7657166 -1.6274109q1.0835266 -0.5036621 2.29187 -0.3447876q0.8830261 0.116119385 1.501709 0.5757141q0.6341858 0.4616089 0.9656372 1.119812l0.8183899 -4.809326l1.6421204 0.21591187l-2.282074 13.410706l-1.5336609 -0.20169067zm-4.409912 -5.5441284q-0.3173828 1.8651733 0.31530762 2.893921q0.64816284 1.0308228 1.717102 1.1713867q1.0844116 0.14257812 1.9930115 -0.63623047q0.90859985 -0.7788086 1.2181396 -2.5977173q0.3383484 -1.9884949 -0.2788391 -3.0152283q-0.614563 -1.0421448 -1.7454529 -1.1908569q-1.0999146 -0.1446228 -1.995636 0.65164185q-0.89575195 0.79626465 -1.2236328 2.7230835zm8.773895 10.152435l-1.1773682 -0.15481567q3.4895935 -4.032593 4.239807 -8.441162q0.2911377 -1.711029 0.19238281 -3.45755q-0.09185791 -1.4146729 -0.43447876 -2.7520142q-0.21466064 -0.87924194 -1.0047913 -2.937317l1.1773682 0.15481567q1.3442383 2.5249329 1.7718201 4.945099q0.37423706 2.0821838 0.0017700195 4.271057q-0.41970825 2.4663086 -1.7736511 4.6522217q-1.3358154 2.1724854 -2.992859 3.7196655z" fill-rule="nonzero"></path><path fill="#000000" fill-opacity="0.0" d="m280.20993 463.73132l163.37009 -17.35431" fill-rule="nonzero"></path><path stroke="#93c47d" stroke-width="1.0" stroke-linejoin="round" stroke-linecap="butt" d="m283.61786 463.36935l159.96216 -16.99234" fill-rule="evenodd"></path><path fill="#93c47d" stroke="#93c47d" stroke-width="1.0" stroke-linecap="butt" d="m283.61786 463.36932l0.9994812 -1.2370911l-2.9536743 1.4446716l3.1912537 0.79193115z" fill-rule="evenodd"></path><path fill="#000000" fill-opacity="0.0" d="m279.435 383.9106l158.6142 19.433075" fill-rule="nonzero"></path><path stroke="#93c47d" stroke-width="1.0" stroke-linejoin="round" stroke-linecap="butt" d="m279.43503 383.91058l155.2125 19.016327" fill-rule="evenodd"></path><path fill="#93c47d" stroke="#93c47d" stroke-width="1.0" stroke-linecap="butt" d="m434.64752 402.9269l-1.2529907 0.97946167l3.2035828 -0.7404785l-2.9300842 -1.4919739z" fill-rule="evenodd"></path><path fill="#000000" fill-opacity="0.0" d="m327.2065 356.47412l55.62204 7.338562l-2.551178 14.992126l-55.62207 -7.338562z" fill-rule="nonzero"></path><path fill="#93c47d" d="m337.8152 382.1998l-1.5335999 -0.20233154l2.2820435 -13.410461l1.6420288 0.21664429l-0.81314087 4.7784424q1.2763062 -1.1712341 2.902832 -0.9566345q0.898468 0.11853027 1.6410522 0.5947571q0.7451782 0.4607849 1.1435852 1.1910706q0.41653442 0.7168884 0.5534668 1.6805725q0.13693237 0.9636841 -0.041412354 2.0118713q-0.42495728 2.4971313 -1.897644 3.7055054q-1.4700928 1.1929321 -3.2050476 0.9640503q-1.7349854 -0.22891235 -2.4669495 -1.7911987l-0.20721436 1.2177124zm0.82385254 -4.9346313q-0.29638672 1.7418213 0.034576416 2.589264q0.57492065 1.3682251 1.907135 1.5439758q1.0843506 0.1430664 2.0317688 -0.67755127q0.9500122 -0.83602905 1.267395 -2.7011719q0.32263184 -1.8959656 -0.28164673 -2.905548q-0.60427856 -1.009613 -1.6731567 -1.1506348q-1.0843506 -0.1430664 -2.0343628 0.69299316q-0.9500427 0.83602905 -1.251709 2.608673zm10.417755 10.452484q-1.0694275 -1.90625 -1.6235352 -4.327667q-0.55148315 -2.4368286 -0.1317749 -4.9031067q0.37246704 -2.1888428 1.4079285 -4.085327q1.22995 -2.2017822 3.3402405 -4.2716675l1.1927795 0.15737915q-1.4379578 1.7488098 -1.933258 2.5187683q-0.7727661 1.1903992 -1.3315125 2.5193481q-0.6939087 1.6578674 -0.9877014 3.3842773q-0.7501831 4.408478 1.259613 9.165375l-1.1927795 -0.15737915zm10.658783 -6.269043l1.5898132 0.43041992q-0.54663086 1.6300049 -1.8091125 2.4405823q-1.2598572 0.795166 -2.8708801 0.5826111q-1.9983215 -0.26367188 -3.0017395 -1.7199402q-0.98532104 -1.469635 -0.57089233 -3.9050903q0.2675476 -1.5722656 0.9780884 -2.6763q0.7286682 -1.1174316 1.8972168 -1.5621338q1.1866455 -0.45809937 2.4413757 -0.2925415q1.5955505 0.21051025 2.4660645 1.1448975q0.8705139 0.9343872 0.9130249 2.453003l-1.6530151 0.034057617q-0.06448364 -1.0171509 -0.56921387 -1.5880737q-0.5046997 -0.57092285 -1.3257141 -0.67926025q-1.2547607 -0.16555786 -2.1968994 0.6242676q-0.9266968 0.7918396 -1.2545776 2.718628q-0.33309937 1.9576111 0.2738037 2.9517822q0.6095276 0.97875977 1.81781 1.1381836q0.97592163 0.12875366 1.7261963 -0.3711548q0.7529297 -0.5153198 1.1486511 -1.723938zm2.6727295 8.027954l-1.1773071 -0.15533447q3.489441 -4.031311 4.239624 -8.439819q0.2911377 -1.7109985 0.19241333 -3.457672q-0.09185791 -1.4147949 -0.43444824 -2.7523499q-0.21463013 -0.879364 -1.0046997 -2.9378967l1.1772766 0.15533447q1.3441467 2.5256348 1.771698 4.946106q0.37420654 2.0824585 0.001739502 4.2713013q-0.41967773 2.466278 -1.7735596 4.6517334q-1.3357849 2.172058 -2.9927368 3.7185974z" fill-rule="nonzero"></path></g></svg>

